<svg width="44" height="44" viewBox="0 0 44 44" fill="none" xmlns="http://www.w3.org/2000/svg">
<path d="M22 44C34.1503 44 44 34.1503 44 22C44 9.84974 34.1503 0 22 0C9.84974 0 0 9.84974 0 22C0 34.1503 9.84974 44 22 44Z" fill="#D5E2EB"/>
<path d="M33.8754 29.2001C33.8333 28.5198 33.5004 27.8893 32.9631 27.4714L29.787 24.9987C28.9507 24.3482 27.6838 24.3523 26.8507 25.0099L26.1451 25.5676C25.5896 26.005 24.7484 25.9548 24.249 25.4577L18.5679 19.7761C18.0556 19.2639 18.0079 18.4491 18.4573 17.881L19.0152 17.1747C19.6962 16.3128 19.7009 15.1059 19.0258 14.2388L16.554 11.063C16.0997 10.4795 15.4149 10.145 14.6758 10.145C14.0406 10.145 13.4437 10.392 12.9948 10.8416L10.9658 12.8704C10.3934 13.4428 9.58697 14.8089 10.6112 17.5316C11.5588 20.0489 13.8327 23.1193 17.3699 26.6554C23.32 32.6068 26.9412 33.8552 28.9304 33.8552H28.9312C30.1104 33.8552 30.7916 33.4223 31.1548 33.0587L33.1829 31.0301C33.665 30.548 33.9179 29.8812 33.8754 29.2001Z" fill="#69B77A"/>
<path d="M24.3086 20.2923C24.1227 20.1067 24.1227 19.8054 24.3086 19.6198L31.5758 12.3526H27.0206C26.7583 12.3526 26.5453 12.14 26.5453 11.8775C26.5453 11.6151 26.7583 11.4023 27.0206 11.4023H32.7228C32.7848 11.4023 32.8467 11.4148 32.9042 11.4387C33.0209 11.4874 33.1131 11.5796 33.1615 11.6961C33.1855 11.7545 33.1982 11.8155 33.1982 11.8775V17.5801C33.1982 17.8424 32.9856 18.0555 32.7228 18.0555C32.4604 18.0555 32.2474 17.8424 32.2474 17.5801V13.0247L24.9807 20.2923C24.7953 20.4778 24.494 20.4778 24.3086 20.2923Z" fill="#F36360"/>
</svg>
