<svg width="924" height="368" viewBox="0 0 924 368" fill="none" xmlns="http://www.w3.org/2000/svg">
<path opacity="0.1" d="M462 307C717.156 307 924 303.642 924 299.5C924 295.358 717.156 292 462 292C206.844 292 0 295.358 0 299.5C0 303.642 206.844 307 462 307Z" fill="#6C63FF"/>
<path opacity="0.1" d="M462 368C717.156 368 924 364.642 924 360.5C924 356.358 717.156 353 462 353C206.844 353 0 356.358 0 360.5C0 364.642 206.844 368 462 368Z" fill="#6C63FF"/>
<path opacity="0.1" d="M462 179C717.156 179 924 175.642 924 171.5C924 167.358 717.156 164 462 164C206.844 164 0 167.358 0 171.5C0 175.642 206.844 179 462 179Z" fill="#6C63FF"/>
<path opacity="0.1" d="M462 243C717.156 243 924 239.642 924 235.5C924 231.358 717.156 228 462 228C206.844 228 0 231.358 0 235.5C0 239.642 206.844 243 462 243Z" fill="#6C63FF"/>
<path opacity="0.1" d="M227 37.5893C229.15 37.2131 231.373 37.4379 233.385 38.2349C234.593 38.7343 235.9 38.9924 237.223 38.9924C238.545 38.9924 239.853 38.7343 241.06 38.2349C242.488 37.655 244.034 37.369 245.593 37.3965C247.151 37.424 248.685 37.7645 250.087 38.3943C250.882 38.7866 251.768 38.9945 252.669 39C256.326 39 259.372 35.5808 260 31.0776C259.271 30.5837 258.651 29.9639 258.176 29.2524C256.025 26.0643 252.703 24 248.977 24C245.251 24 241.964 26.0244 239.813 29.1966C239.174 30.1532 238.279 30.9407 237.214 31.4825C236.15 32.0243 234.952 32.3022 233.738 32.2891H233.643C230.743 32.305 228.213 34.4649 227 37.5893Z" fill="#6C63FF"/>
<path opacity="0.1" d="M216.501 22.6316L222.328 26.2764L218.788 19.9397C219.789 19.1484 221.029 18.71 222.311 18.6941H222.404C222.81 18.6999 223.215 18.6719 223.615 18.6105L225.589 19.8394L224.742 18.3263C226.138 17.845 227.344 16.941 228.189 15.7431L231.721 17.9501L229.519 13.9458C230.458 12.7501 231.655 11.7757 233.023 11.0932C234.392 10.4107 235.897 10.0373 237.429 10C241.096 10 244.374 12.1568 246.483 15.5174C247.107 16.521 247.989 17.344 249.039 17.9032C250.089 18.4625 251.27 18.7382 252.462 18.7025H252.666C256.714 18.7025 260 23.2419 260 28.8345C260 34.4272 256.714 38.9666 252.666 38.9666C251.78 38.9627 250.908 38.7476 250.125 38.3396C248.745 37.6755 247.236 37.3158 245.702 37.2855C244.168 37.2552 242.645 37.555 241.24 38.164C240.05 38.7063 238.757 38.9914 237.446 39C236.151 38.9989 234.87 38.7313 233.686 38.2142C232.292 37.6185 230.786 37.3252 229.267 37.354C227.749 37.3829 226.255 37.7332 224.886 38.3814C224.102 38.7868 223.23 38.999 222.345 39C218.288 39 215.002 34.469 215.002 28.868C214.963 26.6978 215.478 24.5529 216.501 22.6316Z" fill="#6C63FF"/>
<path d="M560.477 297C562.681 292.909 560.181 287.905 557.31 284.262C554.438 280.619 550.925 276.824 551.001 272.184C551.111 265.515 558.188 261.568 563.838 258.035C568.034 255.402 571.903 252.281 575.366 248.737C576.814 247.373 578.011 245.766 578.904 243.987C580.078 241.384 580.044 238.409 579.968 235.535C579.726 226.018 579.256 216.506 578.558 207" stroke="#3F3D56" stroke-width="4" stroke-miterlimit="10"/>
<path d="M588.989 206.015C588.906 204.255 588.383 202.545 587.466 201.041C586.549 199.537 585.269 198.288 583.743 197.408L581.389 202.057L581.466 196.428C579.331 195.799 577.051 195.865 574.956 196.616C572.861 197.367 571.059 198.765 569.81 200.607C568.561 202.449 567.929 204.64 568.006 206.865C568.084 209.089 568.866 211.231 570.24 212.982C571.614 214.733 573.508 216.002 575.65 216.606C577.792 217.21 580.071 217.118 582.157 216.342C584.244 215.567 586.03 214.149 587.257 212.293C588.485 210.437 589.092 208.238 588.989 206.015Z" fill="#6C63FF"/>
<path d="M569.918 276.552C568.911 278.515 567.286 280.091 565.296 281.035C563.306 281.98 561.061 282.24 558.908 281.775C556.756 281.311 554.816 280.148 553.389 278.466C551.962 276.784 551.127 274.678 551.014 272.472C550.939 271.082 551.161 269.691 551.665 268.393C552.402 266.5 553.695 264.876 555.371 263.735C557.047 262.593 559.029 261.989 561.056 262C563.082 262.012 565.057 262.639 566.72 263.799C568.384 264.959 569.657 266.598 570.374 268.499L564.118 273.606L571 271.975C571.008 273.565 570.637 275.134 569.918 276.552Z" fill="#6C63FF"/>
<path d="M565.004 255.989C562.425 256.104 559.891 255.313 557.886 253.765C555.882 252.217 554.546 250.021 554.134 247.597C553.723 245.172 554.264 242.688 555.655 240.618C557.045 238.549 559.188 237.039 561.674 236.376L561.615 240.494L563.997 236.011C566.782 235.887 569.504 236.821 571.566 238.606C573.627 240.392 574.858 242.884 574.989 245.533C575.119 248.182 574.137 250.772 572.26 252.733C570.383 254.694 567.763 255.865 564.978 255.989H565.004Z" fill="#6C63FF"/>
<path d="M590.035 239.986C588.408 240.07 586.784 239.774 585.291 239.121C583.798 238.468 582.478 237.477 581.434 236.225C580.391 234.973 579.653 233.495 579.28 231.908C578.906 230.322 578.907 228.67 579.282 227.083C579.657 225.497 580.396 224.02 581.44 222.769C582.484 221.517 583.806 220.527 585.299 219.875C586.792 219.224 588.417 218.929 590.043 219.014C591.67 219.1 593.255 219.563 594.672 220.368L592.822 225.486L596.598 221.75C598.125 223.151 599.204 224.973 599.698 226.987C600.191 229 600.078 231.115 599.373 233.065C598.667 235.014 597.401 236.711 595.733 237.941C594.065 239.171 592.07 239.88 590 239.977L590.035 239.986Z" fill="#6C63FF"/>
<path opacity="0.1" d="M587.81 208.928C585.36 209.187 582.979 209.924 580.512 210.075C578.045 210.226 575.337 209.648 573.802 207.797C573.079 206.718 572.423 205.599 571.835 204.446C571.164 203.429 570.246 202.589 569.161 202C568.474 203.307 568.082 204.741 568.012 206.207C567.941 207.672 568.193 209.136 568.752 210.499C569.31 211.863 570.162 213.095 571.25 214.113C572.337 215.131 573.637 215.912 575.06 216.404C576.484 216.896 577.999 217.086 579.505 216.964C581.01 216.842 582.472 216.408 583.791 215.694C585.111 214.979 586.258 213.999 587.156 212.819C588.054 211.639 588.683 210.287 589 208.852C588.612 208.86 588.206 208.886 587.81 208.928Z" fill="black"/>
<path opacity="0.1" d="M590.61 239.988C588.863 240.074 587.125 239.689 585.564 238.872C584.003 238.054 582.672 236.831 581.702 235.322C580.732 233.813 580.155 232.07 580.027 230.261C579.899 228.452 580.225 226.64 580.973 225C581.776 225.563 582.466 226.282 583.006 227.117C583.611 228.313 584.281 229.473 585.014 230.591C586.594 232.511 589.293 233.151 591.737 233.023C594.182 232.895 596.543 232.17 598.979 231.956C599.317 231.956 599.654 231.905 600 231.897C599.496 234.121 598.307 236.114 596.612 237.574C594.918 239.034 592.81 239.882 590.61 239.988Z" fill="black"/>
<path opacity="0.1" d="M565.244 255.989C563.411 256.069 561.587 255.712 559.945 254.954C558.303 254.196 556.899 253.062 555.865 251.659C554.832 250.256 554.204 248.632 554.042 246.941C553.88 245.25 554.189 243.549 554.939 242C555.824 242.539 556.596 243.223 557.217 244.018C557.92 245.177 558.698 246.295 559.546 247.368C561.353 249.233 564.407 249.895 567.147 249.79C569.887 249.685 572.382 249.136 575 248.982C574.349 250.936 573.063 252.656 571.317 253.91C569.572 255.163 567.451 255.889 565.244 255.989Z" fill="black"/>
<path opacity="0.1" d="M570 276.394C568.988 278.415 567.357 280.036 565.358 281.008C563.359 281.979 561.104 282.247 558.942 281.769C556.781 281.291 554.832 280.094 553.399 278.364C551.966 276.634 551.128 274.466 551.014 272.197C550.939 270.766 551.162 269.335 551.668 268C552.496 268.559 553.239 269.241 553.874 270.023C554.829 271.215 555.458 272.541 556.569 273.691C558.62 275.765 561.945 276.621 564.894 276.696C566.6 276.702 568.306 276.601 570 276.394Z" fill="black"/>
<path d="M45.4768 236C47.681 231.909 45.1812 226.905 42.3098 223.262C39.4384 219.619 35.9252 215.807 36.0012 211.184C36.111 204.515 43.1881 200.568 48.838 197.035C53.0337 194.402 56.9032 191.281 60.3657 187.737C61.8138 186.373 63.0114 184.766 63.9043 182.987C65.0782 180.384 65.0444 177.409 64.9684 174.535C64.7206 165.018 64.2505 155.506 63.558 146" stroke="#3F3D56" stroke-width="4" stroke-miterlimit="10"/>
<path d="M74.9888 146.015C74.9064 144.255 74.3828 142.545 73.4661 141.041C72.5494 139.537 71.2691 138.288 69.7431 137.408L67.3889 142.057L67.4656 136.428C65.3306 135.799 63.0511 135.865 60.956 136.616C58.861 137.367 57.0589 138.765 55.8097 140.607C54.5606 142.449 53.9291 144.64 54.0063 146.865C54.0836 149.089 54.8656 151.231 56.2396 152.982C57.6135 154.733 59.5083 156.002 61.6504 156.606C63.7925 157.21 66.0711 157.118 68.1574 156.342C70.2436 155.567 72.0296 154.149 73.2575 152.293C74.4853 150.437 75.0916 148.238 74.9888 146.015Z" fill="#6C63FF"/>
<path d="M55.8639 216.279C54.8063 218.341 53.1006 219.996 51.0108 220.987C48.921 221.979 46.5636 222.252 44.3035 221.764C42.0434 221.276 40.0065 220.055 38.5082 218.289C37.0098 216.523 36.1335 214.312 36.0149 211.996C35.9363 210.536 36.1693 209.075 36.6982 207.713C37.4725 205.725 38.8293 204.02 40.5895 202.821C42.3498 201.623 44.4309 200.988 46.5583 201C48.6858 201.012 50.7596 201.671 52.5062 202.889C54.2529 204.107 55.5904 205.828 56.3422 207.824L49.7743 213.187L56.9999 211.473C57.0082 213.143 56.6187 214.791 55.8639 216.279Z" fill="#6C63FF"/>
<path d="M51.0041 195.988C48.4249 196.11 45.8913 195.278 43.8865 193.653C41.8817 192.028 40.5461 189.722 40.1344 187.176C39.7228 184.631 40.2639 182.022 41.6546 179.849C43.0453 177.676 45.1882 176.091 47.6745 175.395L47.6147 179.718L49.9967 175.011C51.3757 174.947 52.7539 175.155 54.0526 175.622C55.3513 176.09 56.5451 176.808 57.5657 177.737C58.5864 178.665 59.414 179.785 60.0013 181.033C60.5886 182.281 60.9241 183.632 60.9885 185.01C61.053 186.387 60.8452 187.763 60.3771 189.061C59.9089 190.358 59.1895 191.55 58.26 192.57C57.3305 193.589 56.209 194.416 54.9596 195.002C53.7103 195.589 52.3575 195.924 50.9784 195.988H51.0041Z" fill="#6C63FF"/>
<path d="M76.0346 178.986C74.4077 179.07 72.7835 178.774 71.2908 178.121C69.7981 177.468 68.4777 176.477 67.4344 175.225C66.3911 173.973 65.6534 172.495 65.2797 170.908C64.9061 169.322 64.9068 167.67 65.2817 166.083C65.6567 164.497 66.3956 163.02 67.44 161.769C68.4844 160.517 69.8056 159.527 71.2988 158.875C72.7921 158.224 74.4165 157.929 76.0433 158.014C77.6702 158.1 79.2548 158.563 80.6716 159.368L78.8219 164.486L82.598 160.75C84.1253 162.151 85.2039 163.973 85.6977 165.987C86.1915 168 86.0784 170.115 85.3728 172.065C84.6672 174.014 83.4006 175.711 81.7327 176.941C80.0648 178.171 78.0702 178.88 76.0005 178.977L76.0346 178.986Z" fill="#6C63FF"/>
<path opacity="0.1" d="M72.8663 148.389C70.5333 148.666 68.266 149.453 65.9165 149.613C63.567 149.774 60.9876 149.158 59.5253 147.183C58.8376 146.032 58.2122 144.839 57.6523 143.609C57.0137 142.525 56.1389 141.629 55.1057 141C54.4514 142.394 54.0782 143.924 54.011 145.487C53.9438 147.051 54.1842 148.612 54.716 150.066C55.2478 151.52 56.0588 152.834 57.0949 153.92C58.1309 155.007 59.3682 155.84 60.7239 156.364C62.0797 156.889 63.5228 157.092 64.9567 156.962C66.3906 156.831 67.7824 156.369 69.0391 155.607C70.2957 154.844 71.3883 153.799 72.2438 152.54C73.0993 151.282 73.6981 149.839 74 148.309C73.6303 148.318 73.2442 148.345 72.8663 148.389Z" fill="black"/>
<path opacity="0.1" d="M76.1404 178.988C74.3063 179.074 72.4809 178.689 70.8419 177.872C69.2029 177.054 67.806 175.831 66.7873 174.322C65.7686 172.813 65.1626 171.07 65.0284 169.261C64.8943 167.452 65.2364 165.64 66.0215 164C66.8648 164.563 67.5897 165.282 68.1559 166.117C68.7914 167.313 69.4954 168.473 70.2644 169.591C71.9235 171.511 74.7578 172.151 77.3242 172.023C79.8907 171.895 82.3707 171.17 84.9285 170.956C85.2828 170.956 85.6371 170.905 86 170.897C85.4707 173.121 84.2219 175.114 82.4427 176.574C80.6635 178.034 78.451 178.882 76.1404 178.988Z" fill="black"/>
<path opacity="0.1" d="M50.7089 195.988C48.9632 196.073 47.2257 195.692 45.662 194.88C44.0983 194.067 42.7605 192.852 41.7764 191.349C40.7922 189.846 40.1944 188.106 40.04 186.294C39.8856 184.482 40.1797 182.66 40.8943 181C41.7375 181.578 42.4725 182.31 43.0633 183.162C43.7334 184.404 44.4744 185.602 45.2822 186.751C47.0025 188.749 49.9111 189.459 52.5206 189.346C55.1301 189.234 57.5069 188.646 60 188.481C59.3795 190.574 58.1549 192.417 56.4926 193.76C54.8303 195.104 52.8109 195.881 50.7089 195.988Z" fill="black"/>
<path opacity="0.1" d="M56 215.994C54.9351 218.158 53.2177 219.896 51.1136 220.937C49.0095 221.978 46.6359 222.264 44.3604 221.752C42.0848 221.24 40.034 219.958 38.5254 218.104C37.0168 216.25 36.1345 213.928 36.015 211.497C35.9359 209.964 36.1704 208.431 36.703 207C37.5749 207.599 38.3574 208.329 39.0248 209.168C40.0309 210.445 40.6931 211.866 41.8626 213.098C44.021 215.319 47.521 216.237 50.6254 216.318C52.4215 216.323 54.2164 216.215 56 215.994Z" fill="black"/>
<path d="M388.522 166C386.317 161.962 388.817 157.013 391.698 153.41C394.578 149.807 398.075 146.053 397.999 141.464C397.897 134.859 390.819 130.963 385.16 127.469C380.965 124.866 377.098 121.779 373.639 118.273C372.184 116.931 370.983 115.343 370.092 113.583C368.926 111 368.96 108.066 369.027 105.223C369.281 95.8099 369.751 86.4022 370.438 77" stroke="#3F3D56" stroke-width="4" stroke-miterlimit="10"/>
<path d="M359.011 76.0156C359.092 74.2567 359.614 72.5464 360.529 71.0422C361.444 69.5381 362.723 68.2884 364.248 67.4084L366.603 72.0575L366.534 66.4274C367.655 66.1017 368.822 65.9605 369.989 66.0095C372.063 66.1061 374.062 66.8157 375.733 68.0485C377.404 69.2812 378.672 70.9818 379.377 72.9352C380.082 74.8886 380.191 77.0071 379.692 79.0229C379.193 81.0387 378.108 82.8612 376.573 84.2601C375.038 85.659 373.123 86.5714 371.07 86.8819C369.017 87.1925 366.918 86.8872 365.038 86.0048C363.159 85.1224 361.583 83.7024 360.51 81.9244C359.437 80.1463 358.916 78.0901 359.011 76.0156Z" fill="#6C63FF"/>
<path d="M378.16 146.297C379.261 148.44 381.065 150.14 383.27 151.11C385.475 152.081 387.946 152.264 390.27 151.628C392.594 150.992 394.628 149.577 396.032 147.619C397.436 145.662 398.125 143.281 397.981 140.876C397.838 138.471 396.872 136.189 395.246 134.411C393.62 132.634 391.432 131.47 389.049 131.115C386.666 130.76 384.234 131.234 382.159 132.46C380.085 133.685 378.496 135.586 377.657 137.845L384.216 143.184L377 141.478C376.994 143.154 377.392 144.807 378.16 146.297Z" fill="#6C63FF"/>
<path d="M383.003 125.988C385.579 126.106 388.11 125.317 390.114 123.77C392.118 122.222 393.453 120.027 393.865 117.601C394.277 115.176 393.737 112.691 392.349 110.621C390.96 108.55 388.819 107.04 386.336 106.378L386.387 110.495L384.009 106.012C381.229 105.882 378.509 106.809 376.447 108.589C374.385 110.369 373.149 112.857 373.013 115.505C372.953 116.658 373.106 117.813 373.464 118.916C374.094 120.888 375.348 122.627 377.056 123.893C378.764 125.16 380.841 125.891 383.003 125.988Z" fill="#6C63FF"/>
<path d="M358.003 109.986C359.625 110.069 361.244 109.772 362.732 109.118C364.22 108.465 365.536 107.472 366.576 106.22C367.616 104.968 368.35 103.49 368.722 101.903C369.094 100.317 369.093 98.6649 368.718 97.079C368.343 95.4931 367.606 94.0164 366.564 92.7659C365.522 91.5154 364.205 90.5254 362.716 89.8743C361.226 89.2232 359.607 88.9288 357.984 89.0145C356.362 89.1003 354.782 89.5637 353.37 90.3682L355.223 95.486L351.414 91.8268C350.398 92.7501 349.575 93.8662 348.991 95.1106C348.408 96.355 348.075 97.7031 348.014 99.077C347.963 100.049 348.052 101.022 348.277 101.969C348.811 104.183 350.048 106.164 351.803 107.61C353.558 109.057 355.734 109.891 358.003 109.986Z" fill="#6C63FF"/>
<path opacity="0.1" d="M361.133 78.9247C363.466 79.1843 365.733 79.9211 368.074 80.0719C370.415 80.2226 373.002 79.6448 374.473 77.7943C375.157 76.7159 375.78 75.5975 376.337 74.445C376.979 73.4285 377.856 72.5888 378.891 72C379.547 73.3067 379.921 74.741 379.989 76.207C380.057 77.673 379.817 79.1368 379.285 80.5006C378.753 81.8643 377.941 83.0966 376.905 84.1149C375.868 85.1333 374.63 85.9142 373.273 86.4054C371.917 86.8967 370.473 87.0869 369.038 86.9635C367.604 86.84 366.212 86.4057 364.955 85.6896C363.699 84.9734 362.606 83.992 361.752 82.8109C360.897 81.6298 360.3 80.2764 360 78.841C360.37 78.8494 360.747 78.8828 361.133 78.9247Z" fill="black"/>
<path opacity="0.1" d="M357.862 109.989C359.696 110.072 361.52 109.686 363.158 108.868C364.796 108.049 366.192 106.827 367.211 105.318C368.229 103.81 368.836 102.067 368.971 100.259C369.106 98.4516 368.766 96.6398 367.984 95C367.137 95.5625 366.41 96.2814 365.84 97.1169C365.204 98.3135 364.5 99.4734 363.731 100.591C362.08 102.512 359.245 103.152 356.678 103.024C354.111 102.896 351.63 102.17 349.072 101.957C348.717 101.957 348.354 101.905 348 101.897C348.528 104.122 349.777 106.116 351.557 107.576C353.337 109.037 355.55 109.884 357.862 109.989Z" fill="black"/>
<path opacity="0.1" d="M383.289 125.988C385.035 126.07 386.773 125.715 388.338 124.958C389.903 124.201 391.241 123.066 392.226 121.663C393.21 120.259 393.807 118.634 393.961 116.942C394.114 115.251 393.818 113.549 393.101 112C392.259 112.537 391.527 113.222 390.941 114.018C390.271 115.177 389.53 116.295 388.723 117.368C386.994 119.232 384.095 119.894 381.478 119.789C378.86 119.684 376.493 119.136 374 118.982C374.617 120.937 375.841 122.659 377.503 123.913C379.166 125.167 381.186 125.892 383.289 125.988Z" fill="black"/>
<path opacity="0.1" d="M378 146.413C379.244 148.756 381.356 150.547 383.906 151.419C386.455 152.291 389.249 152.178 391.716 151.104C394.183 150.03 396.138 148.075 397.18 145.639C398.222 143.204 398.273 140.471 397.322 138C396.446 138.555 395.662 139.239 394.999 140.027C393.992 141.222 393.277 142.551 392.158 143.704C389.989 145.782 386.495 146.64 383.379 146.716C381.582 146.716 379.786 146.615 378 146.413Z" fill="black"/>
<path d="M657.5 168C704.168 168 742 130.392 742 84C742 37.6081 704.168 0 657.5 0C610.832 0 573 37.6081 573 84C573 130.392 610.832 168 657.5 168Z" fill="#3F3D56"/>
<path d="M693.77 106.289C690.829 103.348 683.755 98.9118 680.248 97.2554C676.199 95.3118 674.712 95.3456 671.847 97.416C669.464 99.1062 667.917 100.737 665.179 100.137C662.44 99.5372 657.015 95.447 651.766 90.216C646.518 84.9849 642.444 79.5933 641.861 76.813C641.278 74.0327 642.884 72.52 644.591 70.1369C646.653 67.272 646.712 65.7847 644.752 61.7368C643.061 58.2297 638.675 51.1733 635.708 48.2155C632.742 45.2577 632.1 45.9084 630.477 46.5253C628.807 47.2253 627.203 48.0738 625.685 49.0606C622.744 51.0296 621.096 52.6691 619.938 55.1367C618.78 57.6043 617.47 62.1847 624.206 74.1763C629.175 83.35 635.468 91.7416 642.884 99.0808C650.249 106.512 658.67 112.817 667.875 117.791C679.859 124.552 684.448 123.208 686.916 122.059C689.384 120.909 691.023 119.278 692.984 116.312C693.973 114.795 694.821 113.191 695.52 111.52C696.077 109.898 696.737 109.239 693.77 106.289Z" fill="#6C63FF"/>
<path opacity="0.1" d="M657.542 1.04996e-05C640.826 -0.00829602 624.483 4.91223 610.581 14.1391C596.678 23.3659 585.841 36.4845 579.44 51.8352C573.039 67.1859 571.363 84.0789 574.622 100.377C577.881 116.676 585.929 131.647 597.75 143.397C609.57 155.147 624.63 163.148 641.025 166.388C657.421 169.628 674.414 167.961 689.856 161.598C705.298 155.235 718.495 144.462 727.777 130.642C737.059 116.822 742.008 100.575 742 83.958C741.989 61.6944 733.087 40.3458 717.251 24.603C701.414 8.86028 679.938 0.0111395 657.542 1.04996e-05ZM657.542 156.761C643.057 156.761 628.898 152.491 616.854 144.491C604.811 136.492 595.424 125.121 589.881 111.818C584.338 98.5154 582.887 83.8772 585.713 69.7549C588.539 55.6325 595.514 42.6603 605.756 32.4787C615.999 22.297 629.048 15.3632 643.255 12.5541C657.461 9.74498 672.186 11.1867 685.568 16.697C698.951 22.2073 710.389 31.5386 718.436 43.5109C726.483 55.4833 730.778 69.559 730.778 83.958C730.778 93.5186 728.884 102.986 725.204 111.818C721.523 120.651 716.129 128.677 709.328 135.437C702.527 142.198 694.454 147.56 685.568 151.219C676.683 154.878 667.16 156.761 657.542 156.761Z" fill="black"/>
<path d="M463.5 296C510.168 296 548 258.392 548 212C548 165.608 510.168 128 463.5 128C416.832 128 379 165.608 379 212C379 258.392 416.832 296 463.5 296Z" fill="#3F3D56"/>
<path d="M511.194 186.181L486.091 212.143C486.047 212.186 486.012 212.237 485.988 212.295C485.964 212.352 485.951 212.413 485.951 212.475C485.951 212.538 485.964 212.599 485.988 212.656C486.012 212.713 486.047 212.765 486.091 212.808L503.704 231.847C504.126 232.278 504.412 232.827 504.528 233.423C504.644 234.02 504.584 234.638 504.355 235.2C504.127 235.762 503.74 236.243 503.244 236.582C502.748 236.921 502.164 237.104 501.566 237.107C500.761 237.106 499.989 236.781 499.419 236.204L481.897 217.233C481.808 217.143 481.687 217.093 481.562 217.093C481.436 217.093 481.316 217.143 481.226 217.233L476.957 221.615C475.209 223.432 473.122 224.876 470.817 225.862C468.513 226.847 466.038 227.354 463.538 227.353C460.99 227.341 458.471 226.813 456.126 225.8C453.782 224.787 451.659 223.31 449.883 221.453L445.782 217.19C445.692 217.101 445.572 217.051 445.446 217.051C445.32 217.051 445.2 217.101 445.111 217.19L427.631 236.118C427.35 236.405 427.016 236.632 426.648 236.787C426.281 236.942 425.886 237.022 425.488 237.022C425.09 237.022 424.696 236.942 424.328 236.787C423.961 236.632 423.627 236.405 423.345 236.118C423.063 235.833 422.838 235.494 422.685 235.12C422.532 234.746 422.453 234.345 422.453 233.94C422.453 233.535 422.532 233.134 422.685 232.76C422.838 232.386 423.063 232.047 423.345 231.761L440.892 212.765C440.97 212.673 441.013 212.555 441.013 212.433C441.013 212.311 440.97 212.193 440.892 212.1L415.788 186.138C415.724 186.072 415.642 186.027 415.552 186.009C415.462 185.991 415.369 186 415.285 186.036C415.2 186.071 415.128 186.132 415.077 186.209C415.026 186.287 415 186.378 415 186.471V238.42C415.007 240.429 415.794 242.353 417.191 243.773C418.588 245.193 420.481 245.993 422.456 246H504.543C506.519 245.993 508.411 245.193 509.808 243.773C511.205 242.353 511.993 240.429 512 238.42V186.513C512.004 186.417 511.978 186.321 511.927 186.24C511.875 186.158 511.801 186.095 511.712 186.059C511.624 186.022 511.527 186.014 511.434 186.036C511.342 186.058 511.258 186.109 511.194 186.181Z" fill="#6C63FF"/>
<path d="M463.966 220.999C465.68 221.016 467.379 220.688 468.963 220.035C470.547 219.381 471.984 218.416 473.188 217.196L510 179.691C508.693 178.607 507.052 178.01 505.355 178H422.645C420.947 178.006 419.305 178.603 418 179.691L454.82 217.196C456.014 218.409 457.438 219.371 459.009 220.024C460.58 220.677 462.265 221.009 463.966 220.999Z" fill="#6C63FF"/>
<path opacity="0.1" d="M462.542 128C445.826 127.992 429.483 132.912 415.581 142.139C401.678 151.366 390.841 164.484 384.44 179.835C378.039 195.186 376.363 212.079 379.622 228.377C382.881 244.676 390.929 259.647 402.749 271.397C414.57 283.147 429.63 291.148 446.025 294.388C462.421 297.628 479.414 295.961 494.856 289.598C510.298 283.235 523.495 272.462 532.777 258.642C542.059 244.822 547.008 228.575 547 211.958C546.989 189.694 538.087 168.346 522.251 152.603C506.414 136.86 484.938 128.011 462.542 128ZM462.542 284.761C448.058 284.761 433.898 280.491 421.854 272.491C409.811 264.492 400.424 253.121 394.881 239.818C389.338 226.515 387.888 211.877 390.713 197.755C393.539 183.633 400.514 170.66 410.756 160.479C420.999 150.297 434.048 143.363 448.255 140.554C462.461 137.745 477.186 139.187 490.569 144.697C503.951 150.207 515.389 159.539 523.436 171.511C531.483 183.483 535.778 197.559 535.778 211.958C535.778 231.267 528.062 249.784 514.328 263.437C500.594 277.09 481.966 284.761 462.542 284.761Z" fill="black"/>
<path d="M263.5 233C310.168 233 348 195.392 348 149C348 102.608 310.168 65 263.5 65C216.832 65 179 102.608 179 149C179 195.392 216.832 233 263.5 233Z" fill="#3F3D56"/>
<path d="M263.492 109L230 185.889L233.126 189L263.5 175.669L293.874 189L297 185.889L263.492 109Z" fill="#6C63FF"/>
<path opacity="0.1" d="M263.542 65C246.828 64.9917 230.487 69.9112 216.585 79.1361C202.684 88.3611 191.846 101.477 185.444 116.825C179.042 132.174 177.363 149.065 180.619 165.362C183.874 181.659 191.919 196.63 203.735 208.382C215.55 220.134 230.607 228.138 246.999 231.383C263.392 234.627 280.384 232.966 295.827 226.61C311.27 220.253 324.469 209.487 333.756 195.672C343.043 181.858 348 165.615 348 149C348 126.729 339.103 105.37 323.265 89.6179C307.428 73.866 285.946 65.0111 263.542 65ZM263.542 221.761C249.056 221.761 234.895 217.49 222.85 209.488C210.806 201.487 201.419 190.114 195.877 176.809C190.335 163.503 188.887 148.863 191.716 134.739C194.546 120.616 201.525 107.644 211.771 97.4638C222.018 87.2838 235.071 80.3533 249.281 77.549C263.49 74.7446 278.216 76.1923 291.598 81.7091C304.979 87.2258 316.414 96.5636 324.456 108.542C332.499 120.519 336.787 134.599 336.778 149C336.776 168.307 329.059 186.823 315.325 200.474C301.591 214.125 282.964 221.794 263.542 221.794V221.761Z" fill="black"/>
<path d="M665.55 255.588C664.779 253.723 663.989 251.863 663.18 250.009C662.512 248.2 661.532 246.521 660.283 245.046C659.808 244.515 659.23 244.085 658.584 243.782C657.872 243.522 657.124 243.374 656.367 243.344C655.212 243.199 654.045 243.168 652.884 243.251C652.433 243.116 651.924 242.939 651.423 242.737C653.936 242.082 656.171 240.644 657.798 238.634C659.426 236.623 660.359 234.148 660.461 231.572C660.461 231.404 660.461 231.227 660.461 231.058C660.468 229.481 660.161 227.919 659.559 226.459C658.957 225 658.071 223.672 656.952 222.553C655.832 221.433 654.502 220.543 653.035 219.933C651.569 219.324 649.997 219.007 648.407 219C646.169 218.996 643.975 219.618 642.078 220.795C639.573 220.231 636.948 220.527 634.634 221.633C632.32 222.74 630.452 224.592 629.336 226.887C627.928 228.222 626.817 229.833 626.071 231.618C625.325 233.402 624.961 235.32 625.003 237.252C625.003 237.429 625.003 237.614 625.003 237.783C625.224 244.33 629.489 249.58 634.874 250.11C634.299 250.367 633.77 250.717 633.311 251.147C631.663 252.723 631.391 255.225 631.213 257.5L631.086 259.186L628.231 260.197C628.14 260.229 628.06 260.285 627.999 260.359C627.939 260.434 627.9 260.523 627.886 260.618C627.873 260.712 627.887 260.809 627.925 260.897C627.963 260.984 628.025 261.06 628.104 261.115L630.831 263.045C630.831 263.205 630.831 263.365 630.831 263.525C630.831 263.685 630.831 263.888 630.882 264.073C630.416 264.48 630.055 264.991 629.828 265.564C629.563 266.449 629.479 267.377 629.582 268.295L629.684 270.646C629.671 272.415 629.914 274.177 630.406 275.878C630.763 276.923 632.309 279.443 633.422 279.46C632.394 284.094 632.122 293.869 632.122 293.869C631.995 293.995 632.351 294.113 632.972 294.214C633.583 298.866 635.579 311.91 639.122 317.648C639.679 319.519 640.125 321.421 640.456 323.344C640.456 323.344 641.466 335.74 642.8 339.422C643.938 342.557 644.839 350.292 645.085 352.534C644.854 352.593 644.644 352.713 644.478 352.883C644.312 353.052 644.196 353.264 644.142 353.494C643.471 355.5 639.122 358.55 639.122 358.55C637.789 359.211 636.53 360.01 635.367 360.935C633.999 362.157 634.05 363.26 640.124 362.57C651.847 361.23 653.852 357.514 653.852 357.514C653.852 357.514 653.665 356.89 653.385 356.081C653.027 354.822 652.51 353.614 651.847 352.483C651.677 352.323 651.507 352.593 651.304 353.014C650.419 347.637 650.151 342.179 650.505 336.743C650.505 336.743 650.836 331.046 649.163 327.027C648.79 324.922 648.79 322.769 649.163 320.665C649.834 317.985 646.487 304.916 646.487 304.916L644.567 295.293C644.829 295.621 645.012 296.005 645.102 296.414L645.153 296.607L645.204 296.885C645.223 296.984 645.271 297.074 645.34 297.147C646.648 302.54 650.233 317.48 650.233 319.671C650.233 322.35 653.58 329.049 653.58 329.049C653.58 329.049 654.914 340.105 657.259 344.453C659.042 347.764 659.085 352.618 659 354.758C659 354.758 658.601 357.514 657.93 358.179C657.396 358.837 656.969 359.574 656.664 360.362L656.587 360.522C656.587 360.522 655.585 362.536 656.256 362.873C658.809 363.866 661.571 364.211 664.292 363.876C664.292 363.876 665.635 362.19 665.635 361.533C665.607 361.132 665.556 360.732 665.482 360.337C665.235 358.752 664.777 356.258 664.768 356.233C665.048 355.154 663.919 352.154 663.919 352.154L663.579 342.776C664.201 336.426 663.4 330.018 661.234 324.01C661.234 324.01 659.535 317.985 659.901 316.308C660.266 314.632 659.229 296.877 659.229 296.877L659.127 296.624C659.037 295.368 659.071 294.107 659.229 292.858C659.561 288.838 658.227 280.462 657.887 280.134C657.61 279.234 657.45 278.302 657.411 277.361C657.488 276.662 657.717 274.614 658.032 272.07C661.334 271.958 664.629 271.676 667.903 271.227C668.219 271.227 668.523 271.106 668.752 270.89C668.886 270.688 668.955 270.449 668.948 270.207C669.338 265.16 667.478 260.256 665.55 255.588ZM658.813 266.213C659.161 263.812 659.535 261.486 659.909 259.759L659.96 259.91C660.603 261.647 661.142 263.419 661.574 265.219C660.682 265.624 659.759 265.956 658.813 266.213Z" fill="url(#paint0_linear)"/>
<path d="M633 292.665C633 292.665 634.93 310.758 639.109 317.789C639.646 319.658 640.075 321.559 640.393 323.482C640.393 323.482 641.358 335.873 642.642 339.555C643.926 343.236 644.891 353.293 644.891 353.293C644.891 353.293 649.389 358.645 651 354.298C649.988 348.556 649.664 342.705 650.035 336.879C650.035 336.879 650.354 331.186 648.751 327.163C648.392 325.06 648.392 322.908 648.751 320.806C649.389 318.121 646.175 305.065 646.175 305.065L643.607 292L633 292.665Z" fill="#BE6F72"/>
<path d="M653 357.418C653 357.418 651.011 361.345 639.425 362.772C633.408 363.509 633.366 362.336 634.723 361.027C635.873 360.041 637.115 359.187 638.43 358.481C638.43 358.481 642.736 355.272 643.394 353.127C644.051 350.981 646.377 352.772 646.377 352.772C649.688 358.127 650.354 351.336 651.011 352.054C651.671 353.253 652.184 354.54 652.537 355.881C652.815 356.745 653 357.418 653 357.418Z" fill="#FF6F61"/>
<path opacity="0.1" d="M653 357.511C653 357.511 651.011 361.373 639.425 362.776C633.408 363.5 633.366 362.347 634.723 361.06C635.667 361.694 637.571 361.954 641.405 360.318C646.924 357.922 650.927 356.536 652.537 356C652.815 356.849 653 357.511 653 357.511Z" fill="black"/>
<path opacity="0.1" d="M649.997 336.88C649.997 336.88 650.328 331.187 648.662 327.164C648.289 325.062 648.289 322.909 648.662 320.807C649.325 318.122 645.983 305.065 645.983 305.065L643.313 292L641 292.136L643.645 305.065C643.645 305.065 646.986 318.122 646.323 320.807C645.95 322.909 645.95 325.062 646.323 327.164C648.024 331.187 647.658 336.88 647.658 336.88C647.272 342.706 647.61 348.558 648.662 354.301C648.48 354.846 648.143 355.326 647.692 355.681C648.934 356.244 650.243 356.218 651 354.301C649.948 348.558 649.611 342.706 649.997 336.88Z" fill="black"/>
<path d="M648.119 220C645.915 219.995 643.755 220.616 641.884 221.79C639.413 221.214 636.822 221.5 634.533 222.601C632.244 223.702 630.392 225.554 629.28 227.854C627.894 229.177 626.797 230.778 626.061 232.554C625.324 234.33 624.964 236.242 625.003 238.167C625.003 245.258 629.734 251 635.565 251C639.766 251 643.447 247.981 645.136 243.613C646.106 243.872 647.106 244.003 648.11 244.003C651.264 244.003 654.288 242.738 656.518 240.488C658.747 238.237 660 235.184 660 232.001C660 228.818 658.747 225.766 656.518 223.515C654.288 221.264 651.264 220 648.11 220H648.119Z" fill="#3F3D56"/>
<path d="M657.448 295L658.454 297.657C658.454 297.657 659.46 315.28 659.119 316.947C658.778 318.614 660.465 324.561 660.465 324.561C662.631 330.516 663.432 336.874 662.809 343.175L663.141 352.481C663.141 352.481 664.48 356.136 663.815 356.805C663.15 357.473 658.096 356.212 658.096 356.212C658.096 356.212 658.769 349.232 656.392 344.909C654.014 340.586 652.71 329.612 652.71 329.612C652.71 329.612 649.361 322.962 649.361 320.306C649.361 317.649 644 296.032 644 296.032L657.448 295Z" fill="#BE6F72"/>
<path d="M632.026 294.252C632.026 294.252 632.363 282.669 633.714 279.133C634.402 277.48 634.898 275.759 635.192 274C635.192 274 655.282 277.52 656.946 276.235C656.946 276.235 657.275 280.737 657.613 281.056C657.951 281.375 659.302 289.422 658.939 293.286C658.575 297.15 658.939 297.141 658.939 297.141C658.939 297.141 645.326 299.073 644.996 297.141C644.667 295.21 643.671 295.218 643.671 295.218C643.671 295.218 631.367 294.858 632.026 294.252Z" fill="#3F3D56"/>
<g opacity="0.1">
<path opacity="0.1" d="M642.88 294.407C642.88 294.407 634.5 294.18 631.97 293.725C631.97 294.155 631.97 294.407 631.97 294.407C631.313 295.065 643.571 295.402 643.571 295.402C643.738 295.418 643.896 295.482 644.026 295.588C643.579 294.407 642.88 294.407 642.88 294.407Z" fill="black"/>
<path opacity="0.1" d="M657.465 280.817C657.127 280.488 656.799 275.852 656.799 275.852C656.627 275.958 656.434 276.027 656.234 276.054C656.352 277.453 656.579 279.603 656.799 279.822C657.018 280.042 658.485 288.439 658.122 292.418C657.76 296.397 658.122 296.389 658.122 296.389C658.122 296.389 647.373 297.965 644.768 296.911C644.768 297.055 644.844 297.215 644.869 297.383C645.198 299.373 658.788 297.383 658.788 297.383C658.788 297.383 658.451 297.383 658.788 293.413C659.125 289.442 657.793 281.154 657.465 280.817Z" fill="black"/>
</g>
<path d="M646.441 241.481C646.738 242.132 647.191 242.705 647.76 243.152C648.126 243.418 648.551 243.598 649 243.677C648.226 244.116 647.382 244.444 646.608 244.883C645.39 245.684 644.216 246.547 643.09 247.467C641.938 248.374 640.528 248.909 639.053 249C639.57 248.317 639.895 247.512 639.994 246.667C640.093 245.821 639.962 244.965 639.616 244.185C639.299 243.674 639.09 243.106 639 242.514C639 241.541 639.88 240.791 640.697 240.275C641.357 239.835 642.034 239.413 642.72 238.991C643.257 238.664 644.066 237.975 644.743 238.001C645.42 238.027 645.5 238.612 645.623 239.215C645.797 240.001 646.072 240.762 646.441 241.481Z" fill="#BE6F72"/>
<path opacity="0.1" d="M646.441 241.481C646.738 242.132 647.191 242.705 647.76 243.152C648.126 243.418 648.551 243.598 649 243.677C648.226 244.116 647.382 244.444 646.608 244.883C645.39 245.684 644.216 246.547 643.09 247.467C641.938 248.374 640.528 248.909 639.053 249C639.57 248.317 639.895 247.512 639.994 246.667C640.093 245.821 639.962 244.965 639.616 244.185C639.299 243.674 639.09 243.106 639 242.514C639 241.541 639.88 240.791 640.697 240.275C641.357 239.835 642.034 239.413 642.72 238.991C643.257 238.664 644.066 237.975 644.743 238.001C645.42 238.027 645.5 238.612 645.623 239.215C645.797 240.001 646.072 240.762 646.441 241.481Z" fill="black"/>
<path d="M654.5 261C658.642 261 662 257.642 662 253.5C662 249.358 658.642 246 654.5 246C650.358 246 647 249.358 647 253.5C647 257.642 650.358 261 654.5 261Z" fill="#BE6F72"/>
<path d="M665 361.399C665 362.109 663.746 363.87 663.746 363.87C661.198 364.222 658.611 363.858 656.217 362.81C655.587 362.459 656.529 360.339 656.529 360.339L656.601 360.168C656.888 359.336 657.29 358.56 657.79 357.868C658.413 357.167 658.788 354.274 658.788 354.274C660.736 350.681 664.194 355.829 664.194 355.829C664.194 355.829 664.633 358.524 664.864 360.159C664.944 360.743 665 361.219 665 361.399Z" fill="#FF6F61"/>
<path opacity="0.1" d="M665 361.304C665 362.04 663.746 363.865 663.746 363.865C661.198 364.23 658.611 363.852 656.217 362.766C655.587 362.403 656.529 360.205 656.529 360.205L656.601 360.028C658.739 361.186 661.079 361.748 663.435 361.667L664.864 360C664.944 360.624 665 361.118 665 361.304Z" fill="black"/>
<path d="M639.5 245C643.642 245 647 241.642 647 237.5C647 233.358 643.642 230 639.5 230C635.358 230 632 233.358 632 237.5C632 241.642 635.358 245 639.5 245Z" fill="#BE6F72"/>
<path d="M633.176 252.01C631.702 253.583 631.459 256.074 631.307 258.344L631.079 261.669C630.996 262.564 630.979 263.465 631.026 264.364C631.026 264.916 631.147 265.478 631.193 266.064C631.238 266.651 631.254 267.39 631.261 268.062V272.976C631.189 273.99 631.357 275.008 631.748 275.926C631.956 276.371 632.306 276.711 632.728 276.881C633.15 277.051 633.614 277.038 634.028 276.845C634.5 276.437 634.833 275.861 634.97 275.212C635.711 273.219 636.222 271.127 636.49 268.989C636.551 268.249 636.558 267.51 636.619 266.77C636.68 266.03 636.794 265.257 636.893 264.508C637.318 261.38 637.508 258.217 637.698 255.063C637.752 254.127 638.504 250.446 637.41 250.038C636.878 249.842 635.776 250.455 635.266 250.659C634.495 250.947 633.785 251.407 633.176 252.01Z" fill="#BE6F72"/>
<path opacity="0.1" d="M633.176 252.01C631.702 253.583 631.459 256.074 631.307 258.344L631.079 261.669C630.996 262.564 630.979 263.465 631.026 264.364C631.026 264.916 631.147 265.478 631.193 266.064C631.238 266.651 631.254 267.39 631.261 268.062V272.976C631.189 273.99 631.357 275.008 631.748 275.926C631.956 276.371 632.306 276.711 632.728 276.881C633.15 277.051 633.614 277.038 634.028 276.845C634.5 276.437 634.833 275.861 634.97 275.212C635.711 273.219 636.222 271.127 636.49 268.989C636.551 268.249 636.558 267.51 636.619 266.77C636.68 266.03 636.794 265.257 636.893 264.508C637.318 261.38 637.508 258.217 637.698 255.063C637.752 254.127 638.504 250.446 637.41 250.038C636.878 249.842 635.776 250.455 635.266 250.659C634.495 250.947 633.785 251.407 633.176 252.01Z" fill="black"/>
<path d="M648.273 242C648.273 242 642.584 246.269 639.238 247.255C639.238 247.255 637.253 249.477 636.913 250.012C636.572 250.547 635.891 256.445 635.209 257.765C634.528 259.085 632.867 262.034 635.209 264.984C635.209 264.984 635.874 267.941 635.542 268.927C635.209 269.913 633.992 273.522 635.099 273.689C636.206 273.856 639.561 276.145 642.567 275.494C645.574 274.842 656.798 278 656.798 278C656.798 278 658.654 261.082 660 258.091L656.985 257.105C656.985 257.105 648.622 252.184 653.638 244.632C653.63 244.632 648.929 243.646 648.273 242Z" fill="#FF6F61"/>
<path d="M628.197 262.119L634.553 266.903C634.634 266.966 634.731 267 634.831 267C634.931 267 635.028 266.966 635.109 266.903L636.831 265.53C636.884 265.482 636.927 265.422 636.956 265.354C636.985 265.287 637 265.214 637 265.139C637 265.065 636.985 264.992 636.956 264.924C636.927 264.857 636.884 264.797 636.831 264.748L631.939 260.13C631.875 260.069 631.797 260.027 631.713 260.009C631.629 259.992 631.542 259.999 631.461 260.03L628.322 261.229C628.239 261.259 628.166 261.312 628.11 261.384C628.054 261.455 628.018 261.541 628.005 261.633C627.992 261.725 628.003 261.819 628.037 261.904C628.071 261.99 628.126 262.064 628.197 262.119Z" fill="#3F3D56"/>
<path d="M629.849 276.581C629.371 274.961 629.133 273.283 629.141 271.597L629.042 269.345C628.941 268.471 629.023 267.586 629.283 266.743C629.54 266.165 629.925 265.651 630.41 265.236C630.895 264.821 631.469 264.517 632.089 264.345C633.332 264.008 634.631 263.917 635.91 264.076C636.083 264.077 636.253 264.122 636.402 264.207C636.532 264.325 636.625 264.477 636.668 264.646C636.857 265.006 636.968 265.401 636.994 265.805C637.02 266.209 636.96 266.615 636.818 266.995C636.625 267.305 636.363 267.569 636.052 267.768C635.145 268.402 634.087 268.825 633.23 269.516C633.055 269.631 632.922 269.795 632.847 269.987C632.805 270.156 632.805 270.331 632.847 270.499C632.953 270.947 633.098 271.385 633.28 271.808C633.353 272.021 633.482 272.212 633.654 272.361C633.812 272.491 634.021 272.54 634.187 272.662C634.545 272.947 635.294 273.321 635.253 273.768C635.128 275.394 634.129 277.215 633.737 278.825C632.988 281.971 630.332 277.955 629.849 276.581Z" fill="#BE6F72"/>
<g opacity="0.1">
<path opacity="0.1" d="M640.898 275.852H640.713C641.428 275.991 642.164 275.991 642.88 275.852H643.09C642.364 275.745 641.625 275.745 640.898 275.852Z" fill="black"/>
<path opacity="0.1" d="M658.291 257.793C657.102 260.465 655.349 274.941 655.037 277.816C656.2 278.119 656.967 278.338 656.967 278.338C656.967 278.338 658.788 261.309 660.12 258.29L658.291 257.793Z" fill="black"/>
</g>
<path d="M654.506 253.097C654.567 253.43 654.691 253.747 654.872 254.03C655.053 254.312 655.288 254.555 655.562 254.742C656.244 255.332 656.871 255.988 657.435 256.7C658.243 257.872 658.869 259.168 659.291 260.539C659.905 262.256 660.421 264.009 660.837 265.788C656.748 267.745 652.102 267.652 647.75 268.943C645.877 269.453 644.177 270.49 642.842 271.939C642.177 272.667 641.671 273.535 641.359 274.483C641.047 275.43 640.937 276.436 641.035 277.432C641.041 277.548 641.075 277.661 641.133 277.761C641.204 277.844 641.293 277.908 641.392 277.949C641.491 277.99 641.599 278.007 641.705 277.997C642.793 277.996 643.848 277.622 644.707 276.934C645.556 276.25 646.327 275.469 647.006 274.605C647.427 274.039 647.994 273.607 648.642 273.356C651.006 272.614 653.549 272.656 656.003 272.614C659.673 272.54 663.336 272.241 666.972 271.719C667.105 271.736 667.239 271.721 667.366 271.676C667.492 271.631 667.606 271.556 667.701 271.459C667.795 271.361 667.867 271.243 667.911 271.113C667.955 270.983 667.969 270.844 667.954 270.707C668.313 265.728 666.522 260.868 664.682 256.252C663.946 254.402 663.188 252.559 662.408 250.725C661.766 248.934 660.824 247.272 659.627 245.815C659.172 245.285 658.615 244.859 657.991 244.566C657.287 244.304 656.547 244.161 655.799 244.144C654.608 243.978 653.403 243.956 652.208 244.076C652.017 244.698 651.902 245.341 651.864 245.992C651.93 248.27 652.895 250.405 653.844 252.464C653.967 252.776 654.318 252.793 654.506 253.097Z" fill="#BE6F72"/>
<path opacity="0.1" d="M640.873 258C640.283 258.967 639.981 260.071 640.001 261.191C640.003 261.633 640.077 262.073 640.219 262.494C640.457 263.085 640.83 263.616 641.312 264.05C641.793 264.484 642.37 264.809 643 265" stroke="black" stroke-miterlimit="10"/>
<path d="M645.09 229.757C644.679 229.755 644.271 229.823 643.881 229.958C642.789 228.208 640.221 227 637.211 227C633.226 227 630 229.161 630 231.822C630 234.482 633.226 236.635 637.211 236.635C638.703 236.652 640.181 236.323 641.538 235.672C641.843 236.335 642.312 236.9 642.896 237.308C643.48 237.717 644.157 237.953 644.858 237.994C645.558 238.034 646.256 237.877 646.879 237.538C647.502 237.2 648.027 236.692 648.4 236.068C648.773 235.445 648.979 234.727 648.999 233.991C649.018 233.255 648.849 232.527 648.509 231.883C648.17 231.239 647.672 230.702 647.067 230.328C646.463 229.954 645.774 229.757 645.073 229.757H645.09Z" fill="#3F3D56"/>
<path opacity="0.1" d="M645.486 236.932C644.744 236.932 644.018 236.704 643.39 236.275C642.762 235.845 642.259 235.231 641.939 234.503C640.577 235.18 639.094 235.522 637.597 235.504C633.606 235.504 630.368 233.266 630.368 230.5C630.355 230.334 630.355 230.166 630.368 230C630.13 230.484 630.004 231.025 630 231.574C630 234.303 633.238 236.577 637.237 236.577C638.734 236.595 640.217 236.253 641.579 235.577C641.939 236.389 642.526 237.057 643.256 237.485C643.986 237.914 644.821 238.081 645.644 237.963C646.466 237.845 647.233 237.448 647.836 236.829C648.438 236.209 648.846 235.398 649 234.512C648.682 235.233 648.183 235.842 647.562 236.27C646.941 236.698 646.222 236.927 645.486 236.932Z" fill="black"/>
<path opacity="0.1" d="M629.321 229.735C630.433 227.455 632.284 225.62 634.573 224.528C636.861 223.437 639.452 223.153 641.922 223.724C643.65 222.656 645.623 222.049 647.653 221.962C649.682 221.875 651.7 222.31 653.514 223.226C655.327 224.142 656.876 225.508 658.012 227.194C659.147 228.879 659.832 230.828 660 232.854C660 232.526 660 232.199 660 231.862C659.995 229.748 659.427 227.673 658.355 225.851C657.282 224.03 655.743 222.527 653.896 221.499C652.05 220.471 649.963 219.955 647.851 220.003C645.739 220.051 643.677 220.662 641.88 221.774C639.41 221.203 636.819 221.486 634.531 222.578C632.242 223.67 630.391 225.505 629.279 227.785C627.893 229.096 626.797 230.683 626.061 232.444C625.324 234.204 624.964 236.1 625.003 238.008C625.003 238.344 625.003 238.672 625.003 239C625.168 235.463 626.719 232.134 629.321 229.735Z" fill="black"/>
<path d="M705.478 233C707.683 228.917 705.183 223.904 702.302 220.261C699.422 216.618 695.925 212.831 696.001 208.182C696.103 201.512 703.181 197.573 708.84 194.031C713.035 191.4 716.903 188.279 720.361 184.733C721.814 183.374 723.015 181.769 723.908 179.991C725.074 177.379 725.04 174.412 724.973 171.538C724.725 162.014 724.255 152.501 723.562 143" stroke="#3F3D56" stroke-width="4" stroke-miterlimit="10"/>
<path d="M733.988 142.009C733.907 140.251 733.385 138.543 732.47 137.04C731.554 135.538 730.276 134.29 728.751 133.411L726.397 138.06L726.465 132.43C725.346 132.096 724.178 131.955 723.011 132.013C720.936 132.109 718.937 132.819 717.266 134.052C715.595 135.285 714.327 136.986 713.622 138.94C712.918 140.893 712.809 143.012 713.309 145.027C713.808 147.043 714.895 148.865 716.43 150.263C717.966 151.662 719.882 152.573 721.935 152.883C723.989 153.192 726.088 152.886 727.968 152.002C729.847 151.119 731.422 149.698 732.494 147.919C733.566 146.14 734.086 144.083 733.988 142.009Z" fill="#6C63FF"/>
<path d="M715.84 212.572C714.738 214.613 712.934 216.23 710.729 217.154C708.524 218.077 706.052 218.251 703.729 217.645C701.405 217.04 699.371 215.692 697.967 213.828C696.564 211.963 695.876 209.696 696.019 207.406C696.162 205.116 697.127 202.943 698.753 201.25C700.379 199.558 702.566 198.449 704.949 198.11C707.331 197.771 709.764 198.222 711.838 199.388C713.913 200.554 715.503 202.364 716.343 204.514L709.783 209.599L717 207.975C717.007 209.574 716.609 211.151 715.84 212.572Z" fill="#6C63FF"/>
<path d="M710.011 191.988C707.432 192.107 704.897 191.316 702.891 189.768C700.885 188.221 699.548 186.024 699.135 183.597C698.722 181.171 699.263 178.684 700.653 176.613C702.044 174.542 704.187 173.031 706.674 172.368L706.623 176.487L709.004 172.01C711.788 171.889 714.508 172.825 716.568 174.612C718.627 176.399 719.858 178.891 719.988 181.54C720.054 182.852 719.847 184.164 719.379 185.4C718.912 186.635 718.193 187.771 717.264 188.742C716.335 189.714 715.214 190.501 713.965 191.059C712.716 191.618 711.364 191.936 709.985 191.997L710.011 191.988Z" fill="#6C63FF"/>
<path d="M735.474 175.986C733.928 176.069 732.386 175.772 730.969 175.118C729.552 174.465 728.299 173.472 727.309 172.22C726.318 170.968 725.619 169.49 725.265 167.903C724.91 166.317 724.912 164.665 725.269 163.079C725.625 161.493 726.328 160.016 727.32 158.766C728.312 157.515 729.567 156.525 730.985 155.874C732.403 155.223 733.946 154.929 735.491 155.015C737.036 155.1 738.541 155.564 739.886 156.368L738.121 161.486L741.748 157.818C742.715 158.743 743.498 159.859 744.054 161.103C744.61 162.347 744.927 163.695 744.987 165.068C745.035 166.04 744.951 167.014 744.736 167.96C744.228 170.176 743.05 172.157 741.379 173.605C739.708 175.053 737.635 175.889 735.474 175.986Z" fill="#6C63FF"/>
<path opacity="0.1" d="M732.81 144.925C730.361 145.193 727.972 145.929 725.514 146.08C723.056 146.231 720.339 145.653 718.795 143.794C718.074 142.717 717.42 141.599 716.837 140.445C716.165 139.431 715.247 138.592 714.164 138C713.476 139.307 713.083 140.741 713.012 142.207C712.941 143.673 713.193 145.137 713.751 146.501C714.31 147.864 715.162 149.097 716.25 150.115C717.339 151.133 718.639 151.914 720.063 152.405C721.487 152.897 723.003 153.087 724.51 152.963C726.016 152.84 727.478 152.406 728.797 151.69C730.116 150.973 731.263 149.992 732.16 148.811C733.058 147.63 733.685 146.276 734 144.841C733.603 144.858 733.207 144.883 732.81 144.925Z" fill="black"/>
<path opacity="0.1" d="M735.608 175.989C733.861 176.072 732.124 175.686 730.564 174.868C729.004 174.049 727.674 172.827 726.704 171.318C725.734 169.81 725.157 168.067 725.028 166.259C724.899 164.452 725.223 162.64 725.968 161C726.774 161.559 727.467 162.275 728.01 163.108C728.611 164.307 729.282 165.467 730.018 166.582C731.59 168.512 734.29 169.143 736.735 169.024C739.18 168.904 741.543 168.17 743.979 167.957C744.317 167.957 744.662 167.897 745 167.888C744.497 170.114 743.308 172.109 741.613 173.571C739.918 175.033 737.81 175.882 735.608 175.989Z" fill="black"/>
<path opacity="0.1" d="M710.25 191.988C708.416 192.071 706.588 191.717 704.944 190.96C703.299 190.203 701.893 189.067 700.859 187.663C699.826 186.259 699.199 184.633 699.04 182.941C698.881 181.249 699.195 179.548 699.952 178C700.831 178.541 701.599 179.224 702.219 180.016C703.091 181.104 703.571 182.362 704.547 183.361C706.361 185.232 709.405 185.885 712.152 185.829C714.898 185.772 717.384 185.167 720 184.982C719.353 186.936 718.069 188.657 716.324 189.911C714.579 191.165 712.458 191.89 710.25 191.988Z" fill="black"/>
<path opacity="0.1" d="M715 212.479C713.797 214.807 711.786 216.578 709.372 217.435C706.958 218.292 704.319 218.171 701.988 217.096C699.657 216.022 697.805 214.074 696.806 211.644C695.807 209.214 695.734 206.483 696.603 204C697.435 204.562 698.181 205.251 698.815 206.043C699.782 207.256 700.413 208.587 701.519 209.757C703.585 211.851 706.912 212.707 709.878 212.792C711.59 212.79 713.3 212.686 715 212.479Z" fill="black"/>
<path d="M839.478 361C841.683 356.917 839.183 351.904 836.302 348.261C833.422 344.618 829.925 340.831 830.001 336.182C830.103 329.512 837.181 325.573 842.84 322.031C847.035 319.4 850.903 316.279 854.361 312.733C855.814 311.374 857.015 309.769 857.908 307.991C859.074 305.379 859.04 302.412 858.973 299.538C858.731 290.014 858.26 280.501 857.562 271" stroke="#3F3D56" stroke-width="4" stroke-miterlimit="10"/>
<path d="M867.946 270.531C867.865 268.857 867.342 267.23 866.427 265.799C865.512 264.368 864.233 263.179 862.709 262.342L860.354 266.77L860.423 261.408C859.317 261.095 858.163 260.96 857.011 261.01C854.936 261.102 852.937 261.778 851.266 262.953C849.595 264.127 848.327 265.747 847.622 267.608C846.918 269.469 846.809 271.487 847.309 273.406C847.808 275.326 848.895 277.062 850.43 278.394C851.966 279.725 853.882 280.594 855.935 280.888C857.989 281.183 860.088 280.891 861.968 280.05C863.847 279.208 865.422 277.855 866.494 276.16C867.566 274.466 868.086 272.507 867.988 270.531H867.946Z" fill="#6C63FF"/>
<path d="M849.84 340.572C848.738 342.613 846.934 344.23 844.729 345.154C842.524 346.077 840.052 346.251 837.729 345.645C835.405 345.04 833.371 343.692 831.967 341.828C830.564 339.963 829.876 337.696 830.019 335.406C830.162 333.116 831.127 330.943 832.753 329.25C834.379 327.558 836.566 326.449 838.949 326.11C841.331 325.771 843.764 326.222 845.838 327.388C847.913 328.554 849.503 330.364 850.343 332.514L843.783 337.599L851 335.975C851.007 337.574 850.609 339.151 849.84 340.572Z" fill="#6C63FF"/>
<path d="M844.011 320.988C841.432 321.112 838.897 320.282 836.891 318.657C834.885 317.032 833.548 314.725 833.135 312.177C832.722 309.629 833.263 307.019 834.653 304.844C836.044 302.669 838.187 301.082 840.674 300.386L840.623 304.711L843.004 300.011C845.788 299.884 848.508 300.866 850.568 302.742C852.627 304.618 853.858 307.235 853.988 310.017C854.054 311.395 853.847 312.772 853.379 314.07C852.912 315.367 852.193 316.56 851.264 317.58C850.335 318.599 849.214 319.426 847.965 320.012C846.716 320.598 845.364 320.933 843.985 320.996L844.011 320.988Z" fill="#6C63FF"/>
<path d="M869.474 303.986C867.928 304.069 866.386 303.772 864.969 303.118C863.552 302.465 862.299 301.472 861.309 300.22C860.318 298.968 859.619 297.49 859.265 295.903C858.91 294.317 858.912 292.665 859.269 291.079C859.625 289.493 860.328 288.016 861.32 286.766C862.312 285.515 863.567 284.525 864.985 283.874C866.403 283.223 867.946 282.929 869.491 283.015C871.036 283.1 872.541 283.564 873.886 284.368L872.121 289.486L875.748 285.818C876.715 286.742 877.498 287.859 878.054 289.103C878.61 290.347 878.927 291.695 878.987 293.068C879.035 294.04 878.951 295.014 878.736 295.96C878.228 298.176 877.05 300.157 875.379 301.605C873.708 303.053 871.635 303.889 869.474 303.986Z" fill="#6C63FF"/>
<path opacity="0.1" d="M866.81 272.925C864.361 273.193 861.972 273.93 859.514 274.08C857.056 274.231 854.339 273.653 852.795 271.794C852.074 270.717 851.42 269.599 850.837 268.445C850.165 267.431 849.247 266.592 848.164 266C847.476 267.307 847.083 268.741 847.012 270.207C846.941 271.673 847.193 273.137 847.751 274.501C848.31 275.864 849.162 277.097 850.25 278.115C851.339 279.133 852.638 279.914 854.063 280.405C855.487 280.897 857.003 281.087 858.51 280.963C860.016 280.84 861.478 280.406 862.797 279.69C864.116 278.973 865.263 277.992 866.16 276.811C867.058 275.63 867.685 274.276 868 272.841C867.603 272.858 867.207 272.883 866.81 272.925Z" fill="black"/>
<path opacity="0.1" d="M869.607 303.989C867.861 304.072 866.124 303.686 864.563 302.868C863.003 302.049 861.674 300.827 860.704 299.318C859.734 297.81 859.157 296.067 859.028 294.259C858.899 292.452 859.223 290.64 859.968 289C860.774 289.559 861.467 290.275 862.01 291.108C862.611 292.307 863.282 293.467 864.018 294.582C865.59 296.512 868.29 297.143 870.735 297.024C873.18 296.904 875.543 296.17 877.979 295.957C878.317 295.957 878.662 295.897 879 295.888C878.497 298.114 877.308 300.11 875.613 301.571C873.918 303.033 871.81 303.882 869.607 303.989Z" fill="black"/>
<path opacity="0.1" d="M844.25 320.987C842.416 321.076 840.588 320.697 838.944 319.886C837.3 319.074 835.893 317.858 834.859 316.354C833.826 314.849 833.199 313.107 833.04 311.294C832.881 309.481 833.195 307.658 833.952 306C834.831 306.58 835.599 307.311 836.219 308.16C837.091 309.326 837.57 310.673 838.547 311.744C840.361 313.749 843.405 314.448 846.152 314.388C848.899 314.327 851.384 313.679 854 313.481C853.353 315.574 852.069 317.418 850.324 318.762C848.579 320.105 846.458 320.882 844.25 320.987Z" fill="black"/>
<path opacity="0.1" d="M849 340.479C847.797 342.807 845.786 344.578 843.372 345.435C840.958 346.292 838.32 346.171 835.988 345.096C833.657 344.022 831.805 342.074 830.806 339.644C829.807 337.214 829.734 334.483 830.603 332C831.435 332.562 832.181 333.251 832.815 334.043C833.782 335.256 834.454 336.587 835.519 337.757C837.585 339.851 840.912 340.707 843.878 340.792C845.59 340.79 847.3 340.686 849 340.479Z" fill="black"/>
<path d="M403 241.664C403.011 240.371 402.718 239.094 402.146 237.935C401.573 236.776 400.737 235.767 399.704 234.989C399.692 232.704 398.872 230.497 397.39 228.758C395.908 227.019 393.859 225.859 391.605 225.483C391.257 223.823 390.478 222.282 389.346 221.018C388.214 219.753 386.77 218.808 385.157 218.278C384.766 218.156 384.366 218.063 383.961 218H383.843H383.632H383.463H383.278H383.05H382.536C380.297 218.052 378.148 218.894 376.47 220.378C374.791 221.861 373.692 223.891 373.367 226.107C370.408 225.424 367.703 226.309 367.206 228.18C367.081 228.677 367.111 229.2 367.29 229.68C367.796 231.13 369.439 232.52 371.639 233.203L371.925 233.287L372.355 233.397H372.448C371.978 234.396 371.736 235.487 371.74 236.591C371.733 237.945 372.1 239.276 372.8 240.435C373.501 241.595 374.507 242.539 375.71 243.164L375.516 243.282C375.242 243.531 375.023 243.836 374.875 244.175C374.343 245.116 373.927 246.118 373.636 247.158C373.426 248.052 373.392 248.979 373.131 249.864C372.642 251.49 371.394 252.864 371.251 254.558C371.184 255.316 371.31 256.243 370.771 256.732C370.638 256.847 370.494 256.949 370.341 257.035C369.967 257.299 369.649 257.634 369.405 258.021C369.244 258.372 369.021 258.692 368.748 258.965C368.259 259.327 367.459 259.294 367.223 259.858C366.987 260.423 367.602 261.089 367.459 261.704C367.315 262.319 366.793 262.437 366.413 262.783C365.972 263.257 365.662 263.838 365.512 264.468C364.714 264.62 363.893 264.595 363.106 264.394C362.32 264.193 361.587 263.821 360.961 263.305C361.175 263.849 361.334 264.414 361.432 264.991C360.699 264.431 359.867 264.013 358.98 263.76C357.982 263.306 357.091 262.646 356.367 261.822L357.766 261.628L351.589 252.198L349.76 251.819L351.395 254.962C351.258 255.024 351.137 255.116 351.041 255.232C350.945 255.347 350.875 255.482 350.838 255.628C350.751 255.978 350.731 256.341 350.779 256.698C350.863 257.549 351.004 258.394 351.201 259.226L351.673 261.434C351.715 261.636 351.765 261.847 351.824 262.049C351.208 262.019 350.591 262.088 349.996 262.252C348.77 261.796 347.494 261.493 346.195 261.35C345.916 261.293 345.63 261.293 345.352 261.35C345.037 261.499 344.762 261.722 344.551 261.999C343.487 263.233 342.542 264.565 341.728 265.977C338.356 271.758 333.965 276.806 329.81 282.031C326.945 283.194 324.054 284.297 321.163 285.401L314.943 287.778C313.731 288.328 312.415 288.615 311.083 288.621C310.493 288.621 309.76 288.494 309.398 289C309.235 289.263 309.107 289.546 309.018 289.843L308.378 289.91C308.083 288.898 307.574 287.961 306.886 287.163C306.734 287.189 306.591 287.252 306.469 287.346C306.347 287.44 306.25 287.562 306.187 287.702C306.035 287.98 305.942 288.284 305.765 288.545C305.436 289.034 304.855 289.27 304.442 289.683C304.029 290.095 303.768 290.736 303.313 291.157C302.692 291.616 301.963 291.907 301.197 292C300.042 292.27 298.928 292.692 297.885 293.256C297.503 293.495 297.092 293.684 296.663 293.82C296.188 293.913 295.702 293.93 295.222 293.871L291.935 293.626C291.639 293.59 291.34 293.604 291.05 293.669C290.72 293.803 290.441 294.039 290.253 294.341C290.065 294.644 289.978 294.999 290.005 295.354C290.047 295.711 290.162 296.056 290.341 296.367C290.521 296.679 290.762 296.95 291.05 297.166C291.618 297.586 292.25 297.913 292.921 298.135C295.765 299.242 298.697 300.111 301.686 300.731V301.396C303.777 302.45 306.087 302.999 308.428 302.998C308.602 303.009 308.776 302.977 308.934 302.905C309.149 302.744 309.299 302.51 309.355 302.248C310.055 300.157 310.496 297.99 310.67 295.792C311.082 295.765 311.484 295.662 311.859 295.489C312.988 295.177 314.117 295.952 315.289 296.079C316.73 296.239 318.062 295.396 319.427 294.882L320.017 294.688C319.628 295.188 319.168 295.628 318.652 295.995C318.087 296.399 317.455 296.702 316.907 297.124C316.443 297.544 315.947 297.927 315.424 298.27C315.054 298.441 314.674 298.587 314.286 298.708C313.711 298.922 313.165 299.205 312.659 299.551C312.211 299.818 311.833 300.188 311.555 300.63C311.417 300.855 311.336 301.112 311.32 301.376C311.303 301.641 311.353 301.905 311.462 302.146C311.579 302.343 311.736 302.513 311.924 302.644C312.111 302.774 312.325 302.863 312.55 302.905C312.994 302.972 313.446 302.972 313.89 302.905C315.676 302.77 317.455 302.61 319.233 302.45C319.985 302.402 320.732 302.295 321.467 302.13C321.854 302.037 322.242 301.911 322.63 301.801C323.295 301.633 323.975 301.531 324.661 301.498C324.859 301.482 325.059 301.502 325.251 301.557C325.664 301.691 325.959 302.113 326.38 302.197C326.666 302.233 326.956 302.195 327.223 302.087C328.522 301.808 329.847 301.666 331.176 301.666C331.757 301.666 332.44 301.523 332.71 300.984C332.979 300.444 332.49 299.576 332.271 298.86C332.159 298.402 332.097 297.933 332.086 297.461C331.984 296.3 331.652 295.171 331.108 294.141C330.815 293.66 330.57 293.152 330.375 292.624C332.924 291.655 335.362 290.418 337.648 288.932C338.901 288.026 340.305 287.349 341.795 286.935C343.555 286.725 345.339 286.933 347.004 287.542C351.056 288.716 355.042 290.106 358.946 291.705C360.809 292.472 362.663 293.281 364.585 293.862C365.145 294.614 365.822 295.271 366.59 295.809C367.918 296.556 369.408 296.964 370.931 296.997C372.962 297.183 375.002 297.259 377.041 297.225C378.603 297.293 380.159 297.004 381.592 296.382C381.935 296.211 382.254 295.999 382.545 295.75C383.095 295.797 383.649 295.722 384.168 295.531C384.686 295.341 385.156 295.038 385.545 294.646C386.65 293.699 387.446 292.443 387.829 291.039C388.326 289.118 387.947 286.826 389.127 285.292C389.439 284.871 389.852 284.533 390.164 284.112C390.541 283.535 390.73 282.855 390.703 282.165C390.717 282.138 390.734 282.113 390.754 282.09C391.013 281.47 391.183 280.818 391.259 280.151C391.404 279.627 391.587 279.115 391.807 278.617C392.406 277.131 392.93 275.615 393.375 274.075C393.679 273.051 393.921 272.01 394.1 270.957C394.226 270.114 394.302 269.272 394.369 268.429C394.459 267.101 394.716 265.79 395.136 264.527C396.191 261.521 396.788 258.373 396.906 255.19V255.004C398.459 254.826 399.889 254.073 400.915 252.894C401.941 251.716 402.489 250.196 402.452 248.633C402.452 247.695 402.254 246.767 401.87 245.911C402.616 244.62 403.006 243.155 403 241.664ZM372.844 278.297C372.937 278.626 373.046 278.946 373.156 279.266C372.659 278.786 372.178 278.289 371.681 277.8C371.875 277.867 372.077 277.926 372.263 278.002C372.457 278.082 372.644 278.181 372.819 278.297H372.844ZM370.459 276.679C367.543 274.151 364.172 272.187 361.188 269.735C362.815 270.536 364.399 271.471 365.967 272.364C367.827 273.426 369.712 274.446 371.622 275.424C371.308 275.913 370.905 276.339 370.434 276.679H370.459ZM371.698 270.308L371.841 270.165C371.841 270.527 371.841 270.856 371.841 271.168L371.057 270.898C371.274 270.714 371.48 270.517 371.673 270.308H371.698ZM346.051 277.134C347.248 275.78 348.288 274.296 349.153 272.71C350.307 274.724 352.187 276.182 353.78 277.876C351.209 277.547 348.63 277.269 346.051 277.134Z" fill="url(#paint1_linear)"/>
<path d="M350 253L351.815 253.371L358 262.629L355.278 263L350 253Z" fill="#2F2E41"/>
<path d="M306 290.094C306.502 291.772 307.12 293.412 307.849 295C309.938 294.55 311.993 293.951 314 293.209C313.604 292.609 313.177 292.031 312.719 291.479C312.221 290.926 311.633 290.467 310.98 290.12C310.284 289.96 309.563 289.96 308.867 290.12C307.917 290.094 306.959 290.112 306 290.094Z" fill="#FBBEBE"/>
<path d="M310.725 293.035C310.226 292.819 309.781 292.503 309.42 292.107C309.059 291.711 308.791 291.245 308.633 290.741C308.311 289.728 307.767 288.793 307.038 288C306.884 288.02 306.738 288.078 306.614 288.168C306.49 288.257 306.392 288.376 306.329 288.512C306.177 288.773 306.084 289.065 305.915 289.326C305.578 289.789 304.987 290.017 304.565 290.407C304.143 290.798 303.89 291.408 303.435 291.806C302.808 292.251 302.072 292.532 301.3 292.62C300.125 292.875 298.991 293.277 297.924 293.815C297.534 294.04 297.118 294.221 296.684 294.352C296.203 294.421 295.714 294.421 295.233 294.352L291.908 294.124C291.628 294.08 291.343 294.08 291.064 294.124C290.725 294.243 290.436 294.467 290.245 294.762C290.054 295.057 289.971 295.405 290.009 295.751C290.049 296.094 290.163 296.425 290.345 296.722C290.527 297.02 290.772 297.276 291.064 297.475C291.642 297.875 292.279 298.188 292.954 298.403C295.849 299.453 298.83 300.27 301.865 300.843V301.477C303.979 302.477 306.303 302.997 308.658 302.998C308.831 303.008 309.004 302.98 309.164 302.917C309.38 302.761 309.53 302.536 309.586 302.282C310.386 300.036 310.855 297.692 310.979 295.32C311.033 294.717 310.984 294.11 310.835 293.523C310.649 292.945 311.274 293.189 310.7 292.961" fill="#2F2E41"/>
<path d="M374.107 280.53C364.302 281.098 354.614 278.322 344.793 278.03C343.574 277.952 342.349 278.026 341.149 278.249C339.9 278.576 338.69 279.031 337.54 279.604C332.276 281.974 326.828 283.938 321.388 285.894L315.134 288.142C313.918 288.674 312.599 288.95 311.264 288.954C310.668 288.954 309.938 288.832 309.586 289.311C308.57 290.772 309.048 292.906 309.72 294.546C309.938 295.073 310.308 295.65 310.895 295.706C311.307 295.68 311.711 295.581 312.087 295.414C313.22 295.122 314.354 295.861 315.529 295.982C316.973 296.128 318.316 295.333 319.684 294.846C321.951 294.035 324.419 294.035 326.803 293.677C330.79 293.036 334.492 291.243 337.951 289.206C339.209 288.339 340.616 287.696 342.106 287.306C343.872 287.105 345.663 287.302 347.336 287.883C351.404 288.992 355.408 290.309 359.332 291.827C361.372 292.685 363.463 293.425 365.595 294.043C370.247 295.219 375.165 294.935 379.639 293.231C381.209 292.63 382.913 291.608 382.997 289.936C383.056 289.003 382.3 288.183 381.805 287.379C381.486 286.868 381.158 286.357 380.814 285.862C379.135 283.508 377.087 280.359 374.107 280.53Z" fill="#2F2E41"/>
<path opacity="0.1" d="M374.107 280.53C364.302 281.098 354.614 278.322 344.793 278.03C343.574 277.952 342.349 278.026 341.149 278.249C339.9 278.576 338.69 279.031 337.54 279.604C332.276 281.974 326.828 283.938 321.388 285.894L315.134 288.142C313.918 288.674 312.599 288.95 311.264 288.954C310.668 288.954 309.938 288.832 309.586 289.311C308.57 290.772 309.048 292.906 309.72 294.546C309.938 295.073 310.308 295.65 310.895 295.706C311.307 295.68 311.711 295.581 312.087 295.414C313.22 295.122 314.354 295.861 315.529 295.982C316.973 296.128 318.316 295.333 319.684 294.846C321.951 294.035 324.419 294.035 326.803 293.677C330.79 293.036 334.492 291.243 337.951 289.206C339.209 288.339 340.616 287.696 342.106 287.306C343.872 287.105 345.663 287.302 347.336 287.883C351.404 288.992 355.408 290.309 359.332 291.827C361.372 292.685 363.463 293.425 365.595 294.043C370.247 295.219 375.165 294.935 379.639 293.231C381.209 292.63 382.913 291.608 382.997 289.936C383.056 289.003 382.3 288.183 381.805 287.379C381.486 286.868 381.158 286.357 380.814 285.862C379.135 283.508 377.087 280.359 374.107 280.53Z" fill="black"/>
<path d="M325 290.694C326.424 291.165 327.861 291.6 329.311 292C330.091 290.701 331.65 289.797 331.985 288.309C332.005 288.244 332.005 288.176 331.985 288.111C331.947 288.048 331.89 287.998 331.822 287.967C330.779 287.409 329.625 287.08 328.438 287.002C327.503 286.949 327.074 287.898 326.653 288.567C326.489 288.863 325.382 290.838 325 290.694Z" fill="#FBBEBE"/>
<path d="M326.451 289.379C325.983 289.3 325.537 289.124 325.141 288.863C324.745 288.601 324.408 288.26 324.15 287.861C323.936 287.475 323.696 286.952 323.252 287.004C322.807 287.055 322.661 287.518 322.567 287.921C322.271 289.441 321.839 290.931 321.275 292.373C320.711 293.822 319.754 295.085 318.512 296.018C317.931 296.421 317.289 296.722 316.716 297.15C316.241 297.572 315.735 297.956 315.202 298.3C314.824 298.469 314.435 298.613 314.038 298.729C313.454 298.949 312.897 299.237 312.379 299.586C311.917 299.852 311.527 300.226 311.241 300.676C311.099 300.901 311.017 301.158 311.002 301.424C310.988 301.689 311.04 301.954 311.155 302.194C311.275 302.391 311.435 302.561 311.626 302.691C311.816 302.821 312.032 302.909 312.259 302.949C312.715 303.017 313.18 303.017 313.636 302.949C315.458 302.82 317.28 302.657 319.103 302.494C319.871 302.444 320.634 302.338 321.387 302.177L322.576 301.851C323.255 301.671 323.952 301.567 324.655 301.542C324.859 301.523 325.065 301.544 325.262 301.602C325.681 301.739 325.98 302.16 326.417 302.245C326.707 302.273 326.999 302.235 327.272 302.134C328.602 301.848 329.959 301.707 331.319 301.714C331.917 301.714 332.619 301.559 332.893 301.027C333.235 300.358 332.67 299.612 332.439 298.892C332.329 298.433 332.266 297.965 332.251 297.494C332.149 296.327 331.808 295.194 331.25 294.166C330.788 293.308 330.155 292.364 330.48 291.455C330.642 291.166 330.746 290.849 330.788 290.52C330.66 289.045 327.289 289.568 326.451 289.379Z" fill="#2F2E41"/>
<path d="M359.084 264.895C357.381 264.108 356.017 262.682 355.256 260.893C355.1 260.512 354.968 260.105 354.812 259.724C354.311 258.433 353.528 257.285 352.528 256.372C352.423 256.254 352.295 256.161 352.154 256.096C352.013 256.032 351.861 256 351.707 256C351.554 256.049 351.417 256.139 351.308 256.262C351.2 256.386 351.125 256.537 351.091 256.702C350.999 257.054 350.976 257.422 351.025 257.784C351.108 258.636 351.246 259.481 351.436 260.313L351.904 262.548C351.966 262.889 352.062 263.223 352.191 263.544C352.392 263.918 352.656 264.25 352.972 264.522C353.399 264.938 353.834 265.336 354.27 265.735C354.522 265.966 354.797 266.166 355.091 266.332C355.55 266.563 356.041 266.715 356.545 266.783C358.505 267.052 360.376 267.812 362 269C362 269 362 267.502 362 267.337C361.979 266.902 361.836 266.483 361.589 266.133C360.837 265.555 359.986 265.135 359.084 264.895Z" fill="#FBBEBE"/>
<path opacity="0.1" d="M359.084 264.895C357.381 264.108 356.017 262.682 355.256 260.893C355.1 260.512 354.968 260.105 354.812 259.724C354.311 258.433 353.528 257.285 352.528 256.372C352.423 256.254 352.295 256.161 352.154 256.096C352.013 256.032 351.861 256 351.707 256C351.554 256.049 351.417 256.139 351.308 256.262C351.2 256.386 351.125 256.537 351.091 256.702C350.999 257.054 350.976 257.422 351.025 257.784C351.108 258.636 351.246 259.481 351.436 260.313L351.904 262.548C351.966 262.889 352.062 263.223 352.191 263.544C352.392 263.918 352.656 264.25 352.972 264.522C353.399 264.938 353.834 265.336 354.27 265.735C354.522 265.966 354.797 266.166 355.091 266.332C355.55 266.563 356.041 266.715 356.545 266.783C358.505 267.052 360.376 267.812 362 269C362 269 362 267.502 362 267.337C361.979 266.902 361.836 266.483 361.589 266.133C360.837 265.555 359.986 265.135 359.084 264.895Z" fill="black"/>
<path d="M379.5 248C380.881 248 382 246.881 382 245.5C382 244.119 380.881 243 379.5 243C378.119 243 377 244.119 377 245.5C377 246.881 378.119 248 379.5 248Z" fill="#2F2E41"/>
<path d="M377.945 244.071C377.29 243.918 376.599 244.014 376.013 244.34C375.731 244.585 375.504 244.886 375.349 245.222C374.801 246.141 374.372 247.123 374.073 248.146C373.858 248.986 373.823 249.935 373.547 250.8C373.047 252.396 371.762 253.749 371.615 255.412C371.546 256.16 371.676 257.033 371.115 257.537C370.978 257.653 370.831 257.757 370.676 257.848C370.287 258.1 369.958 258.43 369.71 258.814C369.541 259.157 369.31 259.467 369.028 259.73C368.528 260.091 367.7 260.058 367.459 260.57C367.218 261.082 367.847 261.78 367.7 262.385C367.554 262.989 367.011 263.107 366.622 263.443C366.165 263.913 365.844 264.493 365.691 265.123C364.872 265.277 364.027 265.255 363.217 265.059C362.407 264.864 361.651 264.498 361 263.989C361.569 265.673 361.817 267.444 361.733 269.214C361.776 269.497 361.76 269.786 361.686 270.063C361.612 270.34 361.481 270.6 361.302 270.827C363.247 270.968 365.174 271.295 367.054 271.802C367.868 272.066 368.749 272.066 369.563 271.802C369.999 271.574 370.39 271.272 370.719 270.911C371.753 269.886 372.84 268.769 373.09 267.349C373.152 266.547 373.166 265.742 373.133 264.938C373.232 263.941 373.443 262.958 373.763 262.007C374.309 260.031 374.675 258.013 374.858 255.975C374.97 254.715 376.091 253.707 376.677 252.615C377.781 250.489 378.92 248.28 378.997 245.894C379.032 245.121 378.756 244.155 377.945 244.071Z" fill="#2F2E41"/>
<path opacity="0.1" d="M377.945 244.071C377.29 243.918 376.599 244.014 376.013 244.34C375.731 244.585 375.504 244.886 375.349 245.222C374.801 246.141 374.372 247.123 374.073 248.146C373.858 248.986 373.823 249.935 373.547 250.8C373.047 252.396 371.762 253.749 371.615 255.412C371.546 256.16 371.676 257.033 371.115 257.537C370.978 257.653 370.831 257.757 370.676 257.848C370.287 258.1 369.958 258.43 369.71 258.814C369.541 259.157 369.31 259.467 369.028 259.73C368.528 260.091 367.7 260.058 367.459 260.57C367.218 261.082 367.847 261.78 367.7 262.385C367.554 262.989 367.011 263.107 366.622 263.443C366.165 263.913 365.844 264.493 365.691 265.123C364.872 265.277 364.027 265.255 363.217 265.059C362.407 264.864 361.651 264.498 361 263.989C361.569 265.673 361.817 267.444 361.733 269.214C361.776 269.497 361.76 269.786 361.686 270.063C361.612 270.34 361.481 270.6 361.302 270.827C363.247 270.968 365.174 271.295 367.054 271.802C367.868 272.066 368.749 272.066 369.563 271.802C369.999 271.574 370.39 271.272 370.719 270.911C371.753 269.886 372.84 268.769 373.09 267.349C373.152 266.547 373.166 265.742 373.133 264.938C373.232 263.941 373.443 262.958 373.763 262.007C374.309 260.031 374.675 258.013 374.858 255.975C374.97 254.715 376.091 253.707 376.677 252.615C377.781 250.489 378.92 248.28 378.997 245.894C379.032 245.121 378.756 244.155 377.945 244.071Z" fill="black"/>
<path d="M376.052 282.072C374.008 281.104 372.511 279.311 370.854 277.767C367.7 274.822 363.84 272.761 360.518 269.982C358.315 268.155 356.313 266.027 353.933 264.492C351.801 263.151 349.387 262.315 346.877 262.047C346.6 261.984 346.313 261.984 346.036 262.047C345.718 262.181 345.442 262.398 345.237 262.673C344.164 263.874 343.21 265.173 342.386 266.553C338.181 273.645 332.201 279.603 327.248 286.194C327.134 286.331 327.051 286.49 327.004 286.661C326.983 286.917 327.048 287.172 327.189 287.387L328.198 289.34C328.762 290.441 329.67 291.718 330.881 291.501C331.426 291.344 331.914 291.034 332.285 290.608L336.81 286.311L341.553 281.814C344.329 279.185 347.154 276.49 348.971 273.12C350.384 275.556 352.899 277.15 354.614 279.377C355.27 280.212 355.808 281.155 356.397 282.056C357.331 283.491 358.399 284.842 359.458 286.228L364.9 293.111C365.589 294.083 366.443 294.93 367.423 295.614C368.764 296.339 370.261 296.736 371.788 296.774C373.832 296.955 375.884 297.027 377.935 296.991C379.507 297.054 381.073 296.769 382.519 296.157C383.24 295.842 383.856 295.331 384.295 294.682C384.734 294.034 384.979 293.275 385 292.494C384.916 291.685 384.649 290.907 384.218 290.216C382.25 286.736 379.71 283.799 376.052 282.072Z" fill="#2F2E41"/>
<path d="M381 249C382.105 249 383 248.105 383 247C383 245.895 382.105 245 381 245C379.895 245 379 245.895 379 247C379 248.105 379.895 249 381 249Z" fill="#E8E8F0"/>
<path d="M380.486 245.742C380.89 246.563 380.962 247.511 380.685 248.384C380.398 249.241 380.006 250.058 379.516 250.816C379.095 251.596 378.586 252.326 378 252.989C380.801 253.123 383.51 252.019 385.971 250.682C387.959 249.604 389.939 248.275 391 246.26C390.684 246.337 390.355 246.345 390.035 246.284C389.715 246.224 389.412 246.096 389.144 245.909C388.61 245.539 388.133 245.091 387.727 244.58L386.327 242.992C386.009 242.643 385.731 242.259 385.498 241.847C385.191 241.284 385.061 240.64 385.126 240C384.567 240.587 383.945 241.109 383.27 241.555C382.267 242.215 381.165 242.691 380.154 243.343C379.806 243.577 379.011 243.945 379.218 244.413C379.425 244.881 380.204 245.241 380.486 245.742Z" fill="#FBBEBE"/>
<path opacity="0.1" d="M380.486 245.742C380.89 246.563 380.962 247.511 380.685 248.384C380.398 249.241 380.006 250.058 379.516 250.816C379.095 251.596 378.586 252.326 378 252.989C380.801 253.123 383.51 252.019 385.971 250.682C387.959 249.604 389.939 248.275 391 246.26C390.684 246.337 390.355 246.345 390.035 246.284C389.715 246.224 389.412 246.096 389.144 245.909C388.61 245.539 388.133 245.091 387.727 244.58L386.327 242.992C386.009 242.643 385.731 242.259 385.498 241.847C385.191 241.284 385.061 240.64 385.126 240C384.567 240.587 383.945 241.109 383.27 241.555C382.267 242.215 381.165 242.691 380.154 243.343C379.806 243.577 379.011 243.945 379.218 244.413C379.425 244.881 380.204 245.241 380.486 245.742Z" fill="black"/>
<path d="M380.203 246.296C379.915 246.7 379.76 247.182 379.76 247.677C379.76 248.172 379.915 248.654 380.203 249.058C380.287 249.158 380.59 249.786 380.717 249.794C380.778 249.789 380.839 249.772 380.894 249.743C380.949 249.714 380.997 249.675 381.036 249.627C381.684 248.956 382.285 248.243 382.838 247.493C383.401 246.745 384.212 246.218 385.127 246.004C386.261 245.961 387.375 246.306 388.284 246.983C388.706 247.174 389.078 247.461 389.369 247.819C389.573 248.188 389.693 248.596 389.723 249.016C389.998 251.542 390.105 254.082 390.043 256.622C390.091 258.456 389.97 260.291 389.681 262.103C389.496 263.032 389.226 263.944 389.1 264.889C389.001 265.722 388.962 266.561 388.982 267.4V270.897C388.96 271.539 389.005 272.181 389.117 272.813C389.285 273.575 389.647 274.286 389.891 275.031C390.143 275.886 390.315 276.763 390.405 277.65L390.884 281.265C391.036 282.403 391.154 283.65 390.455 284.612C390.144 285.022 389.731 285.357 389.411 285.767C388.225 287.306 388.57 289.507 388.107 291.39C387.717 292.768 386.912 293.994 385.801 294.904C385.404 295.294 384.927 295.592 384.402 295.779C383.877 295.965 383.317 296.035 382.762 295.983C381.281 295.707 380.397 294.176 379.993 292.728C379.589 291.281 379.446 289.708 378.57 288.486C377.767 287.561 376.817 286.773 375.759 286.151C374.688 285.521 373.902 284.505 373.562 283.315C373.469 282.788 373.562 282.244 373.469 281.708C373.39 281.034 373.131 280.394 372.718 279.854C372.305 279.313 371.753 278.893 371.121 278.637C370.364 278.344 369.438 278.236 369 277.55C370.084 276.875 370.874 275.821 371.214 274.596C371.549 273.379 371.73 272.125 371.752 270.864L372.005 266.68C372.123 264.797 372.173 262.94 373.007 261.249C373.377 260.496 373.848 259.785 374.227 259.04C374.74 257.994 375.176 256.912 375.532 255.802C376.138 254.078 376.744 252.355 377.282 250.614C377.493 249.769 377.815 248.956 378.242 248.196C378.696 247.409 379.353 246.464 380.203 246.296Z" fill="#E8E8F0"/>
<path d="M371.118 274H372.22L372.452 272.289C372.482 271.946 372.56 271.609 372.684 271.288C372.866 270.948 373.08 270.627 373.322 270.33C374.399 268.748 374.325 266.652 374.59 264.727C375.07 262.184 375.884 259.72 377.009 257.404L379.147 252.486C379.341 252.083 379.497 251.662 379.611 251.228C379.7 250.749 379.745 250.262 379.743 249.774C379.743 249.013 379.975 246.241 380 245.497C380 245.214 379.395 245.368 379.271 245.12C379.006 244.573 378.641 246.053 378.136 246.378C377.661 246.752 377.315 247.274 377.15 247.866C376.686 249.098 376.404 250.433 375.973 251.656C375.599 252.933 374.911 254.088 373.977 255.009C373.538 255.403 373.032 255.719 372.618 256.147C371.292 257.499 371.16 259.646 371.118 261.579C371.085 262.759 370.87 274 371.118 274Z" fill="#2F2E41"/>
<path d="M387.442 244.114C386.91 244.385 386.449 244.772 386.095 245.244C385.742 245.717 385.504 246.262 385.402 246.839C385.205 247.995 384.858 249.122 384.369 250.193C382.974 252.557 379.419 253.245 378.429 255.802C378.18 256.662 378.047 257.55 378.033 258.443C377.861 260.28 377.241 262.049 377.052 263.877C376.957 265.299 376.992 266.728 377.155 268.144L378.404 282.583C378.642 284.707 378.517 286.855 378.033 288.939C379.313 289.116 380.617 288.906 381.769 288.335C382.931 287.815 383.999 287.102 385.127 286.499C387.055 285.459 389.19 284.73 390.885 283.346C391.189 283.11 391.451 282.827 391.66 282.508C391.92 281.902 392.093 281.264 392.177 280.613C392.323 280.102 392.51 279.603 392.736 279.12C393.357 277.663 393.898 276.174 394.355 274.659C394.665 273.658 394.912 272.639 395.095 271.607C395.233 270.769 395.31 269.93 395.379 269.092C395.469 267.792 395.735 266.509 396.171 265.277C397.251 262.333 397.863 259.245 397.987 256.121C398.021 255.671 397.989 255.22 397.892 254.779C397.703 254.24 397.449 253.725 397.135 253.245C396.618 252.297 396.274 251.258 395.827 250.293C394.606 248.17 392.856 246.379 390.739 245.086C389.741 244.424 388.57 243.72 387.442 244.114Z" fill="#2F2E41"/>
<path d="M362.06 267.856C361.203 267.405 360.428 266.814 359.766 266.108C359.466 265.757 359.215 265.364 358.932 265.012C358.158 264.178 357.153 263.595 356.046 263.34C354.95 263.098 353.83 262.989 352.709 263.014C351.957 262.963 351.201 263.054 350.482 263.281C350.124 263.402 349.801 263.61 349.543 263.888C349.285 264.165 349.1 264.503 349.006 264.87C348.976 265.325 349.063 265.78 349.261 266.19C349.458 266.6 349.758 266.952 350.132 267.212C350.783 267.748 351.552 268.12 352.376 268.299C353.046 268.418 353.723 268.499 354.402 268.542C358.39 268.96 361.951 271.134 365.446 273.116C368.516 274.867 371.646 276.495 374.838 278C374.962 277.043 375.015 276.079 374.997 275.115C374.997 274.396 374.938 273.292 374.263 272.865C373.302 272.462 372.301 272.162 371.276 271.97C369.218 271.296 367.209 270.48 365.263 269.528C364.162 269.052 363.102 268.466 362.06 267.856Z" fill="#FBBEBE"/>
<path d="M379.5 245C383.642 245 387 241.642 387 237.5C387 233.358 383.642 230 379.5 230C375.358 230 372 233.358 372 237.5C372 241.642 375.358 245 379.5 245Z" fill="#FBBEBE"/>
<path d="M389.224 251.925C388.666 252.738 388.212 253.622 387.871 254.556C387.051 256.396 385.657 257.962 384.977 259.913C384.296 261.863 384.288 264.366 382.886 265.959C382.606 266.202 382.393 266.52 382.271 266.878C382.266 267.101 382.244 267.323 382.206 267.543C382.001 268.122 381.091 268.147 380.918 268.743C380.869 268.914 380.918 269.101 380.836 269.271C380.697 269.654 380.205 269.714 379.885 269.944C379.205 270.421 379.344 271.528 378.86 272.218C378.649 272.474 378.377 272.669 378.07 272.781C377.763 272.893 377.433 272.919 377.114 272.856C376.478 272.721 375.866 272.483 375.302 272.149C375.099 272.034 374.876 271.962 374.646 271.937C374.374 271.946 374.111 272.041 373.892 272.209C373.273 272.682 372.777 273.307 372.448 274.028C372.119 274.748 371.967 275.542 372.006 276.339C372.1 277.935 372.466 279.501 373.088 280.963C373.157 281.216 373.277 281.452 373.441 281.653C373.685 281.852 373.98 281.971 374.29 281.995C374.599 282.02 374.909 281.948 375.179 281.789C375.714 281.459 376.283 281.193 376.876 280.997C377.958 280.793 379.016 281.568 380.115 281.5C380.915 281.377 381.668 281.033 382.296 280.503C383.399 279.82 384.39 278.957 385.231 277.949C385.707 277.293 386.051 276.552 386.477 275.854C387.02 275.005 387.608 274.189 388.24 273.41L392.274 268.3C392.675 267.815 393.037 267.297 393.356 266.751C393.715 266.005 393.99 265.219 394.176 264.409C394.607 263.059 394.883 261.662 394.996 260.245C395.021 259.073 394.922 257.902 394.701 256.753C394.579 255.609 394.303 254.488 393.881 253.424C393.004 251.499 390.872 249.932 389.224 251.925Z" fill="#2F2E41"/>
<path d="M403.999 242.823C404.005 241.521 403.709 240.237 403.134 239.075C402.559 237.913 401.723 236.907 400.693 236.14C400.659 233.827 399.824 231.602 398.335 229.859C396.846 228.117 394.8 226.969 392.561 226.621C392.13 224.428 390.955 222.462 389.242 221.068C387.53 219.674 385.39 218.943 383.201 219.003C381.011 219.064 378.913 219.912 377.277 221.398C375.64 222.885 374.571 224.913 374.257 227.126C371.287 226.441 368.567 227.332 368.072 229.2C367.577 231.067 369.675 233.484 372.806 234.34C373.793 234.623 374.821 234.727 375.844 234.649C376.572 235.745 377.518 236.674 378.619 237.375C379.72 238.076 380.953 238.533 382.238 238.719C382.619 240.485 383.474 242.108 384.707 243.406C385.94 244.705 387.503 245.627 389.221 246.07C389.699 247.241 390.437 248.282 391.377 249.111C391.377 249.343 391.377 249.583 391.377 249.823C391.377 250.634 391.534 251.437 391.838 252.187C392.142 252.936 392.588 253.617 393.15 254.191C393.712 254.764 394.379 255.219 395.113 255.53C395.847 255.84 396.634 256 397.428 256C398.223 256 399.01 255.84 399.744 255.53C400.478 255.219 401.145 254.764 401.707 254.191C402.269 253.617 402.714 252.936 403.018 252.187C403.322 251.437 403.479 250.634 403.479 249.823C403.479 248.88 403.282 247.948 402.9 247.089C403.639 245.795 404.019 244.32 403.999 242.823Z" fill="#F86D70"/>
<path opacity="0.1" d="M370.081 229.833C370.572 227.924 373.273 227.013 376.223 227.714C376.573 225.416 377.686 223.322 379.364 221.802C381.041 220.283 383.177 219.436 385.392 219.412H386C385.152 219.14 384.27 219.001 383.383 219C381.168 219.024 379.033 219.871 377.355 221.391C375.677 222.91 374.565 225.004 374.215 227.302C371.264 226.602 368.564 227.512 368.072 229.421C367.58 231.331 369.664 233.8 372.773 234.676C373.356 234.846 373.953 234.954 374.556 235C371.581 234.063 369.589 231.786 370.081 229.833Z" fill="black"/>
<path opacity="0.1" d="M393.066 250.045C393.054 249.813 393.054 249.582 393.066 249.35C392.135 248.535 391.407 247.504 390.942 246.343C389.248 245.907 387.707 244.995 386.492 243.709C385.277 242.423 384.437 240.815 384.066 239.066C382.799 238.887 381.583 238.437 380.497 237.745C379.411 237.053 378.479 236.135 377.76 235.051C377.174 235.101 376.583 235.084 376 235C376.724 235.998 377.633 236.839 378.676 237.474C379.718 238.109 380.874 238.527 382.074 238.702C382.449 240.448 383.291 242.053 384.506 243.337C385.72 244.62 387.259 245.532 388.95 245.97C389.421 247.128 390.149 248.157 391.074 248.977C391.074 249.206 391.074 249.443 391.074 249.68C391.048 251.322 391.656 252.909 392.766 254.092C393.876 255.276 395.398 255.962 397 256C395.831 255.535 394.829 254.716 394.126 253.652C393.423 252.588 393.053 251.33 393.066 250.045Z" fill="black"/>
<path d="M382.842 240.338C383.328 239.969 383.322 239.144 382.829 238.495C382.336 237.846 381.543 237.619 381.057 237.988C380.571 238.357 380.577 239.182 381.07 239.831C381.563 240.48 382.356 240.707 382.842 240.338Z" fill="#FBBEBE"/>
<defs>
<linearGradient id="paint0_linear" x1="646.98" y1="364.036" x2="646.98" y2="219" gradientUnits="userSpaceOnUse">
<stop stop-color="#808080" stop-opacity="0.25"/>
<stop offset="0.54" stop-color="#808080" stop-opacity="0.12"/>
<stop offset="1" stop-color="#808080" stop-opacity="0.1"/>
</linearGradient>
<linearGradient id="paint1_linear" x1="52598.8" y1="56375.8" x2="52598.8" y2="47791.6" gradientUnits="userSpaceOnUse">
<stop stop-color="#808080" stop-opacity="0.25"/>
<stop offset="0.54" stop-color="#808080" stop-opacity="0.12"/>
<stop offset="1" stop-color="#808080" stop-opacity="0.1"/>
</linearGradient>
</defs>
</svg>
