<svg width="50" height="50" viewBox="0 0 50 50" fill="none" xmlns="http://www.w3.org/2000/svg">
<path d="M25 50C38.8071 50 50 38.8071 50 25C50 11.1929 38.8071 0 25 0C11.1929 0 0 11.1929 0 25C0 38.8071 11.1929 50 25 50Z" fill="#6C63FF"/>
<path d="M21.2012 16.7754C21.2012 17.498 21.2012 20.7207 21.2012 20.7207H18.3105V25.5449H21.2012V38.7676H27.1387V25.5352H31.123C31.123 25.5352 31.4941 23.2207 31.6797 20.6914C31.1621 20.6914 27.168 20.6914 27.168 20.6914C27.168 20.6914 27.168 17.8887 27.168 17.3906C27.168 16.9023 27.8125 16.2383 28.457 16.2383C29.0918 16.2383 30.4395 16.2383 31.6895 16.2383C31.6895 15.584 31.6895 13.3086 31.6895 11.2188C30.0195 11.2188 28.125 11.2188 27.2949 11.2188C21.0547 11.2285 21.2012 16.0527 21.2012 16.7754Z" fill="white"/>
</svg>
