<svg width="95" height="95" viewBox="0 0 95 95" fill="none" xmlns="http://www.w3.org/2000/svg">
<path d="M47.5 95C73.7335 95 95 73.7335 95 47.5C95 21.2665 73.7335 0 47.5 0C21.2665 0 0 21.2665 0 47.5C0 73.7335 21.2665 95 47.5 95Z" fill="#D5E2EB"/>
<path d="M60.3156 28.5619L65.9802 33.0531C66.3597 33.354 66.9113 33.2902 67.2122 32.9107L68.4834 31.3073C68.7843 30.9278 68.7206 30.3762 68.3411 30.0753L62.6765 25.5841C62.297 25.2832 61.7454 25.3469 61.4445 25.7264L60.1732 27.3298C59.8723 27.7094 59.936 28.261 60.3156 28.5619Z" fill="#CC4E47"/>
<path d="M34.6936 28.5619L29.029 33.0531C28.6495 33.354 28.0979 33.2902 27.797 32.9107L26.5257 31.3073C26.2249 30.9278 26.2886 30.3762 26.6681 30.0753L32.3327 25.5841C32.7122 25.2832 33.2638 25.3469 33.5647 25.7264L34.836 27.3298C35.1369 27.7094 35.0732 28.261 34.6936 28.5619Z" fill="#CC4E47"/>
<path d="M47.5066 79.2909C61.7705 79.2909 73.3336 67.7278 73.3336 53.4639C73.3336 39.2001 61.7705 27.637 47.5066 27.637C33.2428 27.637 21.6797 39.2001 21.6797 53.4639C21.6797 67.7278 33.2428 79.2909 47.5066 79.2909Z" fill="#CC4E47"/>
<path d="M49.9191 20.9062H45.0898V26.784H49.9191V20.9062Z" fill="#CC4E47"/>
<path d="M47.5066 76.1241C61.7705 76.1241 73.3336 64.561 73.3336 50.2972C73.3336 36.0333 61.7705 24.4702 47.5066 24.4702C33.2428 24.4702 21.6797 36.0333 21.6797 50.2972C21.6797 64.561 33.2428 76.1241 47.5066 76.1241Z" fill="#EA685E"/>
<path d="M47.5052 70.881C58.8731 70.881 68.0885 61.6656 68.0885 50.2977C68.0885 38.9298 58.8731 29.7144 47.5052 29.7144C36.1373 29.7144 26.9219 38.9298 26.9219 50.2977C26.9219 61.6656 36.1373 70.881 47.5052 70.881Z" fill="white"/>
<path d="M47.625 35.3513C48.3671 35.3513 48.9687 34.7497 48.9687 34.0076C48.9687 33.2654 48.3671 32.6638 47.625 32.6638C46.8829 32.6638 46.2812 33.2654 46.2812 34.0076C46.2812 34.7497 46.8829 35.3513 47.625 35.3513Z" fill="#4B687F"/>
<path d="M34.6243 42.7201C34.9954 42.0774 34.7752 41.2555 34.1325 40.8845C33.4898 40.5134 32.6679 40.7336 32.2969 41.3763C31.9258 42.019 32.146 42.8408 32.7887 43.2119C33.4314 43.583 34.2533 43.3628 34.6243 42.7201Z" fill="#4B687F"/>
<path d="M31.2148 51.52C31.957 51.52 32.5586 50.9184 32.5586 50.1763C32.5586 49.4341 31.957 48.8325 31.2148 48.8325C30.4727 48.8325 29.8711 49.4341 29.8711 50.1763C29.8711 50.9184 30.4727 51.52 31.2148 51.52Z" fill="#4B687F"/>
<path d="M34.0075 59.5018C34.6502 59.1307 34.8704 58.3089 34.4993 57.6662C34.1282 57.0235 33.3064 56.8033 32.6637 57.1743C32.021 57.5454 31.8008 58.3672 32.1719 59.0099C32.5429 59.6526 33.3648 59.8728 34.0075 59.5018Z" fill="#4B687F"/>
<path d="M40.4212 65.0147C40.7923 64.372 40.572 63.5502 39.9293 63.1791C39.2866 62.8081 38.4648 63.0283 38.0937 63.671C37.7227 64.3137 37.9429 65.1355 38.5856 65.5066C39.2283 65.8777 40.0501 65.6574 40.4212 65.0147Z" fill="#4B687F"/>
<path d="M47.3828 67.9309C48.1249 67.9309 48.7265 67.3293 48.7265 66.5871C48.7265 65.845 48.1249 65.2434 47.3828 65.2434C46.6407 65.2434 46.0391 65.845 46.0391 66.5871C46.0391 67.3293 46.6407 67.9309 47.3828 67.9309Z" fill="#4B687F"/>
<path d="M56.2184 65.6285C56.8611 65.2574 57.0813 64.4356 56.7103 63.7929C56.3392 63.1502 55.5174 62.93 54.8747 63.301C54.232 63.6721 54.0117 64.4939 54.3828 65.1366C54.7539 65.7793 55.5757 65.9995 56.2184 65.6285Z" fill="#4B687F"/>
<path d="M62.7181 59.2184C63.0891 58.5756 62.8689 57.7538 62.2262 57.3828C61.5835 57.0117 60.7617 57.2319 60.3906 57.8746C60.0196 58.5173 60.2398 59.3391 60.8825 59.7102C61.5252 60.0813 62.347 59.8611 62.7181 59.2184Z" fill="#4B687F"/>
<path d="M63.793 51.7612C64.5351 51.7612 65.1367 51.1596 65.1367 50.4175C65.1367 49.6753 64.5351 49.0737 63.793 49.0737C63.0508 49.0737 62.4492 49.6753 62.4492 50.4175C62.4492 51.1596 63.0508 51.7612 63.793 51.7612Z" fill="#4B687F"/>
<path d="M62.3473 43.4202C62.99 43.0492 63.2102 42.2273 62.8392 41.5846C62.4681 40.9419 61.6463 40.7217 61.0036 41.0928C60.3609 41.4638 60.1406 42.2857 60.5117 42.9284C60.8828 43.5711 61.7046 43.7913 62.3473 43.4202Z" fill="#4B687F"/>
<path d="M56.9212 36.9203C57.2923 36.2776 57.072 35.4557 56.4293 35.0847C55.7866 34.7136 54.9648 34.9338 54.5937 35.5765C54.2227 36.2192 54.4429 37.041 55.0856 37.4121C55.7283 37.7832 56.5501 37.563 56.9212 36.9203Z" fill="#4B687F"/>
<path d="M47.5046 53.3294C49.179 53.3294 50.5365 51.972 50.5365 50.2975C50.5365 48.6231 49.179 47.2656 47.5046 47.2656C45.8301 47.2656 44.4727 48.6231 44.4727 50.2975C44.4727 51.972 45.8301 53.3294 47.5046 53.3294Z" fill="#EA685E"/>
<path d="M47.5039 50.968C46.8479 50.968 46.3164 50.4365 46.3164 49.7805V38.3137C46.3164 37.6577 46.8479 37.1262 47.5039 37.1262C48.1599 37.1262 48.6914 37.6577 48.6914 38.3137V49.7805C48.6914 50.4365 48.1599 50.968 47.5039 50.968Z" fill="#EA685E"/>
<path d="M53.0934 21.5858H41.9121C41.1629 21.5858 40.5557 20.9785 40.5557 20.2294V17.0644C40.5557 16.3153 41.1629 15.708 41.9121 15.708H53.0934C53.8425 15.708 54.4498 16.3153 54.4498 17.0644V20.2294C54.4498 20.9785 53.8425 21.5858 53.0934 21.5858Z" fill="#EA685E"/>
<path d="M40.1297 37.4245C40.7781 37.0635 41.0112 36.2452 40.6502 35.5968C40.2892 34.9484 39.4709 34.7154 38.8225 35.0764C38.1741 35.4373 37.9411 36.2556 38.302 36.9041C38.663 37.5525 39.4813 37.7855 40.1297 37.4245Z" fill="#4B687F"/>
</svg>
