<svg width="95" height="95" viewBox="0 0 95 95" fill="none" xmlns="http://www.w3.org/2000/svg">
<path d="M47.5 92.0312C72.0939 92.0312 92.0312 72.0939 92.0312 47.5C92.0312 22.9061 72.0939 2.96875 47.5 2.96875C22.9061 2.96875 2.96875 22.9061 2.96875 47.5C2.96875 72.0939 22.9061 92.0312 47.5 92.0312Z" fill="#D5E2EB"/>
<path d="M68.9875 52.8301L68.7746 55.6074C68.7746 61.3226 64.8798 66.4981 59.0625 70.2441C53.6157 73.7537 48.1689 76.0088 47.5008 76.2802C47.1683 76.143 45.6395 75.5129 43.5128 74.4772C41.386 73.4415 38.6611 72.0003 35.9392 70.2441C30.1219 66.4981 26.2271 61.3226 26.2271 55.6074L26.0142 52.8301C26.6735 58.0756 30.4224 62.7872 35.7671 66.288C38.5328 68.0968 41.2955 69.5847 43.4515 70.6554C45.6104 71.7261 47.1624 72.3767 47.5009 72.5167C48.1806 72.2366 53.7062 69.9085 59.2346 66.288C64.5793 62.7872 68.3282 58.0756 68.9875 52.8301Z" fill="#CC4E47"/>
<path d="M63.9512 20.4466C63.9512 20.2803 63.9571 20.1169 63.9629 19.9536L56.4243 19.1804C53.4807 18.877 50.5253 18.7253 47.5671 18.7195H47.4329C44.4747 18.7253 41.5193 18.877 38.5757 19.1804L31.0371 19.9536C31.0429 20.1169 31.0488 20.2803 31.0488 20.4466C31.0488 25.0357 28.2393 28.9421 24.3066 30.4241L25.92 51.587C25.9316 52.0012 25.9637 52.4126 26.0133 52.821V52.8298C26.6726 58.0753 30.4215 62.7869 35.7662 66.2878C38.5319 68.0965 41.2947 69.5844 43.4506 70.6551C45.6095 71.7258 47.1616 72.3764 47.5 72.5164C48.1798 72.2363 53.7053 69.9083 59.2338 66.2878C64.5785 62.7869 68.3274 58.0753 68.9867 52.8298V52.821C69.0363 52.4126 69.0684 52.0012 69.08 51.587L70.6934 30.4241C66.7607 28.9421 63.9512 25.0357 63.9512 20.4466Z" fill="#EA685E"/>
<path d="M47.5 59.3484C55.0831 59.3484 61.2305 53.201 61.2305 45.6179C61.2305 38.0348 55.0831 31.8875 47.5 31.8875C39.9169 31.8875 33.7695 38.0348 33.7695 45.6179C33.7695 53.201 39.9169 59.3484 47.5 59.3484Z" fill="#CC4E47"/>
<path d="M47.5 57.864C55.0831 57.864 61.2305 51.7167 61.2305 44.1335C61.2305 36.5504 55.0831 30.4031 47.5 30.4031C39.9169 30.4031 33.7695 36.5504 33.7695 44.1335C33.7695 51.7167 39.9169 57.864 47.5 57.864Z" fill="white"/>
<path d="M56.4253 41.3667H50.1975V35.1389H44.8034V41.3667H38.5757V46.7608H44.8034V52.9885H50.1975V46.7608H56.4253V41.3667Z" fill="#00A388"/>
</svg>
