<svg width="95" height="95" viewBox="0 0 95 95" fill="none" xmlns="http://www.w3.org/2000/svg">
<path d="M47.5 92.0312C72.0939 92.0312 92.0312 72.0939 92.0312 47.5C92.0312 22.9061 72.0939 2.96875 47.5 2.96875C22.9061 2.96875 2.96875 22.9061 2.96875 47.5C2.96875 72.0939 22.9061 92.0312 47.5 92.0312Z" fill="#D5E2EB"/>
<path d="M71.1063 66.9486C71.0926 66.9578 71.0834 66.9715 71.0742 66.9807V68.9227C71.0742 69.1517 71.0605 69.3762 71.0284 69.6006C70.9689 70.0907 70.8407 70.5716 70.6482 71.0251L68.2528 76.6954C68.065 77.1306 67.6345 77.4191 67.1581 77.4191H62.7061C62.2068 77.4191 61.7626 77.1031 61.5931 76.6313L59.2159 70.0083C58.9595 69.2983 58.1945 68.9136 57.4709 69.1288C53.1746 70.4022 48.15 69.9212 45.6401 69.5411C44.6644 69.3945 43.7026 69.8708 43.2308 70.7365L39.9193 76.7642C39.7086 77.1397 39.3147 77.3687 38.8887 77.3687H33.6489C32.9939 77.3687 32.4626 76.8374 32.4626 76.1825V68.3044C32.4626 67.622 32.0366 67.0265 31.4091 66.7883C31.3404 66.7654 31.2671 66.7425 31.1893 66.7242C22.0608 64.6997 17.3294 59.579 17.3294 59.579H16.6836C15.9691 59.579 15.2729 59.3316 14.7187 58.8736C14.2285 58.4751 13.8988 57.9118 13.7843 57.2889L12.8178 52.1223C12.7216 51.5956 13.0972 51.1009 13.6331 51.0551L17.3294 50.7574L18.4057 48.8749C19.4729 46.997 20.989 45.4123 22.8211 44.2534L23.6639 43.7312L23.6822 43.7175C23.5036 43.0946 23.3021 42.5037 23.0914 41.9587L23.0868 41.9404L21.7676 37.8685C22.4776 37.7036 23.1555 37.6074 23.7967 37.5616C29.0961 37.1952 31.9908 40.5113 31.9908 40.5113C32.1283 40.406 32.2656 40.3052 32.4076 40.2045C33.8505 39.1556 35.3756 38.2166 36.9604 37.4013C42.4522 34.5799 48.6721 33.2699 54.8326 33.6272C60.3198 33.9432 67.4971 35.4364 71.5094 39.4854C78.6958 46.7359 77.8622 59.7073 71.1063 66.9486Z" fill="#EA685E"/>
<path d="M57.9776 39.6944C57.8618 39.6944 57.7441 39.6765 57.6283 39.6394C56.765 39.3634 55.8579 39.1496 54.9316 39.0047C51.9544 38.5368 48.6565 38.7435 45.1287 39.617C44.5159 39.7673 43.8942 39.3947 43.7421 38.7806C43.59 38.1669 43.9644 37.5461 44.5786 37.394C48.4042 36.4466 52.0063 36.2274 55.2863 36.7423C56.328 36.9055 57.351 37.1462 58.3261 37.4584C58.9286 37.6512 59.2605 38.2957 59.0677 38.8978C58.912 39.384 58.462 39.6944 57.9776 39.6944Z" fill="#CC4E47"/>
<path d="M26.5369 46.0442C26.3307 46.1129 26.1201 46.1403 25.9186 46.1403C25.062 46.1403 24.2651 45.5953 23.9903 44.7388L23.6651 43.7311L23.0926 41.9586L23.088 41.9403L21.7688 37.8684C22.4788 37.7035 23.1566 37.6073 23.7979 37.5615L26.5369 46.0442Z" fill="#CC4E47"/>
<path d="M22.9881 52.11C23.6168 52.11 24.1266 51.6002 24.1266 50.9715C24.1266 50.3427 23.6168 49.833 22.9881 49.833C22.3593 49.833 21.8496 50.3427 21.8496 50.9715C21.8496 51.6002 22.3593 52.11 22.9881 52.11Z" fill="#CC4E47"/>
<path d="M77.3253 46.9319C77.1705 46.9319 77.0135 46.9252 76.8552 46.9118C74.8053 46.7395 72.7714 45.4169 71.7936 43.621C71.4917 43.0655 71.6966 42.3699 72.2521 42.0676C72.8077 41.7666 73.5027 41.9705 73.8056 42.5261C74.4201 43.6559 75.7531 44.521 77.0471 44.6297C77.701 44.6851 78.6269 44.5653 79.3198 43.6841C80.0193 42.7935 80.1947 41.2808 79.2572 40.3893C78.8774 40.0279 78.1725 39.7873 77.6107 39.8351C77.2926 39.8606 77.0601 39.968 76.9196 40.1532C76.8261 40.2771 76.7894 40.4515 76.8199 40.6327C76.8525 40.8295 76.9594 41.0053 77.1057 41.1037C77.1442 41.1292 77.196 41.1538 77.2506 41.1743C77.4711 40.8134 77.8862 40.5852 78.3339 40.6304C78.9637 40.6886 79.4271 41.2459 79.369 41.8757C79.3081 42.5354 78.949 43.0677 78.3836 43.3365C77.5539 43.7306 76.4781 43.4408 75.8291 43.0047C75.16 42.5556 74.6975 41.8283 74.561 41.0102C74.4273 40.2104 74.6219 39.3937 75.0947 38.7701C75.6301 38.0634 76.458 37.6309 77.425 37.5522C78.643 37.4582 79.9795 37.9158 80.8352 38.7299C82.5336 40.3442 82.6584 43.142 81.1201 45.0993C80.1826 46.2914 78.8483 46.9319 77.3253 46.9319Z" fill="#EA685E"/>
<path d="M71.1063 66.949C71.0926 66.9581 71.0834 66.9719 71.0743 66.981V68.923C71.0743 69.1521 71.0606 69.3765 71.0285 69.601C70.1903 70.0727 69.1094 69.8895 68.4727 69.1246L71.1063 66.949Z" fill="#CC4E47"/>
<path d="M36.117 67.8005C35.8834 68.8952 34.807 69.5914 33.7123 69.3578L32.4619 69.0876V68.3044C32.4619 67.622 32.0359 67.0265 31.4084 66.7883L36.117 67.8005Z" fill="#CC4E47"/>
<path d="M52.2136 30.5281C56.5976 30.0873 59.7941 26.176 59.3532 21.792C58.9123 17.408 55.001 14.2115 50.6171 14.6524C46.2331 15.0933 43.0366 19.0046 43.4775 23.3885C43.9183 27.7725 47.8296 30.969 52.2136 30.5281Z" fill="#FFD766"/>
<path d="M52.0103 28.4968C55.2723 28.1688 57.6507 25.2585 57.3227 21.9965C56.9946 18.7345 54.0843 16.3561 50.8224 16.6841C47.5604 17.0121 45.1819 19.9224 45.51 23.1844C45.838 26.4464 48.7483 28.8248 52.0103 28.4968Z" fill="#FFEC9F"/>
</svg>
