<svg width="95" height="95" viewBox="0 0 95 95" fill="none" xmlns="http://www.w3.org/2000/svg">
<path d="M47.5 95C73.7335 95 95 73.7335 95 47.5C95 21.2665 73.7335 0 47.5 0C21.2665 0 0 21.2665 0 47.5C0 73.7335 21.2665 95 47.5 95Z" fill="#D5E2EB"/>
<path d="M57.9562 59.5977C53.5208 59.5977 49.9126 63.2764 49.9126 67.798C49.9126 72.3197 53.5208 75.9986 57.9562 75.9986C62.3916 75.9986 66 72.3199 66 67.798C66 63.2762 62.3916 59.5977 57.9562 59.5977ZM57.9562 73.6789C54.7758 73.6789 52.1881 71.0408 52.1881 67.7982C52.1881 64.5556 54.7758 61.9177 57.9562 61.9177C61.1368 61.9177 63.7245 64.5558 63.7245 67.7982C63.7245 71.0407 61.137 73.6789 57.9562 73.6789Z" fill="black"/>
<path d="M44.6134 40.1819C44.9045 40.1819 45.1957 40.0686 45.4178 39.8422L52.2028 32.9251C53.6645 34.4512 55.7022 35.4012 57.9548 35.4012C62.3902 35.4012 65.9986 31.7224 65.9986 27.2008C65.9986 22.6791 62.39 19 57.9546 19C53.5192 19 49.911 22.6787 49.911 27.2006C49.911 28.5828 50.2495 29.8855 50.8445 31.0292L43.809 38.2016C43.3645 38.6546 43.3645 39.389 43.8088 39.842C44.031 40.0686 44.3221 40.1819 44.6134 40.1819ZM57.9546 21.3199C61.1352 21.3199 63.7229 23.958 63.7229 27.2006C63.7229 30.4432 61.1352 33.0811 57.9546 33.0811C54.7742 33.0811 52.1865 30.443 52.1865 27.2006C52.1865 23.9582 54.7742 21.3199 57.9546 21.3199Z" fill="black"/>
<path d="M49.9881 60.5517L43.2821 53.7152C44.9978 52.2102 46.0874 49.9829 46.0874 47.4997C46.0874 42.9778 42.4792 39.2991 38.0438 39.2991C33.6084 39.2991 30 42.9778 30 47.4997C30 52.0215 33.6086 55.7002 38.0438 55.7002C39.2079 55.7002 40.314 55.4449 41.3137 54.9892L48.3791 62.192C48.6011 62.4184 48.8924 62.5317 49.1835 62.5317C49.4746 62.5317 49.7658 62.4184 49.9879 62.192C50.4324 61.7391 50.4324 61.0046 49.9881 60.5517ZM32.2755 47.4997C32.2755 44.257 34.8632 41.619 38.0438 41.619C41.2242 41.619 43.8119 44.257 43.8119 47.4997C43.8119 50.7423 41.2244 53.3804 38.0438 53.3804C34.8632 53.3804 32.2755 50.7423 32.2755 47.4997Z" fill="#FB4A5E"/>
</svg>
