<svg width="95" height="95" viewBox="0 0 95 95" fill="none" xmlns="http://www.w3.org/2000/svg">
<path d="M47.5 95C73.7335 95 95 73.7335 95 47.5C95 21.2665 73.7335 0 47.5 0C21.2665 0 0 21.2665 0 47.5C0 73.7335 21.2665 95 47.5 95Z" fill="#D5E2EB"/>
<path d="M47.5004 75.1356L37.1367 58.7239H57.864L47.5004 75.1356Z" fill="#D7FCF9"/>
<path d="M50.9533 58.7534H47.4988H44.0442L38.8633 55.5131V58.2923C38.8633 58.2923 38.8633 64.7695 47.4996 64.7695C56.136 64.7695 56.136 58.2923 56.136 58.2923V55.5122L50.9533 58.7534Z" fill="#AAF0E9"/>
<path d="M62.1829 40.7827C62.1829 39.8232 61.3192 38.8637 60.4556 38.8637C59.592 38.8637 59.592 39.8232 59.592 39.8232V38.8637C59.5764 31.091 58.7076 25.9092 47.5011 25.9092C36.2945 25.9092 35.4257 31.091 35.4102 38.8637V45.7702L38.8647 54.4066L43.2736 57.8577C43.765 58.4095 44.4688 58.7248 45.2081 58.7248H47.5011H49.794C50.5333 58.7248 51.2372 58.4095 51.7286 57.8577L56.1374 54.4066L58.9062 47.4828C61.3547 47.3066 62.1829 43.593 62.1829 40.7827Z" fill="#D7FCF9"/>
<path d="M35.4073 38.8637V39.8232C35.4073 39.8232 35.4073 38.8637 34.5437 38.8637C33.68 38.8637 32.8164 39.8232 32.8164 40.7827C32.8164 43.5921 33.6429 47.3066 36.0922 47.4828L38.8619 54.4066L43.2707 57.8577C43.7621 58.4095 44.466 58.7248 45.2053 58.7248H47.4982V25.9092C36.2917 25.9092 35.4229 31.091 35.4073 38.8637Z" fill="white"/>
<path d="M41.4523 51.8443L41.4627 51.8149H40.574L40.5887 51.8443H41.4523Z" fill="#D7FCF9"/>
<path d="M47.4988 58.7531H44.0442L38.8633 55.5127V58.2919C38.8633 58.2919 38.8633 64.7692 47.4996 64.7692L47.4988 58.7531Z" fill="#D7FCF9"/>
<path d="M58.5619 29.6003C58.6466 29.2393 58.688 28.8749 58.688 28.5104C58.688 26.056 57.9039 24.3797 47.5014 24.2164V24.1957C46.9538 24.1871 46.3881 24.1819 45.787 24.1819C34.9821 24.1819 34.5235 31.0746 34.5477 32.541C34.5503 32.7163 34.5598 32.8191 34.5598 32.8191C34.5598 32.8191 34.5598 37.1546 34.5598 38.8784C34.5598 38.8818 34.5598 38.887 34.5598 38.8905C34.5598 38.8905 35.4234 40.6177 36.287 42.345V48.3905L37.1369 54.4333L44.0459 58.7541H47.5005H50.955L57.8641 54.4333L58.7139 48.3905V42.345H58.7407L60.468 38.8905V34.5455C60.4689 32.8381 59.8298 31.1385 58.5619 29.6003ZM54.4096 51.845H53.5459L51.8187 46.6632H47.5005H43.1823L41.455 51.845H40.5914L38.0005 46.6632V32.5358C40.8842 34.4756 43.8836 34.5844 47.5005 34.5697V34.5671C49.7494 34.5568 54.3154 34.5939 57.0005 32.1602V46.6632L54.4096 51.845Z" fill="#0A3631"/>
<path d="M47.5011 34.5697V24.1957C46.9544 24.1871 46.3887 24.1819 45.7876 24.1819C33.6967 24.1819 34.5604 32.8182 34.5604 32.8182C34.5604 32.8182 34.5604 37.1632 34.5604 38.8905C34.5604 38.8905 35.424 40.6177 36.2876 42.345V48.3905L37.1375 54.4333L44.0466 58.7541H47.5011V46.6632H43.1829L41.4556 51.845H40.592L38.0011 46.6632V32.5289C39.8916 33.8002 41.3995 34.593 47.5011 34.5697Z" fill="#14635B"/>
<path d="M44.9103 40.5876C44.9103 39.6342 44.1365 38.8604 43.183 38.8604C43.1813 38.8604 43.1796 38.8612 43.1778 38.8612C43.1787 38.8794 43.183 38.8966 43.183 38.9148C43.183 39.8665 42.4127 40.6386 41.4609 40.6412C41.4894 41.5696 42.2468 42.3149 43.183 42.3149C44.1365 42.3149 44.9103 41.5419 44.9103 40.5876Z" fill="#0A3631"/>
<path d="M53.5431 40.5876C53.5431 39.6342 52.7693 38.8604 51.8158 38.8604C51.8141 38.8604 51.8124 38.8612 51.8107 38.8612C51.8115 38.8794 51.8158 38.8966 51.8158 38.9148C51.8158 39.8665 51.0455 40.6386 50.0938 40.6412C50.1223 41.5696 50.8797 42.3149 51.8158 42.3149C52.7693 42.3149 53.5431 41.5419 53.5431 40.5876Z" fill="#0A3631"/>
<path d="M37.1367 58.724L38.864 57.8604L47.4874 62.1621L42.3185 67.3604L37.1367 58.724Z" fill="white"/>
<path d="M57.8663 58.724L56.139 57.8604L47.5156 62.1621L52.6845 67.3604L57.8663 58.724Z" fill="white"/>
<path d="M50.9521 75.1369L48.5347 66.3278L50.0876 64.775L47.4811 62.1633L44.8919 64.7525L46.462 66.3226L44.043 75.1369H50.9521Z" fill="#00B8A5"/>
<path d="M47.4975 75.1369V62.1797L47.4811 62.1633L44.8919 64.7525L46.462 66.3226L44.043 75.1369H47.4975Z" fill="#00D6C1"/>
<path d="M19.8633 75.1364L23.3178 65.6364C23.849 64.4852 24.7843 63.5688 25.9459 63.061L37.136 58.7273L47.4996 75.1364H19.8633Z" fill="#EA685E"/>
<path d="M75.1364 75.1364L71.6818 65.6364C71.1507 64.4852 70.2154 63.5688 69.0538 63.061L57.8636 58.7273L47.5 75.1364H75.1364Z" fill="#EA685E"/>
<path d="M65.6364 69.0876H57V70.8149H65.6364V69.0876Z" fill="white"/>
<path d="M44.043 49.2239H50.9521C50.9521 49.2239 50.9521 52.681 47.4975 52.681C44.043 52.681 44.043 49.2239 44.043 49.2239Z" fill="#D7FCF9"/>
</svg>
