<svg width="95" height="95" viewBox="0 0 95 95" fill="none" xmlns="http://www.w3.org/2000/svg">
<path d="M47.5 95C73.7335 95 95 73.7335 95 47.5C95 21.2665 73.7335 0 47.5 0C21.2665 0 0 21.2665 0 47.5C0 73.7335 21.2665 95 47.5 95Z" fill="#D5E2EB"/>
<path d="M61.747 57.5674H41.8628V61.5193H61.747V57.5674Z" fill="#FFD740"/>
<path d="M50.8107 57.5674H41.8628V61.5193H50.8107V57.5674Z" fill="#FFE57F"/>
<path d="M61.747 60.5322H41.8628V61.5202H61.747V60.5322Z" fill="#FFC400"/>
<path d="M43.8531 57.5684H42.8589V60.5323H43.8531V57.5684Z" fill="white"/>
<path d="M55.7828 57.5684H54.7886V60.5323H55.7828V57.5684Z" fill="#FFC400"/>
<path d="M57.7701 57.5674H56.7759V60.5313H57.7701V57.5674Z" fill="#FFC400"/>
<path d="M59.7586 57.5674H58.7644V60.5313H59.7586V57.5674Z" fill="#FFC400"/>
<path d="M61.7469 57.5674H60.7527V60.5313H61.7469V57.5674Z" fill="#FFC400"/>
<path d="M60.7509 53.6152H40.8667V57.5672H60.7509V53.6152Z" fill="#FFD740"/>
<path d="M49.8146 53.6152H40.8667V57.5672H49.8146V53.6152Z" fill="#FFE57F"/>
<path d="M60.7509 56.5793H40.8667V57.5673H60.7509V56.5793Z" fill="#FFC400"/>
<path d="M42.8531 53.6152H41.8589V56.5792H42.8531V53.6152Z" fill="white"/>
<path d="M54.7867 53.6152H53.7925V56.5792H54.7867V53.6152Z" fill="#FFC400"/>
<path d="M56.775 53.6152H55.7808V56.5792H56.775V53.6152Z" fill="#FFC400"/>
<path d="M58.7633 53.6152H57.769V56.5792H58.7633V53.6152Z" fill="#FFC400"/>
<path d="M60.7515 53.6152H59.7573V56.5792H60.7515V53.6152Z" fill="#FFC400"/>
<path d="M45.0724 38.4949C41.3909 34.8354 41.3909 28.8819 45.0724 25.2204C48.756 21.5619 54.7471 21.5619 58.4306 25.2204C62.1132 28.8809 62.1132 34.8345 58.4306 38.4949C54.7481 42.1554 48.756 42.1544 45.0724 38.4949Z" fill="#FFD740"/>
<path d="M51.8041 22.988C56.7384 22.988 60.752 26.9765 60.752 31.8798C60.752 36.7831 56.7384 40.7716 51.8041 40.7716C46.8699 40.7716 42.8563 36.7831 42.8563 31.8798C42.8563 26.9765 46.8699 22.988 51.8041 22.988ZM51.8041 22C46.3131 22 41.8621 26.4242 41.8621 31.8798C41.8621 37.3354 46.3131 41.7596 51.8041 41.7596C57.2952 41.7596 61.7462 37.3354 61.7462 31.8798C61.7462 26.4242 57.2952 22 51.8041 22Z" fill="#FDD835"/>
<path d="M44.0391 37.1419C42.4821 33.5398 43.1681 29.2114 46.1279 26.2682C49.2428 23.1739 53.9026 22.5771 57.6289 24.4503C57.6289 24.3446 57.6309 24.2399 57.6369 24.1352C53.8072 21.8055 48.7397 22.2758 45.425 25.5697C42.2594 28.7155 41.6768 33.4538 43.6732 37.1884C43.7945 37.1696 43.9158 37.1518 44.0391 37.1419Z" fill="white"/>
<path d="M51.803 39.2892C47.691 39.2892 44.3464 35.9656 44.3464 31.8793C44.3464 27.793 47.691 24.4695 51.803 24.4695C55.9151 24.4695 59.2596 27.793 59.2596 31.8793C59.2596 35.9656 55.9151 39.2892 51.803 39.2892Z" fill="#FFE57F"/>
<path d="M51.804 24.9641C55.6407 24.9641 58.7635 28.0673 58.7635 31.8799C58.7635 35.6925 55.6407 38.7958 51.804 38.7958C47.9674 38.7958 44.8446 35.6925 44.8446 31.8799C44.8446 28.0673 47.9674 24.9641 51.804 24.9641ZM51.804 23.9761C47.4116 23.9761 43.8503 27.517 43.8503 31.8799C43.8503 36.2428 47.4116 39.7837 51.804 39.7837C56.1964 39.7837 59.7577 36.2428 59.7577 31.8799C59.7577 27.517 56.1964 23.9761 51.804 23.9761Z" fill="#FFC400"/>
<path d="M51.8041 22.988C56.7384 22.988 60.752 26.9765 60.752 31.8798C60.752 36.7831 56.7384 40.7716 51.8041 40.7716C46.8699 40.7716 42.8563 36.7831 42.8563 31.8798C42.8563 26.9765 46.8699 22.988 51.8041 22.988ZM51.8041 22C46.3131 22 41.8621 26.4242 41.8621 31.8798C41.8621 37.3354 46.3131 41.7596 51.8041 41.7596C57.2952 41.7596 61.7462 37.3354 61.7462 31.8798C61.7462 26.4242 57.2952 22 51.8041 22Z" fill="#FFC400"/>
<path d="M61.747 41.7598H41.8628V45.7117H61.747V41.7598Z" fill="#FFD740"/>
<path d="M50.8107 41.7598H41.8628V45.7117H50.8107V41.7598Z" fill="#FFE57F"/>
<path d="M61.747 44.7234H41.8628V45.7114H61.747V44.7234Z" fill="#FFC400"/>
<path d="M43.8531 41.7595H42.8589V44.7235H43.8531V41.7595Z" fill="white"/>
<path d="M55.7828 41.7595H54.7886V44.7235H55.7828V41.7595Z" fill="#FFC400"/>
<path d="M57.7701 41.7598H56.7759V44.7237H57.7701V41.7598Z" fill="#FFC400"/>
<path d="M59.7586 41.7598H58.7644V44.7237H59.7586V41.7598Z" fill="#FFC400"/>
<path d="M61.7469 41.7598H60.7527V44.7237H61.7469V41.7598Z" fill="#FFC400"/>
<path d="M60.7509 45.7114H40.8667V49.6633H60.7509V45.7114Z" fill="#FFD740"/>
<path d="M49.8146 45.7114H40.8667V49.6633H49.8146V45.7114Z" fill="#FFE57F"/>
<path d="M60.7509 48.676H40.8667V49.664H60.7509V48.676Z" fill="#FFC400"/>
<path d="M42.8531 45.7119H41.8589V48.6759H42.8531V45.7119Z" fill="white"/>
<path d="M54.7867 45.7119H53.7925V48.6759H54.7867V45.7119Z" fill="#FFC400"/>
<path d="M56.775 45.7119H55.7808V48.6759H56.775V45.7119Z" fill="#FFC400"/>
<path d="M58.7633 45.7119H57.769V48.6759H58.7633V45.7119Z" fill="#FFC400"/>
<path d="M60.7515 45.7119H59.7573V48.6759H60.7515V45.7119Z" fill="#FFC400"/>
<path d="M61.747 49.6636H41.8628V53.6155H61.747V49.6636Z" fill="#FFD740"/>
<path d="M50.8107 49.6636H41.8628V53.6155H50.8107V49.6636Z" fill="#FFE57F"/>
<path d="M61.747 52.6267H41.8628V53.6147H61.747V52.6267Z" fill="#FFC400"/>
<path d="M43.8531 49.6628H42.8589V52.6268H43.8531V49.6628Z" fill="white"/>
<path d="M55.7828 49.6628H54.7886V52.6268H55.7828V49.6628Z" fill="#FFC400"/>
<path d="M57.7701 49.6636H56.7759V52.6275H57.7701V49.6636Z" fill="#FFC400"/>
<path d="M59.7586 49.6636H58.7644V52.6275H59.7586V49.6636Z" fill="#FFC400"/>
<path d="M61.7469 49.6636H60.7527V52.6275H61.7469V49.6636Z" fill="#FFC400"/>
<path opacity="0.1" d="M60.7493 59.4868C60.7205 59.4947 60.6877 59.5026 60.6877 59.5026L59.6995 59.5431C59.6995 59.5431 58.3593 54.6032 52.733 54.6032H45.8183L43.8478 53.6152H41.8594V57.5672H43.8478V60.5311V61.5191H52.7957H60.7493V59.4868Z" fill="#37474F"/>
<path d="M40.8039 61.5192H58.7613C58.7613 60.5312 58.7613 55.5913 51.7392 55.5913H40.8029C39.1565 55.5913 37.8203 56.9192 37.8203 58.5552C37.8203 60.1913 39.1565 61.5192 40.8039 61.5192Z" fill="#F4D0A1"/>
<path d="M58.7233 60.6953C56.2924 61.1824 53.793 61.5193 53.793 61.5193H58.764C58.764 61.3484 58.76 61.0559 58.7233 60.6953Z" fill="#F4D0A1"/>
<path d="M69.6986 54.6032C66.6245 56.4359 64.7276 58.5551 62.7391 59.5698C62.1028 59.8938 60.9575 60.21 59.6949 60.4906C59.7356 60.8206 59.7565 61.1634 59.7565 61.5191V62.5071H58.7623H42.855V61.5191H53.7913L44.8434 59.5431L45.8376 56.5792C45.8376 56.5792 43.8492 53.6152 37.8839 53.6152C32.9129 53.6152 31.9187 55.5912 29.9302 55.5912H21.9766V68.4349H32.9129L48.8918 72.8463C49.9496 73.1377 51.6149 73.0004 52.6101 72.539L65.7218 66.459L75.6638 57.5672C76.6581 56.5792 74.6696 51.6393 69.6986 54.6032Z" fill="#F4D0A1"/>
<path d="M69.6986 56.5801C66.716 58.556 64.7275 60.532 62.7391 61.5466C62.1138 61.8658 60.9953 62.0792 59.7565 62.2224V62.5079H58.7623H54.1561C53.9294 62.5089 53.7912 62.5079 53.7912 62.5079H42.8549V61.52H50.8086H58.7623C58.7623 60.532 58.2423 57.568 51.7402 57.568H44.8255C43.7 56.7055 41.5426 55.5921 37.8839 55.5921C32.9129 55.5921 31.9187 57.568 29.9302 57.568H21.9766V68.4358H32.9129L48.8918 72.8471C49.9496 73.1386 51.6149 73.0013 52.6101 72.5399L65.7218 66.4599L75.6638 57.568C76.6581 56.5801 75.6638 52.6281 69.6986 56.5801Z" fill="#EDBC7C"/>
<path d="M57.7679 60.5313C57.7679 58.8952 56.4317 57.5674 54.7853 57.5674C53.1389 57.5674 52.7969 58.8952 52.7969 60.5313C52.7969 60.8801 52.8178 61.2091 52.8575 61.5193H57.586C57.6963 61.2091 57.7679 60.8801 57.7679 60.5313Z" fill="#F6D9B4"/>
<path d="M29.9318 54.6033H26.9492V69.423H29.9318V54.6033Z" fill="#CFD8DC"/>
<path d="M29.9318 58.5552H26.9492V69.423H29.9318V58.5552Z" fill="#B0BEC5"/>
<path d="M26.9479 53.6152H18V72.3868H26.9479V53.6152Z" fill="#546E7A"/>
<path d="M26.9479 58.5552H18V72.3869H26.9479V58.5552Z" fill="#455A64"/>
</svg>
