<svg width="44" height="44" viewBox="0 0 44 44" fill="none" xmlns="http://www.w3.org/2000/svg">
<path d="M22 44C34.1503 44 44 34.1503 44 22C44 9.84974 34.1503 0 22 0C9.84974 0 0 9.84974 0 22C0 34.1503 9.84974 44 22 44Z" fill="#D5E2EB"/>
<path d="M30.8747 12H12.1248V31H30.8747V12Z" fill="#F1F5F7"/>
<path d="M21.5002 23.498L30.875 31V16.1895L21.5002 23.498Z" fill="#DCE6EA"/>
<path d="M31.656 12H30.8748L21.5001 19.5019L12.1249 12H11.3437C10.0501 12 9 13.0639 9 14.375V28.6249C9 29.9358 10.0501 30.9999 11.3437 30.9999H12.1249V16.1894L21.5001 23.4964L30.8748 16.1877V30.9999H31.656C32.95 30.9999 34 29.9357 34 28.6249V14.375C34.0001 13.0639 32.95 12 31.656 12Z" fill="#F84437"/>
</svg>
