<svg width="30" height="24" viewBox="0 0 30 24" fill="none" xmlns="http://www.w3.org/2000/svg">
<path d="M1.63818 0H28.3618C29.2651 0.00561535 30 0.856341 30 1.89518V22.1048C30 23.1465 29.2578 24 28.3521 24H1.63818C0.737305 23.9944 0 23.1437 0 22.1048V1.89518C0 0.856341 0.734863 0.00561535 1.63818 0Z" fill="#FF9933"/>
<path d="M0 7.99902H30V16.0009H0V7.99902Z" fill="white"/>
<path d="M0 16.0007H30V22.1046C30 23.1463 29.2578 23.9998 28.3521 23.9998H1.63818C0.737305 23.9942 0 23.1435 0 22.1046V16.0007Z" fill="#128807"/>
<path d="M17.7832 12.0001C17.7832 10.2312 16.5381 8.79932 15 8.79932C13.4619 8.79932 12.2168 10.2312 12.2168 12.0001C12.2168 13.7661 13.4619 15.2008 15 15.2008C16.5381 15.2008 17.7832 13.7689 17.7832 12.0001Z" fill="#000088"/>
<path d="M17.4334 11.9999C17.4334 10.4529 16.3445 9.20068 14.9993 9.20068C13.6541 9.20068 12.5652 10.4529 12.5652 11.9999C12.5652 13.547 13.6541 14.7992 14.9993 14.7992C16.3445 14.7992 17.4334 13.547 17.4334 11.9999Z" fill="white"/>
<path d="M15.4868 11.9998C15.4868 11.6909 15.2695 11.4382 15.001 11.4382C14.7324 11.4382 14.5151 11.6881 14.5151 11.9998C14.5151 12.3086 14.7324 12.5585 15.001 12.5585C15.2695 12.5585 15.4868 12.3086 15.4868 11.9998Z" fill="#000088"/>
<path d="M17.5362 12.3847C17.5459 12.3089 17.4971 12.2387 17.4312 12.2275C17.3653 12.2163 17.3042 12.2724 17.2945 12.3482C17.2847 12.424 17.3335 12.4942 17.3994 12.5055C17.4678 12.5139 17.5288 12.4605 17.5362 12.3847Z" fill="#000088"/>
<path d="M14.9993 14.7992L15.0823 13.1203L14.9993 12.3201L14.9163 13.1203L14.9993 14.7992Z" fill="#000088"/>
<path d="M17.3595 13.1259C17.3863 13.0557 17.3546 12.9715 17.2936 12.9434C17.2325 12.9125 17.1593 12.9491 17.1349 13.0192C17.108 13.0894 17.1397 13.1737 17.2008 13.2017C17.2643 13.2298 17.3351 13.1961 17.3595 13.1259Z" fill="black"/>
<path d="M14.3713 14.7038L14.8303 13.1062L14.9304 12.3088L14.6692 13.0585L14.3713 14.7038Z" fill="black"/>
<path d="M17.0299 13.7913C17.0714 13.7295 17.0616 13.6425 17.0079 13.5947C16.9542 13.547 16.8785 13.5582 16.837 13.62C16.7955 13.6818 16.8052 13.7688 16.859 13.8166C16.9127 13.8643 16.9884 13.8502 17.0299 13.7913Z" fill="black"/>
<path d="M13.7832 14.4257L14.5864 13.0191L14.8623 12.2778L14.4424 12.9208L13.7832 14.4257Z" fill="black"/>
<path d="M16.5545 14.3332C16.6082 14.2854 16.618 14.1984 16.5765 14.1366C16.535 14.0749 16.4593 14.0636 16.4056 14.1114C16.3519 14.1591 16.3421 14.2461 16.3836 14.3079C16.4251 14.3668 16.5032 14.3809 16.5545 14.3332Z" fill="black"/>
<path d="M13.2793 13.9795L14.3706 12.8593L14.8027 12.2275L14.2534 12.7245L13.2793 13.9795Z" fill="black"/>
<path d="M15.9793 14.7179C16.0404 14.687 16.0721 14.6055 16.0453 14.5354C16.0184 14.4652 15.9476 14.4287 15.8866 14.4595C15.8255 14.4876 15.7938 14.5719 15.8207 14.642C15.8451 14.7122 15.9159 14.7459 15.9793 14.7179Z" fill="black"/>
<path d="M12.8901 13.4009L14.1987 12.6428L14.7578 12.1599L14.1133 12.4772L12.8901 13.4009Z" fill="black"/>
<path d="M15.3333 14.9143C15.3992 14.9031 15.4456 14.8329 15.4383 14.7571C15.4285 14.6813 15.3675 14.6279 15.3015 14.6364C15.2356 14.6476 15.1892 14.7178 15.1966 14.7936C15.2039 14.8722 15.2649 14.9256 15.3333 14.9143Z" fill="black"/>
<path d="M12.6482 12.7244L14.0813 12.3818L14.7307 12.0842L14.0374 12.1965L12.6482 12.7244Z" fill="black"/>
<path d="M14.6665 14.9142C14.7324 14.9254 14.7935 14.8692 14.8033 14.7934C14.813 14.7176 14.7642 14.6474 14.6983 14.6362C14.6324 14.625 14.5713 14.6811 14.5616 14.7569C14.5542 14.8355 14.6006 14.9057 14.6665 14.9142Z" fill="black"/>
<path d="M12.5652 12L14.0251 12.0955L14.7209 12L14.0251 11.9045L12.5652 12Z" fill="black"/>
<path d="M14.0196 14.7179C14.0806 14.7487 14.1539 14.7122 14.1783 14.642C14.2027 14.5719 14.1734 14.4876 14.1124 14.4595C14.0513 14.4287 13.9781 14.4652 13.9537 14.5354C13.9293 14.6055 13.9586 14.687 14.0196 14.7179Z" fill="black"/>
<path d="M12.6482 11.2754L14.0374 11.8032L14.7307 11.9183L14.0813 11.6179L12.6482 11.2754Z" fill="black"/>
<path d="M13.4409 14.3332C13.4946 14.3809 13.5703 14.3697 13.6118 14.3079C13.6533 14.2461 13.6436 14.1591 13.5898 14.1114C13.5361 14.0636 13.4605 14.0749 13.4189 14.1366C13.3799 14.1984 13.3897 14.2854 13.4409 14.3332Z" fill="black"/>
<path d="M12.8901 10.5989L14.1133 11.5226L14.7578 11.8399L14.1987 11.3569L12.8901 10.5989Z" fill="black"/>
<path d="M12.9713 13.7913C13.0128 13.8531 13.0885 13.8643 13.1422 13.8166C13.1959 13.7688 13.2056 13.6818 13.1641 13.62C13.1226 13.5582 13.0469 13.547 12.9932 13.5947C12.942 13.6397 12.9298 13.7295 12.9713 13.7913Z" fill="black"/>
<path d="M13.2793 10.0208L14.2534 11.2758L14.8027 11.7755L14.3706 11.141L13.2793 10.0208Z" fill="black"/>
<path d="M12.6351 13.1259C12.6619 13.1961 12.7327 13.2326 12.7938 13.2017C12.8548 13.1709 12.8865 13.0894 12.8597 13.0192C12.8328 12.9491 12.762 12.9125 12.701 12.9434C12.6399 12.9715 12.6107 13.0529 12.6351 13.1259Z" fill="black"/>
<path d="M13.7832 9.57397L14.4424 11.0789L14.8623 11.7218L14.5864 10.9834L13.7832 9.57397Z" fill="black"/>
<path d="M12.4661 12.3847C12.4759 12.4605 12.5369 12.5138 12.6029 12.5054C12.6688 12.4942 12.7152 12.424 12.7078 12.3482C12.6981 12.2724 12.637 12.219 12.5711 12.2274C12.5028 12.2359 12.4564 12.3061 12.4661 12.3847Z" fill="black"/>
<path d="M14.3713 9.29639L14.6692 10.9445L14.9304 11.6913L14.8303 10.894L14.3713 9.29639Z" fill="black"/>
<path d="M12.4663 11.6153C12.4566 11.6911 12.5054 11.7613 12.5713 11.7725C12.6372 11.7837 12.6983 11.7276 12.708 11.6518C12.7178 11.5759 12.669 11.5058 12.6031 11.4945C12.5347 11.4861 12.4737 11.5394 12.4663 11.6153Z" fill="black"/>
<path d="M14.9993 9.20068L14.9163 10.8797L14.9993 11.6799L15.0823 10.8797L14.9993 9.20068Z" fill="black"/>
<path d="M12.6407 10.874C12.6139 10.9442 12.6456 11.0285 12.7066 11.0565C12.7677 11.0846 12.8409 11.0509 12.8653 10.9807C12.8922 10.9105 12.8604 10.8263 12.7994 10.7982C12.7359 10.7701 12.6651 10.8038 12.6407 10.874Z" fill="black"/>
<path d="M15.6306 9.29639L15.1716 10.894L15.0715 11.6913L15.3328 10.9445L15.6306 9.29639Z" fill="black"/>
<path d="M12.971 10.2116C12.9295 10.2733 12.9393 10.3604 12.993 10.4081C13.0467 10.4558 13.1224 10.4446 13.1639 10.3828C13.2054 10.3211 13.1956 10.234 13.1419 10.1863C13.0882 10.1386 13.0125 10.1498 12.971 10.2116Z" fill="black"/>
<path d="M16.2175 9.57397L15.4143 10.9834L15.1384 11.7218L15.5584 11.0789L16.2175 9.57397Z" fill="black"/>
<path d="M13.4444 9.6668C13.3907 9.71453 13.3809 9.80157 13.4224 9.86334C13.4639 9.9251 13.5396 9.93633 13.5933 9.8886C13.647 9.84087 13.6568 9.75384 13.6153 9.69207C13.5738 9.6303 13.4957 9.62188 13.4444 9.6668Z" fill="black"/>
<path d="M16.7202 10.0208L15.6289 11.141L15.1968 11.7755L15.7461 11.2758L16.7202 10.0208Z" fill="black"/>
<path d="M14.0196 9.28489C13.9586 9.31577 13.9293 9.3972 13.9537 9.46739C13.9805 9.53758 14.0513 9.57408 14.1124 9.54319C14.1734 9.51231 14.2051 9.43089 14.1783 9.3607C14.1539 9.2877 14.0831 9.254 14.0196 9.28489Z" fill="black"/>
<path d="M17.1111 10.5989L15.8025 11.3569L15.2434 11.8399L15.8879 11.5226L17.1111 10.5989Z" fill="black"/>
<path d="M14.6665 9.08542C14.6006 9.09665 14.5542 9.16684 14.5616 9.24265C14.5713 9.31845 14.6324 9.3718 14.6983 9.36338C14.7642 9.35215 14.813 9.28195 14.8033 9.20615C14.7959 9.13034 14.7349 9.07419 14.6665 9.08542Z" fill="black"/>
<path d="M17.3518 11.2754L15.9187 11.6179L15.2693 11.9183L15.9626 11.8032L17.3518 11.2754Z" fill="black"/>
<path d="M15.334 9.08542C15.2681 9.07419 15.2071 9.13034 15.1973 9.20615C15.1875 9.28195 15.2364 9.35214 15.3023 9.36337C15.3682 9.37461 15.4292 9.31845 15.439 9.24265C15.4463 9.16684 15.3999 9.09384 15.334 9.08542Z" fill="black"/>
<path d="M17.4343 12L15.9744 11.9045L15.2786 12L15.9744 12.0955L17.4343 12Z" fill="black"/>
<path d="M15.9793 9.28499C15.9183 9.2541 15.8451 9.2906 15.8207 9.36079C15.7938 9.43099 15.8255 9.51522 15.8866 9.54329C15.9476 9.57137 16.0208 9.53768 16.0453 9.46749C16.0697 9.39449 16.0404 9.31306 15.9793 9.28499Z" fill="black"/>
<path d="M17.3518 12.7244L15.9626 12.1965L15.2693 12.0842L15.9187 12.3818L17.3518 12.7244Z" fill="black"/>
<path d="M16.5545 9.66677C16.5008 9.61904 16.4251 9.63027 16.3836 9.69204C16.3421 9.75381 16.3519 9.84085 16.4056 9.88858C16.4593 9.93631 16.535 9.92508 16.5765 9.86331C16.618 9.80154 16.6082 9.7145 16.5545 9.66677Z" fill="black"/>
<path d="M17.1111 13.4009L15.8879 12.4772L15.2434 12.1599L15.8025 12.6428L17.1111 13.4009Z" fill="black"/>
<path d="M17.0299 10.2116C16.9884 10.1498 16.9127 10.1386 16.859 10.1863C16.8052 10.234 16.7955 10.3211 16.837 10.3828C16.8785 10.4446 16.9542 10.4558 17.0079 10.4081C17.0592 10.3604 17.0714 10.2705 17.0299 10.2116Z" fill="black"/>
<path d="M16.7202 13.9795L15.7461 12.7245L15.1968 12.2275L15.6289 12.8593L16.7202 13.9795Z" fill="black"/>
<path d="M17.3641 10.8742C17.3373 10.804 17.2665 10.7675 17.2054 10.7984C17.1444 10.8293 17.1126 10.9107 17.1395 10.9809C17.1664 11.0511 17.2372 11.0848 17.2982 11.0567C17.3592 11.0286 17.3885 10.9472 17.3641 10.8742Z" fill="black"/>
<path d="M16.2175 14.4257L15.5584 12.9208L15.1384 12.2778L15.4143 13.0191L16.2175 14.4257Z" fill="black"/>
<path d="M17.5345 11.6153C17.5247 11.5394 17.4637 11.4861 17.3977 11.4945C17.3318 11.5058 17.2854 11.576 17.2928 11.6518C17.3025 11.7276 17.3636 11.7809 17.4295 11.7725C17.4978 11.7641 17.5442 11.6939 17.5345 11.6153Z" fill="black"/>
<path d="M15.6306 14.7038L15.3328 13.0585L15.0715 12.3088L15.1716 13.1062L15.6306 14.7038Z" fill="black"/>
</svg>
