<svg width="113" height="63" viewBox="0 0 113 63" fill="none" xmlns="http://www.w3.org/2000/svg">
<path d="M112.126 50.9384C112.126 47.7473 110.812 44.6869 108.472 42.4304C106.133 40.174 102.96 38.9063 99.651 38.9063C98.4394 38.9054 97.2345 39.0791 96.0762 39.4217C96.6234 35.8037 96.3571 32.1144 95.2953 28.6045C94.2336 25.0945 92.4012 21.8459 89.9226 19.0794C87.4441 16.3128 84.3774 14.0931 80.9307 12.5708C77.484 11.0485 73.738 10.2593 69.9472 10.2568C68.3149 10.2603 66.6865 10.4091 65.0826 10.7011C62.483 6.57245 58.561 3.37184 53.9091 1.58268C49.2572 -0.206478 44.128 -0.487026 39.2962 0.783418C34.4645 2.05386 30.1925 4.8063 27.1256 8.625C24.0587 12.4437 22.3635 17.1212 22.2959 21.9512H21.909C19.0626 21.8704 16.2284 22.3413 13.5741 23.3361C10.9199 24.3309 8.4996 25.8293 6.45663 27.7427C4.41367 29.656 2.78954 31.9453 1.68049 34.4749C0.571434 37.0046 0 39.7232 0 42.4697C0 45.2163 0.571434 47.9349 1.68049 50.4645C2.78954 52.9942 4.41367 55.2835 6.45663 57.1968C8.4996 59.1101 10.9199 60.6085 13.5741 61.6033C16.2284 62.5982 19.0626 63.0691 21.909 62.9883H100.001C103.252 62.9003 106.338 61.5914 108.603 59.3406C110.868 57.0898 112.132 54.0749 112.126 50.9384Z" fill="#F5F5F5"/>
</svg>
