<svg width="50" height="50" viewBox="0 0 50 50" fill="none" xmlns="http://www.w3.org/2000/svg">
<path d="M25 50C38.8071 50 50 38.8071 50 25C50 11.1929 38.8071 0 25 0C11.1929 0 0 11.1929 0 25C0 38.8071 11.1929 50 25 50Z" fill="#6C63FF"/>
<path d="M39.9377 27.0121V37.319H33.962V27.7028C33.962 25.2883 33.0992 23.6394 30.9356 23.6394C29.2844 23.6394 28.3036 24.7495 27.8704 25.8244C27.7131 26.2086 27.6725 26.742 27.6725 27.2808V37.3186H21.6964C21.6964 37.3186 21.7766 21.0319 21.6964 19.346H27.673V21.8929C27.6609 21.913 27.644 21.9326 27.6333 21.9517H27.673V21.8929C28.4671 20.6709 29.8834 18.924 33.0586 18.924C36.9901 18.924 39.9377 21.4927 39.9377 27.0121ZM15.4448 10.6826C13.4006 10.6826 12.0632 12.0245 12.0632 13.7875C12.0632 15.513 13.3619 16.8936 15.3664 16.8936H15.4052C17.4895 16.8936 18.7854 15.513 18.7854 13.7875C18.7457 12.0245 17.4894 10.6826 15.4448 10.6826ZM12.4184 37.319H18.3923V19.346H12.4184V37.319Z" fill="#F1F2F2"/>
</svg>
