<svg width="44" height="44" viewBox="0 0 44 44" fill="none" xmlns="http://www.w3.org/2000/svg">
<path d="M22 44C34.1503 44 44 34.1503 44 22C44 9.84974 34.1503 0 22 0C9.84974 0 0 9.84974 0 22C0 34.1503 9.84974 44 22 44Z" fill="#D5E2EB"/>
<path d="M22.0911 9.55273C16.5751 9.55273 12.1001 14.0137 12.1001 19.5142C12.1001 25.9118 19.2938 33.8967 20.4264 35.1181C20.8947 35.6234 21.2845 36.1167 22.0913 36.1167C22.8982 36.1167 23.2878 35.6234 23.756 35.1181C24.8885 33.8968 32.0834 25.912 32.0834 19.5142C32.0833 14.0137 27.6071 9.55273 22.0911 9.55273Z" fill="#C91E01"/>
<path d="M22.0911 7.8833C16.5751 7.8833 12.1001 12.3443 12.1001 17.8448C12.1001 24.2424 19.2938 32.2272 20.4264 33.4487C20.8947 33.954 21.2845 34.4473 22.0913 34.4473C22.8982 34.4473 23.2878 33.954 23.756 33.4487C24.8885 32.2274 32.0834 24.2426 32.0834 17.8448C32.0833 12.3443 27.6071 7.8833 22.0911 7.8833Z" fill="#EA3B28"/>
<path d="M22.0914 24.4854C25.7702 24.4854 28.7524 21.5121 28.7524 17.8445C28.7524 14.1768 25.7702 11.2036 22.0914 11.2036C18.4126 11.2036 15.4304 14.1768 15.4304 17.8445C15.4304 21.5121 18.4126 24.4854 22.0914 24.4854Z" fill="white"/>
<path d="M22.091 12.8369C19.3206 12.8369 17.0676 15.0806 17.0676 17.8448C17.0676 20.6089 19.3203 22.8522 22.091 22.8522C24.8616 22.8522 27.114 20.6089 27.114 17.8448C27.114 15.0803 24.8616 12.8369 22.091 12.8369Z" fill="#0F627F"/>
</svg>
