<svg width="1520" height="607" viewBox="0 0 1520 607" fill="none" xmlns="http://www.w3.org/2000/svg">
<path d="M1224.98 71.251C1015.83 45.2742 1028.04 233.832 770.438 254.313C513.13 274.772 343.851 -34.2259 119.324 103.477L53.3056 162L0 234.5V607H1298.64H1520V254.313C1499.78 227.837 1392.3 92.0324 1224.98 71.251Z" fill="#FF735C"/>
<path d="M746.462 364.43C804.425 364.43 851.415 319.914 851.415 265C851.415 210.087 804.425 165.57 746.462 165.57C688.497 165.57 641.508 210.087 641.508 265C641.508 319.914 688.497 364.43 746.462 364.43Z" fill="#F2F2F2"/>
<path d="M736.082 107.707C739.776 106.531 742.282 104.2 741.679 102.501C741.076 100.803 737.593 100.379 733.9 101.556C730.205 102.732 727.699 105.063 728.302 106.761C728.905 108.46 732.388 108.883 736.082 107.707Z" fill="#3F3D56"/>
<path d="M720.606 118.755L757.756 102.693C757.756 102.693 820.692 80.1202 874.532 135.222C874.532 135.222 850.403 120.524 832.113 139.939C832.113 139.939 797.698 131.104 768.817 163.567C768.817 163.567 723.644 170.058 704.831 192.805C704.831 192.805 683.857 189.744 675.509 214.975C675.468 215.098 675.394 215.21 675.294 215.298C675.195 215.387 675.074 215.45 674.941 215.481C674.809 215.513 674.671 215.511 674.539 215.477C674.407 215.443 674.286 215.377 674.189 215.287C674.074 215.179 673.995 215.041 673.966 214.89C673.181 210.99 663.957 158.975 720.606 118.755Z" fill="#6C63FF"/>
<path opacity="0.2" d="M720.606 118.755L757.756 102.693C757.756 102.693 820.692 80.1202 874.532 135.222C874.532 135.222 850.403 120.524 832.113 139.939C832.113 139.939 797.698 131.104 768.817 163.567C768.817 163.567 723.644 170.058 704.831 192.805C704.831 192.805 683.857 189.744 675.509 214.975C675.468 215.098 675.394 215.21 675.294 215.298C675.195 215.387 675.074 215.45 674.941 215.481C674.809 215.513 674.671 215.511 674.539 215.477C674.407 215.443 674.286 215.377 674.189 215.287C674.074 215.179 673.995 215.041 673.966 214.89C673.181 210.99 663.957 158.975 720.606 118.755Z" fill="black"/>
<path d="M732.128 185.834L747.386 188.348L752.472 164.466L740.181 159.438L732.128 185.834Z" fill="#2F2E41"/>
<path d="M753.396 181.339C761.057 181.339 767.266 175.651 767.266 168.636C767.266 161.621 761.057 155.934 753.396 155.934C745.735 155.934 739.525 161.621 739.525 168.636C739.525 175.651 745.735 181.339 753.396 181.339Z" fill="#A0616A"/>
<path d="M747.318 175.207C747.318 175.207 748.611 190.501 738.699 191.708C728.789 192.915 747.318 220.283 752.059 219.88C756.798 219.478 765.417 190.098 765.417 190.098C765.417 190.098 754.213 182.854 758.091 176.414L747.318 175.207Z" fill="#A0616A"/>
<path d="M731.203 231.989C731.203 231.989 732.881 243.537 737.916 243.537C742.951 243.537 734.56 230.396 734.56 230.396L731.203 231.989Z" fill="#A0616A"/>
<path d="M805.901 243.537C805.901 243.537 818.758 253.543 817.043 256.745C815.329 259.947 804.188 253.143 803.331 245.138L805.901 243.537Z" fill="#A0616A"/>
<path d="M728.474 282.083L720.108 311.003L710.86 346.033H719.666C719.666 346.033 722.75 335.036 728.474 329.333C728.474 329.333 734.198 320.372 734.198 314.262L747.849 284.527L728.474 282.083Z" fill="#A0616A"/>
<path d="M763.567 284.668L766.148 311.54C766.148 311.54 765.718 330.792 766.148 335.204C766.578 339.615 766.148 346.033 766.148 346.033H773.89C773.89 346.033 781.202 322.369 779.051 309.535L782.062 279.454L763.567 284.668Z" fill="#A0616A"/>
<path d="M752.918 209.71C752.918 209.71 741.487 201.044 744.444 188.939C744.444 188.939 732.977 189.416 728.309 193.881C723.641 198.346 729.582 213.363 729.582 213.363C729.582 213.363 739.765 229.599 738.068 236.905C736.37 244.21 718.125 282.77 724.066 285.205C730.006 287.64 766.073 296.164 784.318 281.958C784.318 281.958 788.984 241.775 770.315 228.787V218.64C770.315 218.64 773.709 215.799 772.012 208.493C772.012 208.493 779.226 195.91 774.982 193.475C770.739 191.04 760.993 187.471 760.993 187.471C760.993 187.471 761.829 205.651 752.918 209.71Z" fill="#2F2E41"/>
<path d="M730.673 193.628C730.673 193.628 725.089 192.819 719.505 200.508C713.921 208.198 699.317 220.34 706.189 226.411C713.062 232.482 731.532 236.529 731.532 236.529L735.827 229.244L717.357 220.745L732.821 209.817L730.673 193.628Z" fill="#2F2E41"/>
<path d="M773 193.604C773 193.604 779.041 193.604 781.63 200.461C784.22 207.318 799.324 230.712 799.324 230.712L807.954 243.216L801.912 249.67L785.083 231.922L769.116 207.318L773 193.604Z" fill="#2F2E41"/>
<path d="M721.654 345.157H709.328L706.687 364.766C706.687 364.766 699.644 375.17 710.209 373.97C720.774 372.769 717.252 361.965 717.252 361.965L719.893 357.963L720.774 366.367L721.654 365.966V356.762C721.654 356.762 726.496 352.761 721.654 345.157Z" fill="#2F2E41"/>
<path d="M775.59 345.083L764.797 344.281L762.721 366.732C762.721 366.732 761.476 375.152 768.948 373.949C776.419 372.746 773.929 365.931 773.929 365.931V353.502L775.59 345.083Z" fill="#2F2E41"/>
<path d="M743.613 155.508C743.613 155.508 737.346 157.457 737.029 165.154C736.996 166.385 737.143 167.615 737.463 168.809C737.816 170.205 738.043 173.207 735.308 177.131C733.478 179.721 731.805 182.406 730.298 185.173L730.278 185.209L737.16 186.012L738.625 175.367C739.334 170.206 740.854 165.171 743.136 160.423L743.183 160.324C743.183 160.324 746.194 165.542 752.217 165.542L750.066 163.535C750.066 163.535 759.53 167.148 762.971 167.148C762.971 167.148 765.552 168.753 762.971 171.161C760.39 173.57 755.228 179.189 758.239 183.604C761.25 188.019 758.67 189.223 758.67 189.223L763.402 186.815L765.552 185.611V187.216L776.736 186.012C776.736 186.012 779.748 185.611 773.295 178.787C773.295 178.787 771.591 176.138 772.337 173.852C772.949 172.115 773.11 170.268 772.807 168.461C771.361 160.937 765.689 145.977 743.613 155.508Z" fill="#2F2E41"/>
<path d="M810.807 256.342C815.065 252.261 810.349 243.811 809.98 243.168L761.346 149.59C761.197 149.307 760.935 149.091 760.618 148.989C760.302 148.888 759.954 148.909 759.654 149.047C759.353 149.186 759.123 149.432 759.014 149.73C758.904 150.028 758.925 150.355 759.071 150.639L807.73 244.264L807.744 244.288C807.792 244.371 812.488 252.775 808.306 255.183C803.801 257.778 798.549 253.574 798.497 253.531C798.37 253.429 798.225 253.35 798.066 253.301C797.909 253.251 797.742 253.231 797.575 253.243C797.41 253.254 797.248 253.296 797.099 253.366C796.951 253.437 796.818 253.534 796.709 253.653C796.6 253.771 796.517 253.909 796.465 254.058C796.412 254.207 796.392 254.364 796.404 254.521C796.416 254.677 796.462 254.83 796.537 254.97C796.612 255.11 796.715 255.235 796.841 255.337C797.112 255.558 803.563 260.713 809.627 257.219C810.057 256.973 810.453 256.679 810.807 256.342Z" fill="#3F3D56"/>
<path d="M717.008 112.618L752.794 97.242C752.794 97.242 813.422 75.6326 865.285 128.382C865.285 128.382 842.041 114.311 824.424 132.897C824.424 132.897 791.271 124.44 763.449 155.516C763.449 155.516 719.935 161.729 701.812 183.505C701.812 183.505 680.979 180.484 673.202 205.868L672.126 204.87C672.126 204.87 660.279 152.643 717.008 112.618Z" fill="#6C63FF"/>
<path d="M717.333 113.008C717.333 113.008 700.679 168.646 702.71 183.966L717.333 113.008Z" fill="#3F3D56"/>
<path d="M735.827 104.248C735.827 104.248 757.991 151.854 763.568 155.934L735.827 104.248Z" fill="#3F3D56"/>
<path d="M752.472 97.2393C752.472 97.2393 809.572 129.525 824.598 133.157L752.472 97.2393Z" fill="#3F3D56"/>
<path d="M667.426 367.058C667.32 366.898 664.839 363.05 663.978 355.058C663.19 347.726 663.698 335.368 670.598 318.128C683.67 285.47 667.585 259.12 667.421 258.857L668.214 258.43C668.255 258.496 672.406 265.215 674.858 275.912C678.097 290.096 676.918 304.843 671.457 318.425C658.407 351.028 668.109 366.462 668.209 366.614L667.426 367.058Z" fill="#3F3D56"/>
<path d="M662.313 257.553C665.632 257.553 668.324 255.004 668.324 251.859C668.324 248.714 665.632 246.165 662.313 246.165C658.994 246.165 656.302 248.714 656.302 251.859C656.302 255.004 658.994 257.553 662.313 257.553Z" fill="#3F3D56"/>
<path d="M680.807 277.703C684.127 277.703 686.818 275.153 686.818 272.009C686.818 268.864 684.127 266.314 680.807 266.314C677.487 266.314 674.797 268.864 674.797 272.009C674.797 275.153 677.487 277.703 680.807 277.703Z" fill="#3F3D56"/>
<path d="M667.862 291.719C671.182 291.719 673.872 289.169 673.872 286.024C673.872 282.879 671.182 280.33 667.862 280.33C664.542 280.33 661.852 282.879 661.852 286.024C661.852 289.169 664.542 291.719 667.862 291.719Z" fill="#6C63FF"/>
<path d="M683.119 302.231C686.183 302.231 688.668 299.878 688.668 296.975C688.668 294.072 686.183 291.719 683.119 291.719C680.055 291.719 677.571 294.072 677.571 296.975C677.571 299.878 680.055 302.231 683.119 302.231Z" fill="#6C63FF"/>
<path d="M663.7 320.628C667.274 320.628 670.173 318.274 670.173 315.371C670.173 312.469 667.274 310.115 663.7 310.115C660.125 310.115 657.227 312.469 657.227 315.371C657.227 318.274 660.125 320.628 663.7 320.628Z" fill="#3F3D56"/>
<path d="M671.132 367.058C671.132 367.058 665.138 353.542 683.119 343.405L671.132 367.058Z" fill="#3F3D56"/>
<path d="M663.701 367.058C663.701 367.058 660.949 352.921 639.658 353.042L663.701 367.058Z" fill="#3F3D56"/>
<path d="M628.567 0L648.905 10.7363L609.499 35.9174L590.648 23.9191L628.567 0Z" fill="#3F3D56"/>
<path d="M578.749 34.165L535.167 60.5419L555.406 71.8345L598.971 44.5311L578.749 34.165Z" fill="#3F3D56"/>
<path d="M586.394 20.6796C584.014 21.7595 581.928 23.3255 580.288 25.2613C578.649 27.197 577.499 29.4526 576.924 31.8601C576.696 32.7362 576.735 33.6541 577.037 34.5107C577.338 35.3672 577.889 36.1285 578.629 36.709L591.532 46.8692C592.46 47.5984 593.604 48.0471 594.813 48.1557C596.02 48.2644 597.235 48.0278 598.295 47.4775C603.542 44.765 611.966 39.0711 608.204 31.8601C607.784 31.0591 607.141 30.378 606.341 29.8877L591.962 21.0214C591.146 20.5167 590.203 20.2197 589.226 20.1597C588.249 20.0998 587.273 20.279 586.394 20.6796Z" fill="#D0CDE1"/>
<path d="M625.215 52.246C632.072 43.5212 632.561 32.872 626.307 28.4603C620.053 24.0487 609.423 27.5452 602.566 36.2701C595.709 44.9949 595.221 55.6441 601.475 60.0558C607.73 64.4674 618.358 60.9709 625.215 52.246Z" fill="#3F3D56"/>
<path opacity="0.2" d="M607.51 59.9709C610.048 61.8003 616.081 58.194 621.506 51.7967C621.986 51.2311 622.461 50.6439 622.931 50.0349C623.275 49.5876 623.606 49.1403 623.925 48.6931C628.954 41.6596 630.942 34.7604 628.345 32.8886C625.728 31.0018 619.396 34.8935 613.846 41.6638C613.535 42.0431 613.228 42.4301 612.924 42.8246C611.874 44.1881 610.902 45.607 610.014 47.0747C606.437 53.0183 605.273 58.3581 607.51 59.9709Z" fill="black"/>
<path d="M610.068 46.7871L621.745 51.6858L630.1 55.1904L631.336 53.5426L624.203 48.4661L613.961 41.1738C613.645 41.5673 613.334 41.9687 613.025 42.378C611.957 43.7926 610.97 45.2645 610.068 46.7871Z" fill="#D0CDE1"/>
<path d="M632.261 57.8186C633.793 57.8186 635.035 56.8381 635.035 55.6286C635.035 54.419 633.793 53.4385 632.261 53.4385C630.729 53.4385 629.486 54.419 629.486 55.6286C629.486 56.8381 630.729 57.8186 632.261 57.8186Z" fill="#D0CDE1"/>
<path d="M632.655 81.1906C632.816 81.0486 633.014 80.9513 633.229 80.909C646.873 78.1932 655.459 70.6253 659.475 57.7735C659.568 57.4769 659.779 57.2279 660.063 57.0814C660.346 56.9348 660.678 56.9027 660.987 56.992C661.295 57.0813 661.553 57.2848 661.705 57.5577C661.859 57.8306 661.892 58.1507 661.799 58.4475C657.562 72.0065 648.115 80.334 633.72 83.1992C633.459 83.251 633.189 83.219 632.949 83.1081C632.709 82.9973 632.514 82.8137 632.393 82.5856C632.272 82.3574 632.232 82.0974 632.28 81.8454C632.327 81.5934 632.459 81.3633 632.655 81.1906Z" fill="#6C63FF"/>
<path d="M629.883 70.7115C630.045 70.5718 630.244 70.4761 630.459 70.4347C640.731 68.4323 647.195 62.8531 650.219 53.3783C650.312 53.0867 650.524 52.842 650.809 52.6981C651.094 52.5541 651.426 52.5225 651.736 52.6103C652.045 52.6981 652.305 52.8981 652.458 53.1663C652.611 53.4346 652.646 53.7491 652.553 54.041C649.293 64.2551 642.026 70.528 630.952 72.6865C630.69 72.7375 630.418 72.706 630.177 72.597C629.936 72.488 629.741 72.3075 629.62 72.0832C629.498 71.8588 629.458 71.6032 629.506 71.3554C629.553 71.1076 629.686 70.8814 629.883 70.7115Z" fill="#6C63FF"/>
<path d="M638.197 90.8438C638.354 90.703 638.548 90.6065 638.759 90.5647C652.101 87.8773 666.693 74.863 670.62 62.1459C670.711 61.8518 670.918 61.6051 671.197 61.46C671.474 61.3148 671.8 61.2829 672.101 61.3715C672.403 61.46 672.657 61.6617 672.805 61.9322C672.955 62.2027 672.988 62.5199 672.898 62.8142C668.749 76.2486 653.335 89.9967 639.24 92.8355C638.984 92.8868 638.718 92.8551 638.484 92.7452C638.249 92.6353 638.058 92.4532 637.939 92.227C637.821 92.0008 637.782 91.743 637.829 91.4931C637.875 91.2432 638.004 91.0151 638.197 90.8438Z" fill="#6C63FF"/>
<path d="M889.322 0L868.984 10.7363L908.39 35.9174L927.24 23.9191L889.322 0Z" fill="#3F3D56"/>
<path d="M938.509 34.165L982.722 60.5419L962.189 71.8345L917.993 44.5311L938.509 34.165Z" fill="#3F3D56"/>
<path d="M930.846 20.6796C933.156 21.7595 935.183 23.3255 936.776 25.2613C938.369 27.197 939.485 29.4526 940.044 31.8601C940.265 32.7362 940.227 33.6541 939.934 34.5107C939.642 35.3672 939.106 36.1285 938.388 36.709L925.853 46.8692C924.951 47.5984 923.84 48.0471 922.667 48.1557C921.493 48.2644 920.313 48.0278 919.283 47.4775C914.187 44.765 906.002 39.0711 909.657 31.8601C910.066 31.0591 910.691 30.378 911.467 29.8877L925.436 21.0214C926.229 20.5167 927.145 20.2197 928.094 20.1597C929.043 20.0998 929.991 20.279 930.846 20.6796Z" fill="#D0CDE1"/>
<path d="M916.126 60.0557C922.38 55.644 921.891 44.9948 915.035 36.27C908.178 27.5452 897.548 24.0486 891.294 28.4603C885.04 32.8719 885.529 43.5211 892.386 52.246C899.242 60.9708 909.871 64.4673 916.126 60.0557Z" fill="#3F3D56"/>
<path opacity="0.2" d="M909.499 59.9709C907.064 61.8003 901.271 58.194 896.063 51.7967C895.603 51.2311 895.147 50.6439 894.696 50.0349C894.366 49.5876 894.048 49.1403 893.742 48.6931C888.913 41.6596 887.004 34.7604 889.499 32.8886C892.011 31.0018 898.089 34.8935 903.418 41.6638C903.716 42.0431 904.01 42.4301 904.302 42.8246C905.311 44.1881 906.243 45.607 907.096 47.0747C910.53 53.0183 911.646 58.3581 909.499 59.9709Z" fill="black"/>
<path d="M907.821 46.7871L896.143 51.6858L887.789 55.1904L886.554 53.5426L893.686 48.4661L903.928 41.1738C904.244 41.5673 904.555 41.9687 904.864 42.378C905.932 43.7926 906.919 45.2645 907.821 46.7871Z" fill="#D0CDE1"/>
<path d="M885.629 57.8186C887.161 57.8186 888.403 56.8381 888.403 55.6286C888.403 54.419 887.161 53.4385 885.629 53.4385C884.096 53.4385 882.854 54.419 882.854 55.6286C882.854 56.8381 884.096 57.8186 885.629 57.8186Z" fill="#D0CDE1"/>
<path d="M884.321 81.1906C884.165 81.0486 883.973 80.9513 883.766 80.909C870.547 78.1932 862.231 70.6253 858.34 57.7735C858.249 57.4769 858.044 57.2279 857.77 57.0814C857.495 56.9348 857.173 56.9027 856.875 56.992C856.577 57.0813 856.326 57.2848 856.178 57.5577C856.03 57.8306 855.999 58.1507 856.087 58.4475C860.192 72.0065 869.345 80.334 883.29 83.1992C883.542 83.251 883.805 83.219 884.037 83.1081C884.27 82.9973 884.458 82.8137 884.576 82.5856C884.693 82.3574 884.731 82.0974 884.685 81.8454C884.639 81.5934 884.511 81.3633 884.321 81.1906Z" fill="#6C63FF"/>
<path d="M888.006 70.7115C887.845 70.5718 887.645 70.4761 887.431 70.4347C877.159 68.4323 870.694 62.8531 867.671 53.3783C867.577 53.0867 867.365 52.842 867.08 52.6981C866.796 52.5541 866.463 52.5225 866.153 52.6103C865.844 52.6981 865.584 52.8981 865.431 53.1663C865.278 53.4346 865.244 53.7491 865.336 54.041C868.597 64.2551 875.863 70.528 886.938 72.6865C887.199 72.7374 887.471 72.706 887.712 72.597C887.953 72.488 888.149 72.3074 888.27 72.0831C888.391 71.8588 888.431 71.6032 888.383 71.3554C888.336 71.1076 888.204 70.8814 888.006 70.7115Z" fill="#6C63FF"/>
<path d="M879.693 90.8438C879.535 90.703 879.341 90.6065 879.132 90.5647C865.788 87.8773 851.197 74.863 847.27 62.1459C847.178 61.8518 846.971 61.6051 846.693 61.46C846.416 61.3148 846.09 61.2829 845.788 61.3715C845.486 61.46 845.232 61.6617 845.084 61.9322C844.934 62.2027 844.901 62.5199 844.992 62.8142C849.14 76.2486 864.554 89.9967 878.65 92.8355C878.905 92.8868 879.171 92.8551 879.405 92.7452C879.64 92.6353 879.831 92.4532 879.95 92.227C880.068 92.0008 880.107 91.743 880.061 91.4931C880.014 91.2432 879.885 91.0151 879.693 90.8438Z" fill="#6C63FF"/>
</svg>
