<svg width="131" height="90" viewBox="0 0 131 90" fill="none" xmlns="http://www.w3.org/2000/svg">
<path d="M28.7585 32.7273C34.4205 32.7273 39.9554 34.4068 44.6631 37.5534C49.3709 40.7 53.0402 45.1724 55.207 50.405C57.3737 55.6376 57.9406 61.3954 56.836 66.9503C55.7314 72.5052 53.0049 77.6077 49.0013 81.6126C44.9976 85.6175 39.8967 88.3448 34.3435 89.4498C28.7902 90.5547 23.0342 89.9876 17.8032 87.8202C12.5722 85.6528 8.10114 81.9824 4.95549 77.2731C1.80985 72.5639 0.130869 67.0274 0.130869 61.3636L0 57.2727C0 42.083 6.03223 27.5155 16.7697 16.7748C27.5071 6.03407 42.0702 0 57.2552 0V16.3636C51.8823 16.3492 46.5597 17.4004 41.5954 19.4563C36.6311 21.5123 32.1234 24.5324 28.3332 28.3418C26.86 29.8126 25.5011 31.3936 24.268 33.0709C25.7321 32.8418 27.229 32.7191 28.7503 32.7191L28.7585 32.7273ZM102.372 32.7273C108.034 32.7273 113.569 34.4068 118.277 37.5534C122.985 40.7 126.654 45.1724 128.821 50.405C130.988 55.6376 131.555 61.3954 130.45 66.9503C129.345 72.5052 126.619 77.6077 122.615 81.6126C118.612 85.6175 113.511 88.3448 107.957 89.4498C102.404 90.5547 96.6481 89.9876 91.4171 87.8202C86.186 85.6528 81.715 81.9824 78.5694 77.2731C75.4237 72.5639 73.7448 67.0274 73.7448 61.3636L73.6139 57.2727C73.6139 42.083 79.6461 27.5155 90.3836 16.7748C101.121 6.03407 115.684 0 130.869 0V16.3636C125.496 16.3492 120.174 17.4004 115.209 19.4563C110.245 21.5123 105.737 24.5324 101.947 28.3418C100.474 29.8126 99.1149 31.3936 97.8819 33.0709C99.346 32.8418 100.843 32.7191 102.372 32.7191V32.7273Z" fill="#F2F2F2"/>
</svg>
