<svg width="131" height="90" viewBox="0 0 131 90" fill="none" xmlns="http://www.w3.org/2000/svg">
<path d="M102.242 57.2727C96.5795 57.2727 91.0446 55.5932 86.3369 52.4466C81.6291 49.3 77.9598 44.8276 75.793 39.595C73.6263 34.3624 73.0594 28.6046 74.164 23.0497C75.2686 17.4948 77.9951 12.3923 81.9987 8.38741C86.0024 4.38254 91.1033 1.65519 96.6565 0.550252C102.21 -0.554688 107.966 0.0124077 113.197 2.17983C118.428 4.34724 122.899 8.01764 126.045 12.7269C129.19 17.4361 130.869 22.9726 130.869 28.6364L131 32.7273C131 40.2484 129.519 47.696 126.642 54.6446C123.764 61.5933 119.547 67.9069 114.23 73.2252C108.914 78.5435 102.602 82.7622 95.6554 85.6404C88.7089 88.5186 81.2636 90 73.7448 90V73.6364C79.1177 73.6508 84.4403 72.5996 89.4046 70.5437C94.3689 68.4877 98.8766 65.4676 102.667 61.6582C104.14 60.1874 105.499 58.6064 106.732 56.9291C105.247 57.1626 103.745 57.2802 102.242 57.2809V57.2727ZM28.6276 57.2727C22.9656 57.2727 17.4308 55.5932 12.723 52.4466C8.01519 49.3 4.34592 44.8276 2.17916 39.595C0.0124041 34.3624 -0.554518 28.6046 0.550085 23.0497C1.65469 17.4948 4.3812 12.3923 8.38485 8.38741C12.3885 4.38254 17.4894 1.65519 23.0427 0.550252C28.5959 -0.554688 34.3519 0.0124077 39.5829 2.17983C44.814 4.34724 49.285 8.01764 52.4306 12.7269C55.5763 17.4361 57.2552 22.9726 57.2552 28.6364L57.3861 32.7273C57.3861 47.917 51.3539 62.4845 40.6164 73.2252C29.879 83.9659 15.3159 90 0.130882 90V73.6364C5.50386 73.6508 10.8264 72.5996 15.7907 70.5437C20.7551 68.4877 25.2627 65.4676 29.053 61.6582C30.5261 60.1874 31.8851 58.6064 33.1181 56.9291C31.6326 57.1626 30.1313 57.2802 28.6276 57.2809V57.2727Z" fill="#F2F2F2"/>
</svg>
