<svg width="286" height="204" viewBox="0 0 286 204" fill="none" xmlns="http://www.w3.org/2000/svg">
<path opacity="0.2" d="M20.8351 101.331C8.29151 106.414 -0.379217 121.467 0.0127688 136.592C0.374545 144.166 2.60461 151.473 6.44924 157.681C10.2939 163.89 15.5987 168.751 21.7601 171.71C27.9877 174.488 34.7361 175.425 41.371 174.433C48.0059 173.442 54.3093 170.554 59.6887 166.041C60.2375 180.561 68.9866 196.343 81.2009 200.733C87.3707 202.828 93.9522 202.783 100.099 200.604C106.246 198.425 111.678 194.212 115.696 188.506C148.622 211.948 263.866 220.639 284.124 120.81C288.295 100.193 278.166 78.3684 263.317 65.5543C248.469 52.7402 229.591 47.4973 211.074 44.9202C193.497 13.196 154.518 -4.13233 121.701 0.844014C88.8838 5.82036 59.8298 33.9189 50.2497 69.7664C16.8682 69.9442 20.349 103.872 20.8351 101.331Z" fill="black"/>
</svg>
