<svg width="571" height="401" viewBox="0 0 571 401" fill="none" xmlns="http://www.w3.org/2000/svg">
<path d="M89.3933 401C138.764 401 178.787 397.902 178.787 394.08C178.787 390.258 138.764 387.16 89.3933 387.16C40.0228 387.16 0 390.258 0 394.08C0 397.902 40.0228 401 89.3933 401Z" fill="#385A64"/>
<path opacity="0.1" d="M71.6635 16.3395L71.5869 15.9154L64.336 12.0753H63.1982L62.7629 11.2412H47.8196L44.3543 12.0753H31.5919L28.1344 16.1097L28.099 16.3571C27.8752 17.8001 22.8743 51.7309 36.0686 62.5269L41.5701 65.083H45.1278L44.4323 63.6945L47.5252 65.083H57.5386L57.7165 64.8162L63.6587 62.5916L63.8118 62.4149C64.3478 61.7789 76.9766 46.4361 71.6635 16.3395Z" fill="#6C63FF"/>
<path d="M53.7096 50.062H47.8193V65.3754H53.7096V50.062Z" fill="#E6E6E6"/>
<path d="M55.7715 85.1055H45.1689V379.593H55.7715V85.1055Z" fill="#3F3D56"/>
<path d="M58.4223 80.1021H42.5186V90.1155H58.4223V80.1021Z" fill="#3F3D56"/>
<path d="M36.6284 61.8418L46.6416 72.4434L42.5186 80.1L50.7647 81.8669L58.4225 80.1L53.71 71.8547L63.1344 61.8418H36.6284Z" fill="#3F3D56"/>
<path d="M28.9705 16.4925L24.2583 11.7803L27.7925 8.24609H72.5587L76.0929 12.3693L70.7916 16.4925C70.7916 16.4925 42.5182 15.3144 28.9705 16.4925Z" fill="#3F3D56"/>
<path d="M71.6635 16.34L71.587 15.9159L64.3361 12.0758L61.0256 10.3206L42.4418 9.125L32.0218 11.5751L31.5919 12.0758L28.1344 16.1102L28.099 16.3576C27.8752 17.8006 22.8743 51.7314 36.0686 62.5274L41.5701 65.0835L46.1998 67.2333L45.1278 65.0835L43.3666 61.5673C41.523 50.8362 37.4704 22.642 40.0563 16.7522L50.7412 13.3067L60.2247 16.8288C60.8784 21.0636 65.1077 50.7538 57.6977 61.3377L57.5386 61.5674V64.8833L63.6587 62.5922L63.8118 62.4155C64.3478 61.7794 76.9766 46.4366 71.6635 16.34ZM62.5925 61.1021L59.3057 62.3389V62.1151C67.4344 49.9881 62.1213 17.4237 61.8916 16.0337L61.8091 15.5272L52.5142 12.0758L50.7884 11.4338L48.7974 12.0758L38.8311 15.2915L38.6602 15.5919C34.8728 22.3828 41.3698 60.3776 41.6466 61.9914L41.6702 62.121L42.3711 63.5227L37.0994 61.0902C25.3482 51.3074 29.3771 19.9798 29.8071 16.8759L32.9879 13.1653L37.6176 12.0758L42.595 10.9037L50.7884 11.4338L60.5309 12.064L60.5545 12.0758L69.9966 17.0703C74.6735 44.3693 63.9414 59.3587 62.5925 61.1021H62.5925Z" fill="#3F3D56"/>
<path d="M50.7646 16.4913C59.548 16.4913 66.6684 12.7996 66.6684 8.24565C66.6684 3.6917 59.548 0 50.7646 0C41.9812 0 34.8608 3.6917 34.8608 8.24565C34.8608 12.7996 41.9812 16.4913 50.7646 16.4913Z" fill="#3F3D56"/>
<path d="M42.5182 364.576L33.0938 394.613C33.0938 394.613 47.8195 402.859 67.8465 394.613L58.422 364.576H42.5182Z" fill="#3F3D56"/>
<path d="M50.7645 51.8307C53.367 51.8307 55.4767 49.721 55.4767 47.1185C55.4767 44.516 53.367 42.4062 50.7645 42.4062C48.162 42.4062 46.0522 44.516 46.0522 47.1185C46.0522 49.721 48.162 51.8307 50.7645 51.8307Z" fill="#385A64"/>
<path d="M224.601 220.998C227.09 230.198 235.616 235.896 235.616 235.896C235.616 235.896 240.106 226.677 237.617 217.477C235.128 208.277 226.602 202.579 226.602 202.579C226.602 202.579 222.112 211.798 224.601 220.998Z" fill="#6C63FF"/>
<path d="M228.259 219.024C235.089 225.672 235.923 235.891 235.923 235.891C235.923 235.891 225.684 235.332 218.854 228.684C212.024 222.036 211.189 211.816 211.189 211.816C211.189 211.816 221.429 212.375 228.259 219.024Z" fill="#E6E6E6"/>
<path d="M565.437 219.175L327.219 286.717L544.562 164.264C534.653 146.113 522.214 129.462 507.618 114.811L296.746 230.856L473.283 86.7174C447.963 69.9695 419.4 58.7415 389.452 53.7645L291.668 217.006L356.432 50.8346C355.467 50.822 354.504 50.8076 353.536 50.8076C233.435 50.8076 136.073 148.16 136.073 268.251C136.01 307.971 146.88 346.942 167.492 380.897H539.58C568.879 332.394 578.152 274.394 565.437 219.175Z" fill="#F2F2F2"/>
<path d="M546.741 360.592C546.741 342.043 537.328 327.005 525.715 327.005C518.417 327.005 511.989 332.948 508.219 341.967C506.945 341.438 505.58 341.164 504.201 341.161C500.686 341.161 497.436 342.962 494.786 346.01C491.388 334.764 484.182 327.005 475.841 327.005C468.042 327.005 461.24 333.793 457.61 343.867C455.594 342.165 453.053 341.21 450.414 341.161C441.503 341.161 434.278 352.701 434.278 366.937C434.242 371.683 435.104 376.393 436.821 380.817H542.501C545.161 375.191 546.741 368.187 546.741 360.592Z" fill="#385A64"/>
<path d="M334.145 134.83V134.83C334.145 113.28 342.706 92.6133 357.945 77.3755C373.184 62.1377 393.853 53.5771 415.405 53.5771" stroke="#3F3D56" stroke-width="2" stroke-miterlimit="10"/>
<path d="M363.711 145.465C357.202 169.524 334.908 184.424 334.908 184.424C334.908 184.424 323.166 160.317 329.675 136.259C336.184 112.2 358.479 97.2998 358.479 97.2998C358.479 97.2998 370.22 121.407 363.711 145.465Z" fill="#385A64"/>
<path d="M304.498 145.465C311.007 169.524 333.301 184.424 333.301 184.424C333.301 184.424 345.043 160.317 338.534 136.259C332.025 112.2 309.73 97.2998 309.73 97.2998C309.73 97.2998 297.989 121.407 304.498 145.465Z" fill="#385A64"/>
<path d="M314.063 140.297C331.923 157.681 334.105 184.406 334.105 184.406C334.105 184.406 307.329 182.944 289.468 165.559C271.607 148.174 269.426 121.45 269.426 121.45C269.426 121.45 296.202 122.912 314.063 140.297Z" fill="#3F3D56"/>
<path d="M354.147 140.297C336.286 157.681 334.104 184.406 334.104 184.406C334.104 184.406 360.881 182.944 378.741 165.559C396.602 148.174 398.783 121.45 398.783 121.45C398.783 121.45 372.007 122.912 354.147 140.297Z" fill="#3F3D56"/>
<path d="M402.243 70.9571C405.128 60.2942 415.009 53.6904 415.009 53.6904C415.009 53.6904 420.212 64.3746 417.328 75.0375C414.443 85.7004 404.562 92.3042 404.562 92.3042C404.562 92.3042 399.358 81.62 402.243 70.9571Z" fill="#385A64"/>
<path d="M428.486 70.9571C425.601 60.2942 415.72 53.6904 415.72 53.6904C415.72 53.6904 410.517 64.3746 413.401 75.0375C416.286 85.7004 426.167 92.3042 426.167 92.3042C426.167 92.3042 431.371 81.62 428.486 70.9571Z" fill="#385A64"/>
<path d="M424.247 73.2478C416.331 65.5427 415.364 53.6982 415.364 53.6982C415.364 53.6982 427.232 54.3461 435.147 62.0512C443.063 69.7563 444.03 81.6008 444.03 81.6008C444.03 81.6008 432.163 80.9529 424.247 73.2478Z" fill="#3F3D56"/>
<path d="M406.482 73.2478C414.398 65.5427 415.365 53.6982 415.365 53.6982C415.365 53.6982 403.497 54.3461 395.581 62.0512C387.666 69.7563 386.699 81.6008 386.699 81.6008C386.699 81.6008 398.566 80.9529 406.482 73.2478Z" fill="#3F3D56"/>
<path d="M502.205 290.413H492.509V236.707C492.505 235.239 491.92 233.833 490.882 232.795C489.844 231.757 488.437 231.172 486.969 231.167H470.348V183.898C470.343 182.43 469.758 181.024 468.72 179.986C467.682 178.948 466.275 178.363 464.807 178.358H206.252C204.784 178.363 203.377 178.948 202.339 179.986C201.301 181.024 200.716 182.43 200.712 183.898V231.167H184.09C182.622 231.172 181.215 231.757 180.177 232.795C179.139 233.833 178.554 235.239 178.55 236.707V290.413H168.854C167.386 290.417 165.979 291.002 164.941 292.04C163.903 293.078 163.318 294.485 163.313 295.952V375.359C163.318 376.826 163.903 378.233 164.941 379.271C165.979 380.309 167.386 380.894 168.854 380.898H502.205C503.673 380.894 505.08 380.309 506.118 379.271C507.156 378.233 507.741 376.826 507.746 375.359V295.952C507.741 294.485 507.156 293.078 506.118 292.04C505.08 291.002 503.673 290.417 502.205 290.413Z" fill="#3F3D56"/>
<path d="M453.758 273.625C448.667 281.682 450.239 291.814 450.239 291.814C450.239 291.814 460.066 288.883 465.157 280.826C470.248 272.769 468.676 262.636 468.676 262.636C468.676 262.636 458.849 265.567 453.758 273.625Z" fill="#385A64"/>
<path d="M457.688 274.979C457.413 284.506 450.452 292.035 450.452 292.035C450.452 292.035 443.936 284.118 444.211 274.591C444.485 265.064 451.447 257.535 451.447 257.535C451.447 257.535 457.963 265.453 457.688 274.979Z" fill="#E6E6E6"/>
<path d="M492.509 290.411H178.55V295.951H492.509V290.411Z" fill="#E6E6E6"/>
<path d="M470.348 231.318H200.712V236.859H470.348V231.318Z" fill="#E6E6E6"/>
<path d="M415.405 102.052C418.465 102.052 420.945 99.5718 420.945 96.5121C420.945 93.4525 418.465 90.9722 415.405 90.9722C412.345 90.9722 409.864 93.4525 409.864 96.5121C409.864 99.5718 412.345 102.052 415.405 102.052Z" fill="#385A64"/>
<path d="M237.851 225.302L383.76 183.866L405.505 260.419L394.964 263.413L403 291.705L366.669 271.448L259.595 301.856L237.851 225.302Z" fill="#EA685E"/>
<path d="M326.332 259.247L323.097 257.656C311.571 251.859 303.987 248.125 302.06 241.339C301.67 240.054 301.543 238.705 301.684 237.37C301.826 236.035 302.234 234.742 302.884 233.567C303.535 232.393 304.414 231.361 305.47 230.532C306.527 229.704 307.738 229.095 309.034 228.743C310.56 228.319 312.161 228.231 313.724 228.487C315.288 228.743 316.777 229.336 318.088 230.225C318.736 228.78 319.691 227.493 320.887 226.453C322.083 225.414 323.49 224.647 325.012 224.206C326.299 223.824 327.65 223.705 328.984 223.855C330.318 224.004 331.609 224.42 332.779 225.077C333.95 225.735 334.977 226.62 335.799 227.681C336.621 228.743 337.222 229.958 337.566 231.256C339.494 238.042 335.005 245.204 328.247 256.193L326.332 259.247Z" fill="white"/>
<path d="M67.3771 183.465C67.3771 183.465 63.6336 194.695 65.7133 197.19C67.7931 199.686 53.2349 189.704 53.2349 189.704L61.1379 180.554L67.3771 183.465Z" fill="#A0616A"/>
<path d="M58.8404 183.447C69.1544 183.447 77.5157 175.086 77.5157 164.773C77.5157 154.46 69.1544 146.1 58.8404 146.1C48.5263 146.1 40.165 154.46 40.165 164.773C40.165 175.086 48.5263 183.447 58.8404 183.447Z" fill="#2F2E41"/>
<path d="M131.433 309.906L121.866 317.392L116.459 308.658L126.026 302.003L131.433 309.906Z" fill="#A0616A"/>
<path d="M117.915 366.261L120.411 378.322L127.482 387.888C127.482 387.888 146.615 393.711 133.721 396.622C120.827 399.534 117.915 394.543 117.915 394.543L108.764 386.64V397.454H102.941L101.693 382.065C101.693 382.065 100.861 377.49 104.605 372.5L105.437 365.013L117.915 366.261Z" fill="#2F2E41"/>
<path d="M69.6651 216.946L72.9927 236.078C72.9927 236.078 108.348 232.335 110.844 239.405C113.34 246.476 114.172 248.555 114.172 248.555L107.1 251.051L103.773 244.812C102.759 244.453 101.683 244.305 100.61 244.377C99.5376 244.448 98.4906 244.738 97.5337 245.228C94.2061 246.892 65.0897 251.051 63.01 245.644C60.9302 240.237 55.1069 220.274 55.1069 220.274L63.8419 213.203L69.6651 216.946Z" fill="#A0616A"/>
<path opacity="0.1" d="M69.6651 216.946L72.9927 236.078C72.9927 236.078 108.348 232.335 110.844 239.405C113.34 246.476 114.172 248.555 114.172 248.555L107.1 251.051L103.773 244.812C102.759 244.453 101.683 244.305 100.61 244.377C99.5376 244.448 98.4906 244.738 97.5337 245.228C94.2061 246.892 65.0897 251.051 63.01 245.644C60.9302 240.237 55.1069 220.274 55.1069 220.274L63.8419 213.203L69.6651 216.946Z" fill="black"/>
<path d="M89.2144 272.265L92.126 282.247L99.6131 320.511C99.6131 320.511 100.445 348.792 101.693 352.12C102.941 355.447 102.941 355.863 101.693 357.111C100.445 358.358 97.9493 362.518 101.693 365.013C105.436 367.508 118.747 370.42 119.163 367.508C119.579 364.597 119.579 360.022 119.163 357.943C118.747 355.863 120.411 323.422 120.411 323.422L115.419 273.929L98.3653 266.026L89.2144 272.265Z" fill="#2F2E41"/>
<path opacity="0.1" d="M89.2144 272.265L92.126 282.247L99.6131 320.511C99.6131 320.511 100.445 348.792 101.693 352.12C102.941 355.447 102.941 355.863 101.693 357.111C100.445 358.358 97.9493 362.518 101.693 365.013C105.436 367.508 118.747 370.42 119.163 367.508C119.579 364.597 119.579 360.022 119.163 357.943C118.747 355.863 120.411 323.422 120.411 323.422L115.419 273.929L98.3653 266.026L89.2144 272.265Z" fill="black"/>
<path d="M107.1 233.17L116.251 250.638C116.251 250.638 168.661 273.929 164.085 283.495C159.51 293.061 134.137 310.945 134.137 310.945C134.137 310.945 132.889 318.016 129.146 315.936C125.402 313.857 116.251 303.043 117.083 301.795C117.915 300.547 120.827 297.636 122.075 298.052C123.322 298.468 137.881 287.238 137.881 287.238L112.924 281C112.924 281 82.9755 280.168 81.3117 266.027C79.6479 251.886 81.3117 249.39 81.3117 249.39L79.2319 244.815L96.2858 234.418L107.1 233.17Z" fill="#2F2E41"/>
<path d="M119.995 302.21L111.26 310.113C111.26 310.113 103.773 306.785 99.1972 308.033C94.6218 309.281 86.7188 310.113 86.7188 310.113L87.9666 317.183L98.579 315.226L90.0463 327.165C90.0463 327.165 90.0463 345.881 95.4537 345.881C100.861 345.881 99.1972 334.651 99.1972 334.651L115.835 321.758C115.835 321.758 124.154 318.431 124.986 318.431C125.818 318.431 119.995 302.21 119.995 302.21Z" fill="#2F2E41"/>
<path d="M65.7135 186.795C73.5241 186.795 79.8558 180.463 79.8558 172.654C79.8558 164.844 73.5241 158.513 65.7135 158.513C57.903 158.513 51.5713 164.844 51.5713 172.654C51.5713 180.463 57.903 186.795 65.7135 186.795Z" fill="#A0616A"/>
<path d="M51.7795 183.676C51.7795 183.676 58.4347 182.012 60.5144 183.676C62.5941 185.34 63.0101 189.083 65.9217 189.499C68.8334 189.915 71.3291 189.915 71.745 190.33C72.1609 190.746 81.7278 202.392 81.7278 202.392C81.7278 202.392 87.551 205.719 88.7989 210.294C90.0468 214.869 102.525 230.258 104.189 231.921C105.853 233.585 93.3743 241.903 89.2148 244.815C85.0554 247.726 72.9928 248.974 69.2493 242.319C65.5058 235.665 45.1243 192.41 51.7795 183.676Z" fill="#385A64"/>
<path d="M67.5855 210.709L70.9131 229.84C70.9131 229.84 106.269 226.097 108.764 233.168C111.26 240.238 112.092 242.318 112.092 242.318L105.021 244.813L101.693 238.575C100.68 238.216 99.6036 238.067 98.5308 238.139C97.458 238.21 96.411 238.5 95.4541 238.99C92.1265 240.654 63.0101 244.813 60.9304 239.406C58.8506 234 53.0273 214.036 53.0273 214.036L61.7623 206.965L67.5855 210.709Z" fill="#A0616A"/>
<path d="M59.6363 185.426C59.6363 185.426 69.6648 206.551 68.8329 212.374C68.001 218.197 65.0893 214.038 65.0893 214.038C65.0893 214.038 61.3458 208.215 59.682 211.542C58.0182 214.87 55.9384 219.445 54.2747 219.029C52.6109 218.613 43.46 187.835 48.4514 184.924C53.4428 182.013 59.6363 185.426 59.6363 185.426Z" fill="#385A64"/>
<path d="M38.6084 158.863C48.9225 158.863 57.2837 150.503 57.2837 140.19C57.2837 129.877 48.9225 121.516 38.6084 121.516C28.2943 121.516 19.9331 129.877 19.9331 140.19C19.9331 150.503 28.2943 158.863 38.6084 158.863Z" fill="#2F2E41"/>
<path d="M22.4999 155.65C24.9171 157.396 27.7175 158.539 30.6669 158.982C33.6162 159.425 36.6288 159.155 39.4524 158.195C42.2761 157.235 44.8287 155.613 46.8969 153.464C48.965 151.315 50.4884 148.703 51.3396 145.844C51.0175 148.406 50.1678 150.872 48.8442 153.089C47.5205 155.305 45.7517 157.223 43.6494 158.722C41.547 160.22 39.1568 161.266 36.6297 161.794C34.1026 162.322 31.4934 162.321 28.9669 161.79C26.4404 161.259 24.0515 160.21 21.9509 158.709C19.8504 157.208 18.0838 155.288 16.7628 153.07C15.4418 150.852 14.5951 148.384 14.276 145.822C13.9569 143.261 14.1725 140.661 14.9091 138.187C14.4907 141.511 14.9747 144.886 16.3104 147.959C17.646 151.031 19.7839 153.688 22.4999 155.65Z" fill="#2F2E41"/>
<path d="M53.8603 181.581C61.4239 181.581 67.5555 175.45 67.5555 167.887C67.5555 160.324 61.4239 154.193 53.8603 154.193C46.2966 154.193 40.165 160.324 40.165 167.887C40.165 175.45 46.2966 181.581 53.8603 181.581Z" fill="#2F2E41"/>
<path d="M65.3767 172.244C72.0809 172.244 77.5157 167.994 77.5157 162.752C77.5157 157.509 72.0809 153.259 65.3767 153.259C58.6726 153.259 53.2378 157.509 53.2378 162.752C53.2378 167.994 58.6726 172.244 65.3767 172.244Z" fill="#2F2E41"/>
<path d="M65.9214 178.891C67.4146 178.891 68.6251 176.749 68.6251 174.108C68.6251 171.466 67.4146 169.324 65.9214 169.324C64.4282 169.324 63.2178 171.466 63.2178 174.108C63.2178 176.749 64.4282 178.891 65.9214 178.891Z" fill="#A0616A"/>
<path d="M103.034 244.634C103.034 244.634 110.398 240.409 111.765 241.469C113.132 242.528 113.739 245.843 113.739 245.843L105.229 249.183L102.733 244.608L103.034 244.634Z" fill="#2F2E41"/>
</svg>
