<svg width="286" height="558" viewBox="0 0 286 558" fill="none" xmlns="http://www.w3.org/2000/svg">
<g opacity="0.42">
<path d="M164.21 526.703C164.21 526.703 159.115 526.401 158.613 510.708C158.111 495.015 167.08 490.696 173.979 492.633C173.979 492.633 172.975 481.383 177.444 481.809C181.912 482.236 181.615 489.718 181.615 489.718C181.615 489.718 183.182 473.723 189.25 473.723C195.318 473.723 189.25 492.58 189.25 492.58C189.25 492.58 197.702 487.977 200.806 492.58C203.911 497.183 196.933 502.568 196.933 502.568C196.933 502.568 207.909 506.62 203.299 519.488C203.299 519.488 210.935 520.838 213.067 526.597C213.067 526.597 212.456 514.955 215.216 515.737C217.975 516.519 217.348 526.721 217.348 526.721C217.348 526.721 221.926 515.524 225.893 519.47C229.86 523.415 224.074 532.924 224.074 532.924C224.074 532.924 231.71 528.729 232.918 534.292C234.125 539.855 228.653 541.934 228.653 541.934C228.653 541.934 236.587 539.855 236.587 550.181C236.587 550.181 251.858 548.528 255.527 557.805H164.587L164.21 526.703Z" fill="#407BFF" fill-opacity="0.08"/>
<path opacity="0.4" d="M164.21 526.703C164.21 526.703 159.115 526.401 158.613 510.708C158.111 495.015 167.08 490.696 173.979 492.633C173.979 492.633 172.975 481.383 177.444 481.809C181.912 482.236 181.615 489.718 181.615 489.718C181.615 489.718 183.182 473.723 189.25 473.723C195.318 473.723 189.25 492.58 189.25 492.58C189.25 492.58 197.702 487.977 200.806 492.58C203.911 497.183 196.933 502.568 196.933 502.568C196.933 502.568 207.909 506.62 203.299 519.488C203.299 519.488 210.935 520.838 213.067 526.597C213.067 526.597 212.456 514.955 215.216 515.737C217.975 516.519 217.348 526.721 217.348 526.721C217.348 526.721 221.926 515.524 225.893 519.47C229.86 523.415 224.074 532.924 224.074 532.924C224.074 532.924 231.71 528.729 232.918 534.292C234.125 539.855 228.653 541.934 228.653 541.934C228.653 541.934 236.587 539.855 236.587 550.181C236.587 550.181 251.858 548.528 255.527 557.805H164.587L164.21 526.703Z" fill="white"/>
<path d="M117.736 364.971C115.541 405.848 103.624 556.916 103.624 556.916L189.72 557.822L165.511 284.852L204.145 271.487L212.251 244.952L244.88 224.033L260.826 196.273L254.664 194.495L237.056 220.123L216.516 225.189L225.312 201.569H215.56L191.1 256.273L166.013 262.103L163.723 162.576C138.511 175.923 130.452 153.689 130.452 153.689C130.452 153.689 123.929 309.484 120.26 321.25C116.545 318.906 113.087 316.072 109.959 312.808C101.45 304.224 94.0597 294.314 88.0075 283.376L86.4396 280.444H78.5999L117.736 364.971Z" fill="#407BFF" fill-opacity="0.08"/>
<g opacity="0.2">
<path opacity="0.2" d="M117.735 364.971C115.539 405.848 103.623 556.916 103.623 556.916L189.719 557.823L165.51 284.852L204.144 271.487L212.25 244.952L244.879 224.034L260.825 196.273L254.663 194.496L237.055 220.124L216.515 225.189L225.311 201.569H215.559L191.099 256.274L166.012 262.103L163.722 162.576C138.51 175.923 130.451 153.69 130.451 153.69C130.451 153.69 123.928 309.485 120.259 321.25C116.544 318.907 113.086 316.073 109.958 312.808C101.449 304.224 94.0586 294.315 88.0064 283.377L86.4385 280.444H78.5988L117.735 364.971Z" fill="black"/>
</g>
<path opacity="0.1" d="M208.487 237.574L197.998 260.501L165.181 269.92C165.181 269.92 165.291 264.073 165.824 256.573L165.965 262.189L191.052 256.36L215.559 201.656H225.343L216.547 225.275L237.087 220.21L254.695 194.582L255.557 194.813L241.994 218.078L208.487 237.574Z" fill="black"/>
<path d="M161.247 422.837L168.992 557.607L155.336 557.465V451.095L161.247 422.837Z" fill="#407BFF" fill-opacity="0.08"/>
<path d="M117.738 364.975L78.5397 280.537H86.3794L87.9473 283.469C93.9995 294.407 101.39 304.316 109.899 312.901C113.027 316.165 116.485 318.999 120.2 321.343C123.869 309.577 130.392 153.782 130.392 153.782C131.658 156.829 133.499 159.523 135.786 161.673C138.073 163.823 140.749 165.376 143.625 166.223C143.991 216.543 144.362 266.864 144.738 317.184C147.513 310.075 149.928 303.161 150.163 295.715C150.994 316.331 152.108 338.493 152.029 358.843L136.946 421.918L134.029 557.24L103.674 556.92C103.674 556.92 115.543 405.852 117.738 364.975Z" fill="#407BFF" fill-opacity="0.08"/>
<path d="M20.8368 101.331C8.29322 106.414 -0.377508 121.467 0.0144778 136.592C0.376254 144.166 2.60632 151.473 6.45095 157.681C10.2956 163.89 15.6004 168.751 21.7618 171.71C27.9894 174.488 34.7378 175.425 41.3727 174.433C48.0076 173.442 54.311 170.554 59.6904 166.041C60.2392 180.561 68.9883 196.343 81.2026 200.733C87.3724 202.828 93.9539 202.783 100.101 200.604C106.248 198.425 111.68 194.212 115.697 188.506C148.624 211.948 263.868 220.639 284.126 120.81C288.297 100.193 278.168 78.3684 263.319 65.5543C248.471 52.7402 229.593 47.4973 211.075 44.9202C193.499 13.196 154.52 -4.13233 121.703 0.844014C88.8855 5.82036 59.8315 33.9189 50.2514 69.7664C16.8699 69.9442 20.3507 103.872 20.8368 101.331Z" fill="#407BFF" fill-opacity="0.08"/>
<g opacity="0.2">
<path opacity="0.2" d="M20.8351 101.331C8.29151 106.414 -0.379217 121.468 0.0127688 136.592C0.374545 144.167 2.60461 151.474 6.44924 157.682C10.2939 163.891 15.5987 168.751 21.7601 171.711C27.9877 174.489 34.7361 175.426 41.371 174.434C48.0059 173.442 54.3093 170.554 59.6887 166.042C60.2375 180.562 68.9866 196.344 81.2009 200.734C87.3707 202.829 93.9522 202.783 100.099 200.604C106.246 198.425 111.678 194.212 115.696 188.506C148.622 211.949 263.866 220.639 284.124 120.81C288.295 100.194 278.166 78.3691 263.317 65.555C248.469 52.741 229.591 47.498 211.074 44.921C193.497 13.1967 154.518 -4.1316 121.701 0.844747C88.8838 5.8211 59.8298 33.9197 50.2497 69.7672C16.8682 69.9449 20.349 103.873 20.8351 101.331Z" fill="black"/>
</g>
<path d="M61.4921 297.702C63.3655 300.849 65.991 303.325 69.0612 304.841C72.1314 306.357 75.5191 306.851 78.8277 306.263C82.1363 305.676 85.2287 304.032 87.7428 301.524C90.2569 299.017 92.0886 295.749 93.0235 292.104C100.863 298.324 112.874 296.796 120.776 290.735C124.761 287.677 127.831 283.316 129.575 278.232C131.32 273.147 131.657 267.582 130.542 262.275C129.427 256.968 126.912 252.172 123.333 248.525C119.754 244.878 115.28 242.554 110.506 241.86C110.127 236.909 108.735 232.125 106.44 227.89C104.146 223.654 101.012 220.082 97.2883 217.458C93.3859 214.748 88.9987 213.058 84.447 212.514C79.8952 211.97 75.2938 212.584 70.9782 214.313C65.9275 213.378 60.753 213.821 55.8833 215.605C51.0135 217.388 46.5886 220.46 42.9747 224.568C37.6908 230.379 34.1786 238.626 34.7901 246.943C35.4016 255.261 40.764 263.241 47.9922 264.823C46.6998 267.836 45.9663 271.118 45.8368 274.465C45.7074 277.812 46.1848 281.154 47.2395 284.284C49.5758 290.469 55.8789 295.338 61.4921 297.702Z" fill="#407BFF" fill-opacity="0.08"/>
<path opacity="0.2" d="M61.4921 297.702C63.3655 300.849 65.991 303.325 69.0612 304.841C72.1314 306.357 75.5191 306.851 78.8277 306.263C82.1363 305.676 85.2287 304.032 87.7428 301.524C90.2569 299.017 92.0886 295.749 93.0235 292.104C100.863 298.324 112.874 296.796 120.776 290.735C124.761 287.677 127.831 283.316 129.575 278.232C131.32 273.147 131.657 267.582 130.542 262.275C129.427 256.968 126.912 252.172 123.333 248.525C119.754 244.878 115.28 242.554 110.506 241.86C110.127 236.909 108.735 232.125 106.44 227.89C104.146 223.654 101.012 220.082 97.2883 217.458C93.3859 214.748 88.9987 213.058 84.447 212.514C79.8952 211.97 75.2938 212.584 70.9782 214.313C65.9275 213.378 60.753 213.821 55.8833 215.605C51.0135 217.388 46.5886 220.46 42.9747 224.568C37.6908 230.379 34.1786 238.626 34.7901 246.943C35.4016 255.261 40.764 263.241 47.9922 264.823C46.6998 267.836 45.9663 271.118 45.8368 274.465C45.7074 277.812 46.1848 281.154 47.2395 284.284C49.5758 290.469 55.8789 295.338 61.4921 297.702Z" fill="black"/>
<path d="M227.411 146.774C224.246 145.536 220.835 145.346 217.578 146.226C214.321 147.105 211.352 149.018 209.02 151.74C206.687 154.463 205.087 157.882 204.406 161.598C203.726 165.314 203.993 169.173 205.177 172.722C195.644 173.06 186.816 182.497 183.712 192.717C182.143 197.868 181.994 203.439 183.286 208.688C184.578 213.937 187.25 218.616 190.945 222.102C194.64 225.589 199.185 227.717 203.973 228.205C208.762 228.692 213.568 227.516 217.752 224.832C220.684 228.531 224.336 231.405 228.418 233.226C232.501 235.046 236.902 235.762 241.271 235.318C245.829 234.827 250.233 233.191 254.163 230.529C258.093 227.866 261.451 224.244 263.991 219.927C268.525 217.245 272.431 213.378 275.386 208.647C278.342 203.916 280.261 198.455 280.987 192.717C282.132 184.488 280.579 175.495 275.672 169.257C270.764 163.019 262.266 160.37 255.649 163.925C255.078 160.65 253.922 157.542 252.253 154.792C250.584 152.041 248.437 149.706 245.944 147.93C240.785 144.464 233.149 144.855 227.411 146.774Z" fill="#407BFF" fill-opacity="0.08"/>
<path opacity="0.1" d="M227.411 146.774C224.246 145.536 220.835 145.346 217.578 146.226C214.321 147.105 211.352 149.018 209.02 151.74C206.687 154.463 205.087 157.882 204.406 161.598C203.726 165.314 203.993 169.173 205.177 172.722C195.644 173.06 186.816 182.497 183.712 192.717C182.143 197.868 181.994 203.439 183.286 208.688C184.578 213.937 187.25 218.616 190.945 222.102C194.64 225.589 199.185 227.717 203.973 228.205C208.762 228.692 213.568 227.516 217.752 224.832C220.684 228.531 224.336 231.405 228.418 233.226C232.501 235.046 236.902 235.762 241.271 235.318C245.829 234.827 250.233 233.191 254.163 230.529C258.093 227.866 261.451 224.244 263.991 219.927C268.525 217.245 272.431 213.378 275.386 208.647C278.342 203.916 280.261 198.455 280.987 192.717C282.132 184.488 280.579 175.495 275.672 169.257C270.764 163.019 262.266 160.37 255.649 163.925C255.078 160.65 253.922 157.542 252.253 154.792C250.584 152.041 248.437 149.706 245.944 147.93C240.785 144.464 233.149 144.855 227.411 146.774Z" fill="black"/>
<path d="M169.229 553.875C169.229 553.875 137.603 530.646 143.608 526.701C149.614 522.755 170.687 545.984 170.687 545.984C170.687 545.984 147.387 507.346 153.141 499.597C158.896 491.849 174.403 531.091 174.403 531.091C174.403 531.091 163.866 486.232 171.267 481.327C178.668 476.422 181.411 526.274 181.411 526.274C181.411 526.274 184.312 472.245 197.953 472.956C211.594 473.667 191.681 526.274 191.681 526.274C191.681 526.274 210.92 495.012 217.741 503.881C224.561 512.749 196.025 537.649 196.025 537.649C196.025 537.649 217.364 526.292 218.791 534.716C220.218 543.14 195.272 552.116 195.272 552.116C195.272 552.116 203.284 554.728 205.15 557.785H162.533C162.533 557.785 161.844 555.492 169.229 553.875Z" fill="#407BFF" fill-opacity="0.08"/>
<path opacity="0.6" d="M169.229 553.875C169.229 553.875 137.603 530.646 143.608 526.701C149.614 522.755 170.687 545.984 170.687 545.984C170.687 545.984 147.387 507.346 153.141 499.597C158.896 491.849 174.403 531.091 174.403 531.091C174.403 531.091 163.866 486.232 171.267 481.327C178.668 476.422 181.411 526.274 181.411 526.274C181.411 526.274 184.312 472.245 197.953 472.956C211.594 473.667 191.681 526.274 191.681 526.274C191.681 526.274 210.92 495.012 217.741 503.881C224.561 512.749 196.025 537.649 196.025 537.649C196.025 537.649 217.364 526.292 218.791 534.716C220.218 543.14 195.272 552.116 195.272 552.116C195.272 552.116 203.284 554.728 205.15 557.785H162.533C162.533 557.785 161.844 555.492 169.229 553.875Z" fill="white"/>
</g>
</svg>
