<svg width="50" height="50" viewBox="0 0 50 50" fill="none" xmlns="http://www.w3.org/2000/svg">
<path d="M25 50C38.8071 50 50 38.8071 50 25C50 11.1929 38.8071 0 25 0C11.1929 0 0 11.1929 0 25C0 38.8071 11.1929 50 25 50Z" fill="#6C63FF"/>
<path d="M40.3132 17.9692C39.2419 18.4443 38.0894 18.7656 36.8808 18.9091C38.1148 18.1698 39.0618 16.9999 39.5088 15.6037C38.3542 16.2887 37.0747 16.7856 35.7141 17.0534C34.6241 15.8925 33.071 15.167 31.3512 15.167C28.0517 15.167 25.3755 17.8431 25.3755 21.1427C25.3755 21.6111 25.4286 22.067 25.5311 22.5046C20.5648 22.2555 16.1613 19.8766 13.2138 16.2602C12.6995 17.1426 12.4045 18.1698 12.4045 19.2647C12.4045 21.3374 13.4602 23.1673 15.0628 24.2386C14.0837 24.2079 13.1616 23.9391 12.3564 23.4904C12.3559 23.5158 12.3559 23.5412 12.3559 23.5661C12.3559 26.4615 14.4166 28.8765 17.1497 29.4251C16.6488 29.5623 16.1199 29.635 15.5757 29.635C15.1898 29.635 14.8159 29.598 14.4513 29.5285C15.2116 31.902 17.418 33.6298 20.0335 33.6783C17.988 35.2813 15.4117 36.2364 12.6113 36.2364C12.13 36.2364 11.6531 36.2083 11.1865 36.1526C13.8297 37.8487 16.9715 38.8376 20.3459 38.8376C31.3374 38.8376 37.3483 29.7321 37.3483 21.8348C37.3483 21.5759 37.3425 21.3178 37.3309 21.062C38.4994 20.2198 39.5124 19.1676 40.3132 17.9692Z" fill="#F1F2F2"/>
</svg>
